<?xml version="1.0" encoding="utf-8"?>
<!-- Generator: Adobe Illustrator 19.0.1, SVG Export Plug-In . SVG Version: 6.00 Build 0)  -->
<svg version="1.1" id="Layer_1" xmlns="http://www.w3.org/2000/svg" xmlns:xlink="http://www.w3.org/1999/xlink" x="0px" y="0px"
	 viewBox="143 56 397.7 395" style="enable-background:new 143 56 397.7 395;" xml:space="preserve">
<style type="text/css">
	.st0{fill:#FF0000;}
	.st1{fill:#006600;}
	.st2{fill:#FFFF00;}
	.st3{fill:#FFFFFF;}
	.st4{fill:#003399;}
</style>
<g>
	<g>
		<g>
			<path class="st0" d="M341.9,58.5L341.9,58.5c-17.6,0-34.7,2.4-51,6.7v376.5c16.2,4.4,33.3,6.7,51,6.7h0c107.7,0,195-87.3,195-195
				v0C536.9,145.8,449.6,58.5,341.9,58.5z"/>
			<path class="st1" d="M146.9,253.5L146.9,253.5c0,90.1,61.1,165.9,144,188.3V65.2C207.9,87.6,146.9,163.4,146.9,253.5z"/>
		</g>
	</g>
	<g>
		<g>
			<path class="st2" d="M367.6,314.3c-29.6-0.9-165.3-85.6-166.3-99.1l7.5-12.5c13.5,19.6,152.2,102,165.9,99L367.6,314.3"/>
			<path d="M367.6,314.6C367.6,314.6,367.6,314.6,367.6,314.6c-15.8-0.5-60.5-24.5-94-44.9c-34.6-21-72-47.1-72.5-54.5
				c0-0.1,0-0.1,0-0.2l7.5-12.5c0-0.1,0.1-0.1,0.2-0.1c0.1,0,0.2,0,0.2,0.1c6.9,10,46.6,36.3,82.8,57.9
				c42.7,25.5,76.8,42.3,82.8,41.1c0.1,0,0.2,0,0.3,0.1c0.1,0.1,0.1,0.2,0,0.3l-7.1,12.5C367.8,314.5,367.7,314.6,367.6,314.6z
				 M201.6,215.2c0.7,6.2,31,28.9,72.2,54c33.3,20.3,77.8,44.1,93.6,44.8l6.7-11.9c-8.5,0.4-47.3-20.1-82.6-41.2
				c-35.9-21.4-75.1-47.3-82.7-57.7L201.6,215.2z"/>
		</g>
		<g>
			<path class="st2" d="M207.2,201c-2.7,7.1,35.4,30.7,81.2,58.6c45.8,27.9,85.3,45.1,88.2,42.6c0.2-0.3,1.4-2.5,1.3-2.5
				c-0.5,0.8-1.9,1.1-4,0.5c-12.4-3.6-44.7-18.4-84.6-42.6c-40-24.2-74.8-46.6-80.2-56.1c-0.4-0.7-0.6-1.9-0.6-2.8l-0.1,0l-1.2,2
				L207.2,201L207.2,201L207.2,201z M368.3,314.7c-0.5,0.9-1.4,0.9-3.2,0.7c-11.1-1.2-44.7-17.6-84.4-41.4
				c-46.3-27.7-84.5-52.9-80.3-59.5l1.1-2l0.2,0.1c-3.7,11.2,75.4,56.4,80.1,59.3c45.8,28.4,84.4,44.9,87.8,40.6L368.3,314.7
				L368.3,314.7L368.3,314.7z"/>
			<path d="M366.5,315.8c-0.4,0-0.9,0-1.4-0.1c-11.3-1.2-45.3-17.9-84.5-41.4c-52.5-31.4-78.9-50.3-80.7-57.8
				c-0.2-0.8-0.1-1.5,0.2-2.1l1.1-2c0.1-0.1,0.2-0.2,0.3-0.1l0.2,0.1c0.1,0,0.1,0.1,0.2,0.1c0,0.1,0,0.1,0,0.2
				c-1.2,3.7,7.1,16.1,76.8,57.1c1.6,0.9,2.7,1.6,3.1,1.8c45.2,28,84.1,44.9,87.4,40.7c0.1-0.1,0.3-0.1,0.4-0.1
				c0.1,0.1,0.2,0.2,0.1,0.4l-1.2,2.1c0,0,0,0,0,0C368.1,315.6,367.4,315.8,366.5,315.8z M201.3,213.4l-0.7,1.2
				c-0.3,0.5-0.3,1-0.2,1.7c1.8,7.3,28.1,26.1,80.4,57.5c39.2,23.5,73.1,40.1,84.3,41.3c1.7,0.2,2.5,0.2,2.9-0.6c0,0,0,0,0,0
				l0.7-1.2c-0.4,0.1-0.8,0.2-1.4,0.2c-9.6,0-44.7-15.8-85.8-41.3c-0.4-0.3-1.5-0.9-3.1-1.8C227.2,240.2,201.3,221,201.3,213.4z
				 M375.8,302.6c-7.2,0-44.4-16.7-87.5-42.8c-49.3-30-84-51.8-81.4-58.9c0,0,0,0,0,0l0.2-0.3l1.2-2c0.1-0.1,0.1-0.1,0.2-0.1l0.1,0
				c0.1,0,0.1,0,0.2,0.1c0.1,0.1,0.1,0.1,0.1,0.2c0,0.8,0.2,2,0.6,2.6c5.7,10,45.8,35.2,80.1,56c37.6,22.8,71,38.7,84.6,42.6
				c1.8,0.5,3.2,0.4,3.7-0.4c0-0.1,0.1-0.1,0.2-0.1c0.1,0,0.2,0,0.3,0.1c0.1,0.2,0.1,0.2-1.2,2.5l-0.1,0.3c0,0,0,0.1-0.1,0.1
				C376.7,302.5,376.3,302.6,375.8,302.6z M207.5,201.1c-2.6,7.3,41.9,34.3,81.1,58.2c47.1,28.6,85,44.7,87.9,42.7l0.1-0.2
				c0.3-0.5,0.5-0.8,0.7-1.2c-0.8,0.3-1.9,0.2-3.3-0.2c-13.6-3.9-47.1-19.8-84.7-42.7c-34.3-20.8-74.5-46-80.3-56.2
				c-0.3-0.5-0.5-1.4-0.6-2.1L207.5,201.1z"/>
		</g>
		<g>
			<path class="st2" d="M291.1,223.3c29.6-0.2,66.2-4,87.2-12.4l-4.5-7.4c-12.4,6.9-49.2,11.4-83,12.1c-39.9-0.4-68.1-4.1-82.2-13.6
				l-4.3,7.8C230.3,220.9,256.9,223.2,291.1,223.3"/>
			<path d="M291.1,223.6C291.1,223.6,291.1,223.6,291.1,223.6c-34.3-0.1-60.7-2.4-86.9-13.4c-0.1,0-0.1-0.1-0.2-0.2
				c0-0.1,0-0.2,0-0.2l4.3-7.8c0-0.1,0.1-0.1,0.2-0.1c0.1,0,0.2,0,0.2,0c13.1,8.8,39.2,13.1,82.1,13.5c30.5-0.6,69.4-4.6,82.8-12.1
				c0.1-0.1,0.3,0,0.4,0.1l4.5,7.4c0,0.1,0.1,0.2,0,0.2c0,0.1-0.1,0.1-0.2,0.2C356.2,220,318.8,223.4,291.1,223.6
				C291.1,223.6,291.1,223.6,291.1,223.6z M204.7,209.8c25.9,10.9,52.3,13.2,86.3,13.3c0,0,0,0,0,0c27.5-0.2,64.7-3.6,86.8-12.3
				l-4.2-6.9c-13.7,7.4-52.4,11.4-82.8,12c-42.7-0.4-68.8-4.7-82.1-13.4L204.7,209.8z"/>
		</g>
		<g>
			<path class="st2" d="M379.5,211.1c-0.7,1.2-14.4,5.9-34.7,9.4c-13.7,2.1-31.6,3.9-53.9,3.9c-21.2,0-38.5-1.5-51.6-3.3
				c-21.2-3.3-32.2-8-36.2-9.6c0.4-0.8,0.6-1.3,1-2c11.7,4.6,22.7,7.4,35.5,9.4c13,1.8,30.1,3.3,51.2,3.3c22.2,0,39.9-1.9,53.5-4
				c20.7-3.3,32.1-7.6,33.6-9.6L379.5,211.1L379.5,211.1L379.5,211.1z M375.6,203.6c-2.2,1.8-13.4,5.8-33.1,8.9
				c-13.1,1.9-29.9,3.6-51.2,3.6c-20.3,0-36.9-1.3-49.5-3.2c-20-2.6-30.7-7.3-34.5-8.7c0.4-0.7,0.8-1.3,1.2-2
				c3,1.5,13.3,5.7,33.5,8.5c12.5,1.8,29.1,3.1,49.3,3.1c21.3,0,37.8-1.7,50.8-3.6c19.8-2.7,30.5-7.8,32.1-9.1L375.6,203.6
				L375.6,203.6L375.6,203.6z"/>
			<path d="M290.6,224.6c-18,0-35.2-1.1-51.2-3.3c-20.5-3.2-31.7-7.7-35.9-9.4l-0.4-0.2c-0.1,0-0.1-0.1-0.2-0.2c0-0.1,0-0.2,0-0.2
				c0.2-0.3,0.3-0.6,0.4-0.9c0.2-0.4,0.4-0.8,0.6-1.2c0.1-0.1,0.2-0.2,0.4-0.1c11.2,4.4,22.1,7.3,35.5,9.4c16,2.2,33.1,3.3,50.8,3.3
				c0.1,0,0.3,0,0.4,0c18.2,0,35.6-1.3,53.5-4c20.5-3.3,31.9-7.6,33.5-9.5c0.1-0.1,0.1-0.1,0.2-0.1c0.1,0,0.2,0.1,0.2,0.1l1.5,2.5
				c0,0.1,0.1,0.2,0,0.3c0,0,0,0,0,0.1c-1.1,1.4-15.3,6.1-34.8,9.5c-16.9,2.6-35,3.9-53.9,3.9C290.8,224.6,290.7,224.6,290.6,224.6z
				 M203.5,211.4l0.2,0.1c4.2,1.7,15.3,6.2,35.7,9.4c16,2.2,33.2,3.3,51.2,3.3c0.1,0,0.3,0,0.4,0c18.9,0,37-1.3,53.9-3.9
				c20-3.5,33-8,34.4-9.1l-1.2-2c-2.3,2-12.8,6.1-33.5,9.5c-17.9,2.7-35.4,4-53.6,4c-17.9,0-35.1-1.1-51.3-3.3
				c-13.3-2.1-24.2-4.9-35.4-9.3c-0.2,0.3-0.3,0.6-0.5,0.9C203.7,211,203.6,211.1,203.5,211.4z M290.8,216.4
				c-17.8,0-34.8-1.1-49.1-3.2c-17.7-2.3-28-6.2-32.9-8.1c-0.6-0.2-1.2-0.4-1.6-0.6c-0.1,0-0.1-0.1-0.2-0.2c0-0.1,0-0.2,0-0.2
				c0.4-0.7,0.8-1.3,1.2-2c0.1-0.1,0.2-0.2,0.4-0.1c1.7,0.9,11.6,5.4,33.5,8.5c9.9,1.4,26.3,3.1,48.7,3.1c0.2,0,0.3,0,0.5,0
				c23.1,0,40.1-2.1,50.8-3.6c18.9-2.6,30-7.5,31.9-9c0.1,0,0.1-0.1,0.2-0.1c0.1,0,0.1,0.1,0.2,0.1l1.4,2.4c0,0,0,0.1,0,0.1
				c0,0.1,0,0.2-0.1,0.2c-2.2,1.8-13.2,5.8-33.3,9c-16.8,2.4-33.5,3.6-51.3,3.6C291.1,216.4,290.9,216.4,290.8,216.4z M207.7,204.1
				c0.4,0.1,0.8,0.3,1.3,0.5c4.9,1.9,15.2,5.8,32.8,8.1c14.3,2.1,31.2,3.2,49,3.2c0.1,0,0.3,0,0.4,0c17.7,0,34.4-1.2,51.2-3.6
				c19.4-3.1,30.3-6.9,32.8-8.7l-1.2-1.9c-2.2,1.4-12.4,6.2-31.9,8.9c-10.7,1.5-27.7,3.6-50.9,3.6c-0.2,0-0.3,0-0.5,0
				c-22.5,0-38.9-1.7-48.8-3.1c-21.2-3-31.1-7.3-33.4-8.5C208.2,203.1,207.9,203.6,207.7,204.1z"/>
		</g>
		<g>
			<path class="st2" d="M193.8,259c18.2,9.8,58.7,14.7,97,15.1c34.9,0.1,80.3-5.4,97.3-14.4l-0.5-9.8c-5.3,8.3-54,16.3-97.2,15.9
				c-43.2-0.3-83.3-7-96.7-15.6L193.8,259"/>
			<path d="M291.3,274.4c-0.2,0-0.3,0-0.5,0c-33.9-0.3-77.3-4.4-97.1-15.1c-0.1-0.1-0.2-0.2-0.1-0.3l-0.1-8.8c0-0.1,0.1-0.2,0.1-0.2
				c0.1-0.1,0.2,0,0.3,0c13.5,8.7,54.1,15.3,96.6,15.6c42.8,0.3,91.8-7.7,97-15.8c0.1-0.1,0.2-0.2,0.3-0.1c0.1,0,0.2,0.1,0.2,0.3
				l0.5,9.8c0,0.1-0.1,0.2-0.1,0.3C371.1,269,325.7,274.4,291.3,274.4z M194.1,258.9c19.8,10.6,62.9,14.7,96.7,15
				c34.2,0.1,79.8-5.3,97-14.3l-0.4-8.9c-7.3,8.2-54.3,15.8-97,15.5c-42.1-0.3-82.4-6.8-96.4-15.4L194.1,258.9z"/>
		</g>
		<g>
			<path class="st2" d="M389,257.6l0,2.3c-2.6,3.1-18.6,7.7-38.6,10.9c-15.3,2.3-35.2,4.1-60,4.1c-23.6,0-42.4-1.7-57-3.9
				c-23.1-3.4-37.8-9.2-40.8-11l0-2.7c8.9,5.9,33,10.2,41.1,11.6c14.5,2.2,33.2,3.9,56.7,3.9c24.7,0,44.5-1.8,59.7-4.1
				C364.5,266.7,385,261.2,389,257.6L389,257.6L389,257.6z M389,249.3l0,2.3c-2.6,3.1-18.6,7.7-38.6,10.9c-15.3,2.3-35.2,4.1-60,4.1
				c-23.6,0-42.4-1.7-57-3.9c-23.1-3.4-37.8-9.2-40.8-11l0-2.7c8.9,5.9,33,10.2,41.1,11.6c14.5,2.2,33.2,3.9,56.7,3.9
				c24.7,0,44.5-1.8,59.7-4.1C364.5,258.3,385,252.9,389,249.3L389,249.3L389,249.3z"/>
			<path d="M290.4,275.3c-20.9,0-40.1-1.3-57-3.9c-22.1-3.2-37.3-8.9-40.9-11c-0.1-0.1-0.1-0.1-0.1-0.2l0-2.7c0-0.1,0.1-0.2,0.1-0.2
				c0.1,0,0.2,0,0.3,0c8.9,5.9,33.6,10.3,41,11.5c16.8,2.6,35.9,3.9,56.6,3.9c21.9,0,42-1.4,59.7-4.1c14.3-2.1,34.8-7.4,38.8-11
				c0.1-0.1,0.2-0.1,0.3-0.1c0.1,0,0.2,0.1,0.2,0.3l0,2.3c0,0.1,0,0.1-0.1,0.2c-2.7,3.2-19,7.8-38.8,11
				C332.6,273.9,312.4,275.3,290.4,275.3z M192.9,259.9c2.6,1.5,16.8,7.4,40.5,10.9c16.9,2.6,36.1,3.9,56.9,3.9
				c22,0,42.2-1.4,60-4.1c19.2-3.1,35.7-7.7,38.4-10.7l0-1.6c-5,3.6-24.8,8.8-38.6,10.8c-17.7,2.7-37.8,4.1-59.7,4.1
				c-20.8,0-39.9-1.3-56.7-3.9c-7.3-1.2-31.4-5.5-40.8-11.3L192.9,259.9z M290.4,267c-20.9,0-40.1-1.3-57-3.9
				c-22.1-3.2-37.3-8.9-40.9-11c-0.1-0.1-0.1-0.1-0.1-0.2l0-2.7c0-0.1,0.1-0.2,0.1-0.2c0.1,0,0.2,0,0.3,0c8.9,5.9,33.6,10.3,41,11.5
				c16.8,2.6,35.9,3.9,56.6,3.9c21.9,0,42-1.4,59.7-4.1c14.3-2.1,34.8-7.4,38.8-11c0.1-0.1,0.2-0.1,0.2-0.1c0.1,0,0.2,0.1,0.2,0.2
				c0,0,0,0.1,0,0.1l0,2.3c0,0.1,0,0.1-0.1,0.2c-2.7,3.2-19,7.8-38.8,11C332.6,265.6,312.4,267,290.4,267z M192.9,251.6
				c2.6,1.5,16.8,7.4,40.5,10.9c16.9,2.6,36.1,3.9,56.9,3.9c22,0,42.2-1.4,60-4.1c19.2-3.1,35.7-7.7,38.4-10.7l0-1.7
				c-5,3.6-24.8,8.8-38.6,10.8c-17.7,2.7-37.8,4.1-59.7,4.1c-20.8,0-39.9-1.3-56.7-3.9c-7.3-1.2-31.4-5.5-40.8-11.3L192.9,251.6z"/>
		</g>
		<g>
			<path class="st2" d="M290.7,312.6c-41.9-0.2-77.8-11.4-85.4-13.3l5.5,8.7c13.4,5.6,48.4,14,80.3,13.1
				c31.9-0.9,59.7-3.4,79.3-12.9l5.7-9C362.7,305.5,317.2,312.5,290.7,312.6"/>
			<path d="M286.2,321.4c-30.1,0-62.3-7.7-75.5-13.2c-0.1,0-0.1-0.1-0.1-0.1l-5.5-8.7c-0.1-0.1-0.1-0.2,0-0.3
				c0.1-0.1,0.2-0.1,0.3-0.1c0.9,0.2,2.2,0.6,3.9,1c12.2,3.3,44.6,12,81.5,12.2c26.7-0.1,72.1-7.2,85.3-13.4c0.1-0.1,0.2,0,0.3,0.1
				c0.1,0.1,0.1,0.2,0,0.3l-5.7,9c0,0-0.1,0.1-0.1,0.1c-20.5,10-50.3,12.1-79.4,13C289.5,321.4,287.9,321.4,286.2,321.4z M211,307.8
				c13.9,5.8,48.8,13.9,80.1,13c29.1-0.8,58.7-3,79.1-12.9l5.1-8.1c-14.2,6.1-58.4,13-84.6,13.1c0,0,0,0,0,0
				c-37-0.2-69.4-9-81.6-12.3c-1.3-0.3-2.3-0.6-3.2-0.8L211,307.8z"/>
		</g>
		<g>
			<path class="st2" d="M372.5,306.1c-0.8,1.3-1.7,2.5-2.5,3.8c-9.3,3.3-23.8,6.7-30,7.7c-12.6,2.6-32,4.5-49.3,4.5
				c-37.1-0.5-67.5-7.8-81.8-14l-1.2-2l0.2-0.3l2,0.8c25.4,9.1,54,12.7,81,13.4c17.2,0.1,34.4-2,48.3-4.5c21.3-4.3,30-7.5,32.6-9
				L372.5,306.1L372.5,306.1L372.5,306.1z M377.5,298C377.5,298.1,377.5,298.1,377.5,298c-0.6,1.1-1.2,2.2-1.9,3.3
				c-4.9,1.8-18.3,5.7-37.9,8.4c-12.9,1.8-20.9,3.5-46.5,4c-48-1.2-79.1-10.6-86.5-12.9l-1.1-2.1c27.8,7.3,56.3,12.3,87.6,12.9
				c23.4-0.5,33.4-2.2,46.2-4c22.8-3.5,34.3-7.3,37.7-8.4c0-0.1-0.1-0.1-0.2-0.2L377.5,298L377.5,298L377.5,298z"/>
			<path d="M290.8,322.4c-37.9-0.6-67.8-7.9-81.9-14c-0.1,0-0.1-0.1-0.1-0.1l-1.2-2c-0.1-0.1,0-0.2,0-0.3l0.2-0.3
				c0.1-0.1,0.2-0.2,0.3-0.1l2,0.8c22.7,8.1,49.9,12.6,80.9,13.4c18.9,0.1,36.7-2.4,48.2-4.5c23.8-4.8,30.9-8,32.5-8.9l0.7-0.4
				c0.1-0.1,0.2,0,0.3,0.1c0.1,0.1,0.1,0.2,0,0.3c-0.9,1.3-1.7,2.6-2.5,3.8c0,0-0.1,0.1-0.1,0.1c-9.2,3.2-23.7,6.7-30,7.7
				C327,320.5,307.2,322.4,290.8,322.4z M209.1,307.9c15.2,6.6,46.3,13.4,81.6,14c16.4,0,36.2-1.8,49.2-4.5c6.3-1,20.7-4.4,29.9-7.6
				c0.6-0.9,1.2-1.8,1.9-2.8c-2.1,1.1-9.7,4.3-32.4,8.8c-11.6,2.1-29.4,4.5-48.4,4.5c-31.1-0.7-58.4-5.3-81.1-13.4l-1.7-0.7
				L209.1,307.9z M291.2,313.9c-42.9-1.1-72.7-8.6-86.6-12.9c-0.1,0-0.1-0.1-0.2-0.1l-1.1-2.1c0-0.1,0-0.2,0-0.3
				c0.1-0.1,0.2-0.1,0.3-0.1c31.8,8.3,59.6,12.4,87.5,12.8c20.9-0.4,31.2-1.9,42.1-3.4c1.3-0.2,2.7-0.4,4-0.6
				c22-3.4,33.5-7.1,37.3-8.3l0,0c0,0,0-0.1,0-0.1c0-0.1,0.1-0.2,0.2-0.2l2.5-0.9c0.1,0,0.3,0,0.3,0.1c0,0,0,0,0,0h0c0,0,0,0,0,0.1
				c0.1,0.1,0.1,0.2,0,0.3c-0.6,1.1-1.3,2.1-1.9,3.2c0,0.1-0.1,0.1-0.1,0.1c-6.6,2.4-20.5,6-37.9,8.4c-1.9,0.3-3.7,0.5-5.5,0.8
				C322,312.2,313.1,313.5,291.2,313.9z M204.9,300.5c13.9,4.4,43.6,11.8,86.3,12.9c21.8-0.4,30.7-1.7,41-3.2
				c1.8-0.3,3.6-0.5,5.5-0.8c17.3-2.4,31.1-6,37.7-8.4c0.5-0.9,1.1-1.7,1.6-2.6l-1.6,0.6c0,0,0,0.1,0,0.1c0,0.1-0.1,0.1-0.2,0.2
				l-0.4,0.1c-3.8,1.2-15.4,4.8-37.4,8.3c-1.4,0.2-2.7,0.4-4.1,0.6c-10.9,1.5-21.2,3-42.2,3.4c-27.8-0.5-55.5-4.5-87.1-12.7
				L204.9,300.5z"/>
		</g>
		<g>
			<path class="st2" d="M378,251.3c0.1,27.6-14,52.3-25.3,63.2c-16.1,15.4-37.4,25.4-62.3,25.8c-27.8,0.5-54-17.6-61-25.6
				c-13.7-15.6-24.9-35.3-25.3-62c1.7-30.1,13.5-51.1,30.6-65.4c17.1-14.4,39.9-21.4,58.9-20.9c21.9,0.6,47.5,11.3,65.2,32.7
				C370.3,213.2,375.3,228.3,378,251.3L378,251.3z M290.6,156.9c53.4,0,97.3,43.4,97.3,96.7c0,53.3-43.9,96.7-97.3,96.7
				s-96.9-43.4-96.9-96.7S237.2,156.9,290.6,156.9"/>
			<path d="M290.6,350.6c-53.6,0-97.2-43.5-97.2-97c0-53.5,43.6-97,97.2-97c25.9,0,50.4,10.1,68.9,28.5
				c18.5,18.4,28.7,42.7,28.7,68.5s-10.2,50.2-28.7,68.5C340.9,340.5,316.5,350.6,290.6,350.6z M290.6,157.2
				c-53.3,0-96.7,43.3-96.7,96.4c0,53.2,43.4,96.4,96.7,96.4c53.5,0,97-43.3,97-96.4C387.6,200.4,344.1,157.2,290.6,157.2z
				 M289.2,340.7c-28.5,0-53.9-18.7-60.1-25.7c-16.8-19-25.1-39.3-25.4-62.2c1.6-27.8,11.9-49.8,30.7-65.6
				c16-13.5,38.7-21.5,59.1-20.9c24.1,0.6,49.2,13.2,65.4,32.8c11.1,13.4,16.5,28.1,19.3,52.3c0,0,0,0,0,0
				c0.1,26.7-13.1,51.6-25.4,63.4c-17.2,16.5-38.8,25.5-62.5,25.9C289.9,340.7,289.5,340.7,289.2,340.7z M291.6,166.8
				c-19.8,0-41.4,7.9-56.8,20.8c-18.7,15.7-29,37.6-30.5,65.2c0.3,22.7,8.6,42.9,25.2,61.8c6.1,6.9,31.3,25.5,59.6,25.5
				c0.4,0,0.8,0,1.2,0c23.5-0.4,45-9.3,62.1-25.8c12.3-11.8,25.4-36.5,25.3-63c-2.8-24.1-8.1-38.6-19.2-52
				c-16.1-19.5-41-31.9-65-32.6C292.9,166.8,292.3,166.8,291.6,166.8z"/>
		</g>
		<g>
			<path class="st2" d="M290.8,156.6c53.4,0,97,43.6,97,97c0,53.4-43.6,97-97,97c-53.4,0-97-43.6-97-97S237.4,156.6,290.8,156.6
				L290.8,156.6z M195.9,253.6c0,52.2,42.9,94.9,94.9,94.9c52,0,94.9-42.7,94.9-94.9c0-52.2-42.9-94.9-94.9-94.9
				S195.9,201.4,195.9,253.6L195.9,253.6z"/>
			<path d="M290.8,350.9c-53.7,0-97.3-43.7-97.3-97.3c0-53.7,43.6-97.3,97.3-97.3c53.7,0,97.3,43.7,97.3,97.3
				C388.1,307.3,344.5,350.9,290.8,350.9z M290.8,156.8c-53.3,0-96.7,43.4-96.7,96.8c0,53.3,43.4,96.7,96.7,96.7
				c53.3,0,96.7-43.4,96.7-96.7C387.6,200.3,344.2,156.8,290.8,156.8z M290.8,348.8c-25.3,0-49.1-9.9-67.2-28
				c-18.1-18-28-41.9-28-67.2c0-25.3,9.9-49.2,28-67.2c18-18,41.9-28,67.2-28c25.3,0,49.1,9.9,67.2,28c18.1,18,28,41.9,28,67.2
				c0,25.3-9.9,49.2-28,67.2C339.9,338.8,316.1,348.8,290.8,348.8z M290.8,159c-52.2,0-94.6,42.4-94.6,94.6
				c0,52.2,42.4,94.6,94.6,94.6c52.2,0,94.6-42.4,94.6-94.6C385.4,201.4,343,159,290.8,159z"/>
		</g>
		<g>
			<path class="st2" d="M290.9,164.6c48.7,0,88.9,40,88.9,88.9c0,48.9-40.1,88.9-88.9,88.9s-88.9-40-88.9-88.9
				C202,204.6,242.2,164.6,290.9,164.6L290.9,164.6z M204.2,253.5c0,47.7,39.2,86.7,86.7,86.7s86.7-39,86.7-86.7
				c0-47.7-39.2-86.7-86.7-86.7C243.3,166.8,204.2,205.8,204.2,253.5L204.2,253.5z"/>
			<path d="M290.9,342.7c-23.7,0-46-9.3-62.9-26.2c-16.9-16.9-26.2-39.3-26.2-63s9.3-46.1,26.2-63c16.9-16.9,39.2-26.2,62.9-26.2
				c23.7,0,46,9.3,62.9,26.2c16.9,16.9,26.2,39.3,26.2,63s-9.3,46.1-26.2,63C336.9,333.4,314.6,342.7,290.9,342.7z M290.9,164.9
				c-48.8,0-88.6,39.7-88.6,88.6c0,48.9,39.7,88.6,88.6,88.6c48.8,0,88.6-39.7,88.6-88.6C379.5,204.7,339.8,164.9,290.9,164.9z
				 M290.9,340.5c-23.1,0-44.9-9.1-61.4-25.6c-16.5-16.5-25.6-38.3-25.6-61.5s9.1-45,25.6-61.5c16.5-16.5,38.3-25.6,61.4-25.6
				c23.1,0,44.9,9.1,61.4,25.6c16.5,16.5,25.6,38.3,25.6,61.5s-9.1,45-25.6,61.5C335.8,331.5,314,340.5,290.9,340.5z M290.9,167
				c-47.7,0-86.5,38.8-86.5,86.5c0,47.7,38.8,86.5,86.5,86.5s86.5-38.8,86.5-86.5C377.4,205.8,338.6,167,290.9,167z"/>
		</g>
		<g>
			<path class="st2" d="M294.8,156.2h-8.3l0,195h8.3L294.8,156.2z"/>
			<path d="M294.9,351.4h-8.3c-0.2,0-0.3-0.1-0.3-0.3l0-195c0-0.1,0-0.1,0.1-0.2c0.1-0.1,0.1-0.1,0.2-0.1h8.3c0.2,0,0.3,0.1,0.3,0.3
				l0,195c0,0.1,0,0.1-0.1,0.2C295,351.4,294.9,351.4,294.9,351.4z M286.8,350.9h7.8l0-194.4h-7.8L286.8,350.9z"/>
		</g>
		<g>
			<path class="st2" d="M294,155.1h2.1l0,197.2H294L294,155.1L294,155.1z M285.7,155.1h2.1l0,197.2h-2.1L285.7,155.1L285.7,155.1z"
				/>
			<path d="M287.9,352.6h-2.1c-0.2,0-0.3-0.1-0.3-0.3V155.1c0,0,0,0,0,0c0-0.2,0.1-0.3,0.3-0.3h2.1c0.2,0,0.3,0.1,0.3,0.3l0,197.2
				c0,0.1,0,0.1-0.1,0.2C288,352.5,287.9,352.6,287.9,352.6z M286,352h1.6l0-196.6H286V352z M296.1,352.6H294
				c-0.2,0-0.3-0.1-0.3-0.3l0-197.2c0-0.1,0-0.1,0.1-0.2c0.1-0.1,0.1-0.1,0.2-0.1h2.1c0.2,0,0.3,0.1,0.3,0.3l0,197.2
				c0,0.1,0,0.1-0.1,0.2C296.3,352.5,296.2,352.6,296.1,352.6z M294.3,352h1.6l0-196.6h-1.6L294.3,352z"/>
		</g>
		<g>
			<path class="st2" d="M387.9,257.4v-7.2l-5.9-5.5l-33.3-8.8l-48-4.9l-57.8,2.9l-41.2,9.8l-8.3,6.2v7.2l21-9.4l50-7.8h48l35.3,3.9
				l24.5,5.9L387.9,257.4z"/>
			<path d="M387.9,257.6c0,0-0.1,0-0.1,0l-15.7-7.8l-24.4-5.9l-35.2-3.9l-48,0l-49.9,7.8l-21,9.4c-0.1,0-0.2,0-0.3,0
				c-0.1-0.1-0.1-0.1-0.1-0.2v-7.2c0-0.1,0-0.2,0.1-0.2l8.3-6.2c0,0,0.1,0,0.1,0l41.2-9.8l57.9-2.9l48.1,4.9l33.4,8.8
				c0,0,0.1,0,0.1,0.1l5.9,5.5c0.1,0.1,0.1,0.1,0.1,0.2v7.2c0,0.1,0,0.2-0.1,0.2C388,257.6,388,257.6,387.9,257.6z M312.5,239.5
				l35.3,3.9l24.5,5.9l15.3,7.6v-6.6l-5.7-5.3l-33.2-8.8l-48-4.9l-57.8,2.9l-41,9.8l-8.1,6v6.6l20.7-9.3c0,0,0,0,0.1,0l50-7.8
				L312.5,239.5z"/>
		</g>
		<g>
			<path class="st2" d="M290.9,238.6c22.9,0,45.1,2.2,62.8,5.6c18.2,3.6,31,8.2,35.4,13.3l0,2.5c-5.3-6.4-22.5-11-35.8-13.7
				c-17.5-3.4-39.6-5.6-62.4-5.6c-24,0-46.4,2.3-63.7,5.7c-13.8,2.7-32.3,8.2-34.6,13.6v-2.6c1.3-3.7,15-9.3,34.3-13.1
				C244.3,240.9,266.7,238.6,290.9,238.6L290.9,238.6z M290.9,230.3c22.9,0,45.1,2.2,62.8,5.6c18.2,3.6,31,8.2,35.4,13.3l0,2.5
				c-5.3-6.4-22.5-11-35.8-13.7c-17.5-3.4-39.6-5.6-62.4-5.6c-24,0-46.3,2.3-63.6,5.7c-13.4,2.5-32.6,8.2-34.7,13.6v-2.6
				c1.3-3.7,15.3-9.4,34.3-13.1C244.3,232.5,266.7,230.3,290.9,230.3L290.9,230.3z"/>
			<path d="M192.6,260.3C192.6,260.3,192.6,260.3,192.6,260.3c-0.2,0-0.3-0.1-0.3-0.3v-2.6c0,0,0-0.1,0-0.1
				c1.4-4,15.9-9.6,34.5-13.3c18.6-3.6,41.3-5.6,64-5.7l0,0.3l0-0.3c0.2,0,0.4,0,0.6,0c21.5,0,43.6,2,62.2,5.6
				c19,3.8,31.3,8.4,35.5,13.4c0,0.1,0.1,0.1,0.1,0.2l0,2.5c0,0.1-0.1,0.2-0.2,0.3c-0.1,0-0.2,0-0.3-0.1
				c-5.6-6.7-24.7-11.4-35.6-13.6c-18.4-3.6-40.3-5.6-61.7-5.6c-0.2,0-0.4,0-0.6,0c-22.5,0-45.1,2.1-63.6,5.7
				c-15.1,3-32.3,8.5-34.4,13.4C192.8,260.2,192.7,260.3,192.6,260.3z M291.5,240.5c21.4,0,43.3,2,61.8,5.6
				c10.7,2.1,29.2,6.7,35.5,13.2l0-1.7c-4.2-4.8-16.4-9.4-35.2-13.1c-18.6-3.6-40.6-5.6-62.1-5.6c-0.2,0-0.4,0-0.6,0
				c-22.7,0-45.4,2.1-63.9,5.7c-20.6,4.1-32.9,9.7-34.1,12.9v1.6c4.1-5.5,23.1-10.6,34.3-12.8c18.6-3.6,41.2-5.6,63.7-5.7
				C291.1,240.5,291.3,240.5,291.5,240.5z M192.6,252C192.6,252,192.6,252,192.6,252c-0.2,0-0.3-0.1-0.3-0.3v-2.6c0,0,0-0.1,0-0.1
				c1.4-4,16.2-9.8,34.5-13.3c18.5-3.6,41.3-5.6,64-5.7v0c21.7,0,44,2,62.8,5.6c19,3.8,31.3,8.4,35.5,13.4c0,0.1,0.1,0.1,0.1,0.2
				l0,2.5c0,0.1-0.1,0.2-0.2,0.3c-0.1,0-0.2,0-0.3-0.1c-5.6-6.7-24.7-11.4-35.6-13.6c-18.6-3.6-40.7-5.6-62.3-5.6
				c-22.4,0-44.9,2.1-63.5,5.7c-15.3,2.9-32.6,8.6-34.5,13.4C192.8,251.9,192.7,252,192.6,252z M291.6,232.2c21.4,0,43.3,2,61.8,5.6
				c10.7,2.1,29.2,6.7,35.5,13.2l0-1.7c-4.2-4.8-16.4-9.4-35.2-13.1c-18.8-3.6-41-5.7-62.7-5.6l0,0c-22.7,0-45.4,2.1-63.9,5.7
				c-19.8,3.9-32.8,9.6-34.1,12.9v1.5c3.9-5.3,22.3-10.5,34.4-12.8c18.6-3.6,41.2-5.6,63.6-5.7C291.1,232.2,291.3,232.2,291.6,232.2
				z"/>
		</g>
		<g>
			<path class="st2" d="M290.4,187.8c36.1-0.2,67.6,5,82,12.4l5.3,9.1c-12.5-6.7-46.5-13.8-87.2-12.7c-33.2,0.2-68.6,3.7-86.4,13.1
				l6.3-10.5C224.9,191.7,259.4,187.8,290.4,187.8"/>
			<path d="M204.1,210c-0.1,0-0.1,0-0.2-0.1c-0.1-0.1-0.1-0.2,0-0.3l6.3-10.5c0,0,0.1-0.1,0.1-0.1c15.2-7.9,51.2-11.4,80.2-11.5
				c0,0,0,0,0,0c34.8-0.2,67,4.7,82.1,12.5c0,0,0.1,0.1,0.1,0.1l5.3,9.1c0.1,0.1,0,0.2,0,0.3c-0.1,0.1-0.2,0.1-0.3,0.1
				c-13.1-7.1-47.3-13.7-87.1-12.7c-23.3,0.1-65.5,2-86.3,13.1C204.1,210,204.1,210,204.1,210z M210.5,199.5l-5.7,9.6
				c21.1-10.7,62.6-12.6,85.7-12.7c39.1-1,72.7,5.4,86.5,12.3l-4.7-8.2c-15.1-7.7-47.1-12.5-81.8-12.4c0,0,0,0,0,0
				C261.6,188.1,225.7,191.7,210.5,199.5z"/>
		</g>
		<g>
			<path class="st2" d="M290.9,195.3c20.6-0.1,40.5,1.1,56.3,4c14.7,2.7,28.8,6.9,30.8,9.1l1.6,2.8c-4.9-3.2-17.1-6.7-32.7-9.7
				c-15.7-2.9-35.6-3.9-56.1-3.9c-23.2-0.1-41.3,1.1-56.8,3.9c-16.4,3.1-27.8,7.4-30.6,9.5l1.5-2.9c5.5-2.8,14.1-6.1,28.6-8.8
				C249.7,196.3,267.9,195.4,290.9,195.3L290.9,195.3L290.9,195.3z M290.9,187c19.7-0.1,39.2,1,54.3,3.8c12,2.3,23.8,6,28.1,9.2
				l2.3,3.6c-3.9-4.3-18.5-8.4-31.3-10.7c-15.1-2.6-33.7-3.6-53.4-3.8c-20.7,0.1-39.8,1.3-54.6,4c-14.2,2.7-23.3,5.9-27.1,8.4l2-3
				c5.3-2.8,13.9-5.4,24.8-7.5C250.8,188.3,270.1,187.1,290.9,187L290.9,187z"/>
			<path d="M379.6,211.4c-0.1,0-0.1,0-0.2,0c-4.8-3.1-16.7-6.6-32.6-9.7c-14-2.6-32.8-3.9-56-3.9c-23.2-0.1-41.3,1.1-56.8,3.8
				c-16.3,3.1-27.6,7.4-30.5,9.5c-0.1,0.1-0.3,0.1-0.3,0c-0.1-0.1-0.1-0.2-0.1-0.3l1.5-2.9c0-0.1,0.1-0.1,0.1-0.1
				c7.4-3.8,16.7-6.6,28.7-8.8c14.5-2.7,31.1-3.8,57.3-3.9l0,0c0,0,0,0,0,0c22.2,0,41.7,1.3,56.4,4c15,2.8,28.9,6.9,31,9.2l1.6,2.8
				c0.1,0.1,0,0.3-0.1,0.3C379.7,211.4,379.6,211.4,379.6,211.4z M292.4,197.2c22.5,0,40.9,1.3,54.6,3.9c15,2.9,26.5,6.2,31.8,9.2
				l-1-1.8c-1.9-2.1-15.9-6.2-30.6-8.9c-14.7-2.6-34.1-4-56.3-4h0c-26.1,0.1-42.7,1.3-57.2,3.9c-11.9,2.1-21.2,5-28.5,8.7l-1,1.9
				c3.9-2.3,14.8-6.2,29.8-9c15.5-2.7,33.6-3.9,56.9-3.9C291.4,197.2,291.9,197.2,292.4,197.2z M375.6,203.9c-0.1,0-0.2,0-0.2-0.1
				c-4-4.4-19.3-8.5-31.2-10.6c-13.7-2.4-31.1-3.6-53.4-3.8c-21.6,0.1-40.5,1.5-54.6,4c-12.5,2.4-22.7,5.5-27,8.3
				c-0.1,0.1-0.3,0.1-0.4,0c-0.1-0.1-0.1-0.2,0-0.4l2-3c0,0,0.1-0.1,0.1-0.1c5.3-2.8,13.9-5.4,24.9-7.5c14.1-2.6,33.1-4,55-4l0,0h0
				c21.5,0,40.3,1.3,54.4,3.8c12.8,2.5,24.2,6.2,28.2,9.3c0,0,0.1,0,0.1,0.1l2.3,3.6c0.1,0.1,0,0.3-0.1,0.4
				C375.7,203.9,375.7,203.9,375.6,203.9z M290.9,188.9c22.3,0.2,39.7,1.4,53.5,3.8c10.8,1.9,24.5,5.5,30,9.5l-1.2-2
				c-4-3-15.3-6.6-28-9.1c-14-2.5-32.8-3.8-54.3-3.8l0,0c-21.9,0.1-40.9,1.4-54.9,4c-10.9,2.1-19.4,4.7-24.7,7.4l-1.3,1.9
				c4.9-2.7,14.5-5.6,26.2-7.8C250.3,190.3,269.3,188.9,290.9,188.9z"/>
		</g>
		<g>
			<path class="st2" d="M339.1,293.9c-17.9-3.3-35.7-3.8-48.2-3.7c-60.2,0.7-79.6,12.4-82,15.9l-4.5-7.3
				c15.3-11.1,48.1-17.3,86.8-16.7c20.1,0.3,37.5,1.7,52.1,4.5L339.1,293.9"/>
			<path d="M208.9,306.4C208.9,306.4,208.9,306.4,208.9,306.4c-0.1,0-0.2-0.1-0.2-0.1l-4.5-7.3c-0.1-0.1,0-0.3,0.1-0.4
				c15.4-11.1,47.9-17.4,87-16.7c21.2,0.3,38.3,1.8,52.1,4.5c0.1,0,0.2,0.1,0.2,0.2c0,0.1,0,0.2,0,0.3l-4.2,7.3
				c-0.1,0.1-0.2,0.2-0.3,0.1c-14.1-2.6-30.3-3.9-48.1-3.7c-58.5,0.7-79.2,11.9-81.8,15.8C209.1,306.4,209,306.4,208.9,306.4z
				 M204.7,298.9l4.1,6.8c3.6-4.2,24.8-15,82-15.7c17.8-0.2,33.9,1,48.1,3.6l3.9-6.8c-13.7-2.6-30.6-4.1-51.6-4.4
				C252.4,281.8,220.1,287.9,204.7,298.9z"/>
		</g>
		<g>
			<path class="st2" d="M290.5,289.2c16.7,0.2,33.2,0.9,49,3.9l-1.1,2c-14.7-2.7-30.4-3.8-47.8-3.7c-22.2-0.2-44.7,1.9-64.2,7.5
				c-6.2,1.7-16.4,5.7-17.4,9l-1.1-1.9c0.3-1.9,6.5-6,18-9.2C248.2,290.5,269.2,289.4,290.5,289.2L290.5,289.2L290.5,289.2z
				 M291.3,280.8c17.3,0.3,35.3,1.1,52.7,4.6l-1.2,2.1c-15.7-3.1-30.7-4.2-51.4-4.5c-22.3,0-45.9,1.6-67.4,7.9
				c-6.9,2-18.9,6.4-19.3,9.8l-1.1-2c0.3-3.1,10.6-7.2,19.9-10C245.1,282.5,268.8,280.8,291.3,280.8L291.3,280.8z"/>
			<path d="M208.9,308.2c-0.1,0-0.2,0-0.2-0.1l-1.1-1.9c0-0.1,0-0.1,0-0.2c0.4-2.2,6.9-6.2,18.2-9.4c21.4-6.1,41.4-7.5,64.8-7.7
				c0,0,0,0,0,0c15.9,0.2,32.8,0.9,49,3.9c0.1,0,0.2,0.1,0.2,0.2c0,0.1,0,0.2,0,0.2l-1.1,2c-0.1,0.1-0.2,0.2-0.3,0.1
				c-13.9-2.6-29.5-3.8-47.8-3.7c-24.6-0.2-46.1,2.3-64.2,7.5c-6.6,1.8-16.3,5.8-17.2,8.8C209.1,308.1,209.1,308.2,208.9,308.2
				C208.9,308.2,208.9,308.2,208.9,308.2z M208.1,306l0.8,1.4c1.8-3.3,11.5-7,17.4-8.6c18.1-5.2,39.7-7.7,64.3-7.5
				c18.2-0.1,33.8,1.1,47.7,3.6l0.9-1.5c-16.1-3-32.9-3.6-48.6-3.8c0,0,0,0,0,0c-23.3,0.2-43.3,1.5-64.6,7.6
				C214.4,300.4,208.5,304.3,208.1,306z M204.7,301c-0.1,0-0.2-0.1-0.2-0.1l-1.1-2c0,0,0-0.1,0-0.2c0.3-4.1,15.5-8.8,20.1-10.2
				c18.5-5.4,40.1-7.9,67.9-8c0,0,0,0,0,0c17,0.3,35.1,1.1,52.7,4.6c0.1,0,0.2,0.1,0.2,0.2c0,0.1,0,0.2,0,0.2l-1.2,2.1
				c-0.1,0.1-0.2,0.2-0.3,0.1c-16.7-3.3-32.6-4.2-51.3-4.5c-27.6,0-49,2.5-67.3,7.9c-9,2.6-18.8,6.7-19.1,9.6
				C204.9,300.9,204.8,301,204.7,301C204.7,301,204.7,301,204.7,301z M203.8,298.7l0.8,1.4c2-4.3,17.5-8.9,19.3-9.4
				c18.3-5.3,39.8-7.8,67.5-7.9c18.7,0.3,34.6,1.2,51.2,4.4l0.9-1.6c-17.4-3.4-35.4-4.2-52.2-4.5c-27.7,0.1-49.3,2.6-67.7,7.9
				C211.9,292.4,204.2,296.2,203.8,298.7z"/>
		</g>
		<g>
			<path class="st2" d="M376.7,299.9l-7.2,11.2l-20.8-18.5l-53.9-36.3l-60.8-33.3l-31.5-10.8l6.7-12.5l2.3-1.2l19.6,4.9l64.7,33.3
				l37.2,23.5l31.4,22.5l12.7,14.7L376.7,299.9z"/>
			<path d="M369.5,311.4c-0.1,0-0.1,0-0.2-0.1l-20.8-18.5l-53.9-36.2L234,223.4l-31.5-10.8c-0.1,0-0.1-0.1-0.2-0.2
				c0-0.1,0-0.2,0-0.2l6.7-12.5c0,0,0.1-0.1,0.1-0.1l2.3-1.2c0.1,0,0.1,0,0.2,0l19.6,4.9l64.7,33.3l37.3,23.5l31.4,22.5l12.8,14.7
				c0.1,0.1,0.1,0.1,0.1,0.2L377,300c0,0,0,0.1,0,0.1l-7.2,11.2C369.7,311.4,369.6,311.4,369.5,311.4
				C369.5,311.4,369.5,311.4,369.5,311.4z M202.9,212.2l31.2,10.7l60.8,33.3l53.9,36.3l20.6,18.3l7-10.9l0.4-2.1l-12.7-14.6
				l-31.3-22.5l-37.2-23.5L231,203.8l-19.4-4.9l-2.1,1.2L202.9,212.2z"/>
		</g>
		<g>
			<path class="st2" d="M201.4,212.6c5.5-3.8,46.2,14.4,88.7,40c42.4,25.7,83,54.8,79.3,60.2l-1.2,1.9l-0.6,0.4
				c0.1-0.1,0.7-0.8-0.1-2.8c-1.8-5.9-30.6-28.9-78.3-57.7c-46.5-27.7-85.3-44.5-89.2-39.7L201.4,212.6L201.4,212.6L201.4,212.6z
				 M378.2,299.8c3.5-6.9-34.2-35.3-81-63c-47.8-27.1-82.3-43.1-88.6-38.3l-1.4,2.5c0,0.1,0.1-0.2,0.3-0.4c1.1-1,3-0.9,3.9-0.9
				c10.8,0.2,41.8,14.4,85.3,39.3c19,11.1,80.4,50.5,80.2,61.5c0,1,0.1,1.1-0.3,1.6L378.2,299.8L378.2,299.8L378.2,299.8z"/>
			<path d="M367.7,315.5c-0.1,0-0.2,0-0.2-0.1c-0.1-0.1-0.1-0.3,0.1-0.4l0,0c0,0,0.6-0.7-0.2-2.5c-1.9-6.1-32.3-29.9-78.2-57.6
				c-48.8-29.1-85.3-44-88.8-39.7c-0.1,0.1-0.3,0.1-0.4,0.1c-0.1-0.1-0.2-0.2-0.1-0.4l1.2-2.3c0,0,0.1-0.1,0.1-0.1
				c5.8-3.9,46.6,14.4,89,40c38.2,23.2,77.8,50.9,79.6,59.1c0.1,0.6,0.1,1.1-0.2,1.6l-1.2,1.9c0,0,0,0.1-0.1,0.1l-0.6,0.4v0
				c0,0,0,0,0,0C367.8,315.5,367.8,315.5,367.7,315.5z M202.8,213.9c10.7,0,46.7,16.7,86.7,40.5c46.6,28.2,76.5,51.5,78.4,57.9
				c0.3,0.8,0.4,1.4,0.4,1.9l0.9-1.4c0.2-0.3,0.2-0.7,0.1-1.1c-1.8-8-42.2-36.2-79.4-58.7c-41.4-25-82.6-43.7-88.4-40.1l-0.7,1.3
				C201.4,214,202,213.9,202.8,213.9z M376.7,302.4c-0.1,0-0.1,0-0.2-0.1c-0.1-0.1-0.2-0.3-0.1-0.4l0.2-0.2c0.1-0.2,0.1-0.4,0.1-0.9
				l0-0.3c0.2-11-62.3-51-80-61.3c-43.3-24.8-74.3-39.1-85.1-39.3l-0.2,0c-0.9,0-2.5,0-3.5,0.9c-0.2,0.1-0.2,0.3-0.3,0.3
				c-0.1,0.1-0.2,0.2-0.4,0.2c-0.1,0-0.2-0.2-0.2-0.3c0,0,0-0.1,0-0.1l1.4-2.5c0,0,0-0.1,0.1-0.1c7.6-5.7,52.5,17.7,88.9,38.3
				c42.2,25,85,55.7,81.1,63.4c0,0,0,0,0,0l-1.4,2.1c0,0.1-0.1,0.2-0.2,0.3C376.8,302.4,376.7,302.4,376.7,302.4z M211.5,199.4
				c10.9,0.2,42.1,14.5,85.4,39.4c12.5,7.3,80.6,49.7,80.3,61.8l0,0.2l0.8-1.1c3.2-6.4-32.3-33.9-80.9-62.6
				c-51.1-29-82.4-42.6-88.2-38.4l-0.7,1.2c1.1-0.5,2.3-0.5,3.1-0.5L211.5,199.4z"/>
		</g>
	</g>
	<g>
		<g>
			<path class="st3" d="M232.7,264.3c0,15.9,6.5,30.4,17.1,40.9c10.6,10.6,25,17.2,41,17.2c16.1,0,30.6-6.5,41.2-17
				c10.6-10.5,17.1-25,17.1-41h0v-77.6l-116.4-0.1L232.7,264.3L232.7,264.3L232.7,264.3z"/>
			<path d="M290.8,322.7c-15.4,0-30-6.2-41.2-17.3c-11-11-17.1-25.5-17.2-40.8h0l0-78.3l117,0.1l0,77.9c0,15.6-6.1,30.2-17.2,41.3
				C321.1,316.7,306.4,322.7,290.8,322.7z M233,264l0,0.3c0,15.3,6,29.7,17,40.7c11.1,11,25.6,17.1,40.7,17.1c15.4,0,30-6,40.9-16.9
				c10.9-10.9,16.9-25.3,17-40.6l0-0.2v-77.3L233,186.9L233,264z"/>
		</g>
		<g>
			<path class="st0" d="M234.9,264.4L234.9,264.4c0,15.3,6.3,29.2,16.4,39.2c10.1,10.1,24.1,16.4,39.4,16.4
				c15.4,0,29.3-6.2,39.4-16.3c10.1-10.1,16.4-23.9,16.4-39.2h0v-75.3l-111.6,0L234.9,264.4 M324.1,211.7l0,47.9l0,5.1h0
				c0,1.3-0.1,2.9-0.2,4.1c-0.9,7.6-4.4,14.2-9.5,19.3c-6,6-14.4,9.7-23.6,9.7c-9.1,0-17.3-3.9-23.4-9.9c-6.2-6.2-9.8-14.7-9.8-23.5
				l0-52.9L324.1,211.7L324.1,211.7L324.1,211.7z"/>
			<path d="M290.7,320.3c-14.9,0-28.9-5.8-39.6-16.4c-10.6-10.6-16.5-24.6-16.5-39.4l0.5,0v0c0,14.7,5.8,28.5,16.4,39
				c10.6,10.5,24.5,16.3,39.2,16.3c14.8,0,28.7-5.8,39.2-16.2c10.5-10.4,16.2-24.2,16.3-38.9l0-0.2v-75l-111.1,0l-0.1,75h-0.5
				l0.1-75.5l112,0l0,75.5c0,14.9-5.8,28.9-16.4,39.4C319.7,314.5,305.7,320.3,290.7,320.3z M290.7,298.2c-8.7,0-17.1-3.5-23.5-10
				c-6.3-6.3-9.9-14.9-9.9-23.6l0-53.2h0.2l66.7,0.1l0.1,0.1l0,0.1l0,47.9l0,5.1c0,1.4-0.1,2.9-0.2,4.2c-0.9,7.3-4.2,14.1-9.6,19.5
				C308.1,294.7,299.6,298.2,290.7,298.2z M257.8,211.9l0,52.7c0,8.6,3.6,17.1,9.8,23.3c6.4,6.3,14.6,9.8,23.2,9.8
				c8.8,0,17.1-3.4,23.4-9.7c5.3-5.3,8.6-11.9,9.5-19.2c0.1-1.2,0.2-2.7,0.2-4.1l0-5.1l0-47.7L257.8,211.9z"/>
		</g>
		<g>
			<g id="castle">
				<g>
					<path class="st2" d="M242.1,208.8c0.1-5.4,4-6.7,4-6.7c0,0,4.1,1.4,4.1,6.8L242.1,208.8"/>
				</g>
				<g>
					<path class="st2" d="M238.8,202.2l-0.7,6.2l4.1,0c0-5.1,3.9-6,4-6c0.1,0,3.9,1.1,4,6h4.1l-0.7-6.3L238.8,202.2L238.8,202.2
						L238.8,202.2z"/>
					<path d="M242.4,208.7l-4.6,0l0.7-6.5l0.1-0.2l15.1,0l0.8,6.8h-4.6l0-0.2c-0.1-4.7-3.8-5.7-3.8-5.7c0,0-3.7,0.7-3.7,5.7
						L242.4,208.7z M250.4,208.2h3.6l-0.7-5.8l-6.5,0c0.4,0.2,1,0.5,1.6,1.1C249.3,204.3,250.3,205.8,250.4,208.2z M238.4,208.2
						l3.5,0c0.1-2.7,1.2-4.2,2.2-5c0.4-0.4,0.9-0.6,1.3-0.8l-6.4,0L238.4,208.2z"/>
				</g>
				<g>
					<path class="st2" d="M237.9,208.5h16.6c0.3,0,0.6,0.3,0.6,0.8c0,0.4-0.3,0.8-0.6,0.8h-16.6c-0.3,0-0.6-0.3-0.6-0.8
						C237.2,208.8,237.5,208.5,237.9,208.5z"/>
					<path d="M254.5,210.3h-16.6c-0.5,0-0.9-0.5-0.9-1c0-0.6,0.4-1,0.9-1h16.6c0.5,0,0.9,0.5,0.9,1
						C255.3,209.8,254.9,210.3,254.5,210.3z M237.9,208.7c-0.2,0-0.4,0.2-0.4,0.5c0,0.3,0.2,0.5,0.4,0.5h16.6c0.2,0,0.4-0.2,0.4-0.5
						c0-0.3-0.2-0.5-0.4-0.5H237.9z"/>
				</g>
				<g>
					<path class="st2" d="M243.9,208.5c0-3.2,2.2-4.2,2.2-4.2c0,0,2.3,0.9,2.3,4.2H243.9"/>
					<path d="M248.7,208.7h-4.8v-0.2l-0.2,0c0-2.1,0.9-3.3,1.6-3.9c0,0,0.7-0.5,0.9-0.5c0,0,0,0,0,0c0.2,0,2.5,1.1,2.5,4.4
						L248.7,208.7z M244.1,208.2h4c-0.1-2.5-1.7-3.4-2.1-3.6C245.8,204.8,244.3,205.7,244.1,208.2z"/>
				</g>
				<g>
					<path class="st2" d="M238.2,199.7h15.9c0.3,0,0.6,0.3,0.6,0.7c0,0.4-0.3,0.7-0.6,0.7h-15.9c-0.3,0-0.6-0.3-0.6-0.7
						C237.6,200,237.9,199.7,238.2,199.7z"/>
					<path d="M254.1,201.3h-15.9c-0.5,0-0.9-0.4-0.9-0.9c0-0.5,0.4-0.9,0.9-0.9h15.9c0.5,0,0.9,0.4,0.9,0.9
						C255,200.9,254.6,201.3,254.1,201.3z M238.2,199.9c-0.2,0-0.4,0.2-0.4,0.4c0,0.2,0.2,0.4,0.4,0.4h15.9c0.2,0,0.4-0.2,0.4-0.4
						c0-0.2-0.2-0.4-0.4-0.4H238.2z"/>
				</g>
				<g>
					<path class="st2" d="M238.5,201h15.2c0.3,0,0.6,0.3,0.6,0.7c0,0.4-0.3,0.7-0.6,0.7h-15.2c-0.3,0-0.6-0.3-0.6-0.7
						C238,201.4,238.2,201,238.5,201z"/>
					<path d="M253.8,202.7h-15.2c-0.5,0-0.8-0.4-0.8-0.9c0-0.5,0.4-0.9,0.8-0.9h15.2c0.5,0,0.8,0.4,0.8,0.9
						C254.6,202.3,254.2,202.7,253.8,202.7z M238.5,201.3c-0.2,0-0.3,0.2-0.3,0.4c0,0.2,0.2,0.4,0.3,0.4h15.2c0.2,0,0.3-0.2,0.3-0.4
						c0-0.2-0.2-0.4-0.3-0.4H238.5z"/>
				</g>
				<g>
					<path class="st2" d="M243.5,190.7l1.2,0v0.9h0.9v-0.9l1.2,0v0.9h0.9v-0.9h1.2l0,2c0,0.3-0.2,0.5-0.5,0.5H244
						c-0.3,0-0.6-0.2-0.6-0.5L243.5,190.7L243.5,190.7L243.5,190.7z"/>
					<path d="M248.3,193.4H244c-0.4,0-0.8-0.3-0.8-0.8l0-2.1l0.2-0.1l0.1,0l1.4,0v0.9h0.4v-0.9l1.7,0v0.9h0.4v-0.9h1.7l0,2.2
						C249.1,193.1,248.8,193.4,248.3,193.4z M243.7,190.9l0,1.7c0,0.1,0.2,0.3,0.3,0.3h4.3c0.1,0,0.3-0.1,0.3-0.3l0-1.7h-0.7v0.9
						h-1.4v-0.9l-0.7,0v0.9h-1.4v-0.9L243.7,190.9z"/>
				</g>
				<g>
					<path class="st2" d="M248,193.3l0.3,6.3l-4.2,0l0.3-6.3L248,193.3"/>
					<path d="M248.5,199.9l-4.7,0l0.3-6.8l4.1,0L248.5,199.9z M244.3,199.4l3.7,0l-0.3-5.8l-3.2,0L244.3,199.4z"/>
				</g>
				<g id="cp1">
					<path class="st2" d="M242.8,196.2l0.1,3.4l-4,0l0.1-3.4L242.8,196.2L242.8,196.2L242.8,196.2z"/>
					<path d="M238.7,199.9l0.1-3.9h4.3l0.1,3.9L238.7,199.9z M239.3,196.5l-0.1,2.9l3.5,0l-0.1-2.9H239.3z"/>
				</g>
				<g>
					<g id="cp1_1_">
						<path class="st2" d="M253.2,196.2l0.1,3.4l-4,0l0.1-3.4L253.2,196.2L253.2,196.2L253.2,196.2z"/>
						<path d="M249.1,199.9l0.1-3.9h4.3l0.1,3.9L249.1,199.9z M249.7,196.5l-0.1,2.9l3.5,0l-0.1-2.9H249.7z"/>
					</g>
				</g>
				<g id="cp2">
					<path class="st2" d="M238.3,193.8l1.2,0v0.9h0.9v-0.9l1.2,0v0.9h0.9v-0.9l1.2,0l0,2c0,0.3-0.2,0.5-0.5,0.5h-4.2
						c-0.3,0-0.5-0.2-0.5-0.5L238.3,193.8L238.3,193.8L238.3,193.8z"/>
					<path d="M243.1,196.5h-4.2c-0.4,0-0.8-0.3-0.8-0.8l0-2.1l0.2-0.1l0.1,0l1.4,0v0.9h0.4v-0.9l1.7,0v0.9h0.4v-0.9l1.7,0l0,2.2
						C243.8,196.1,243.5,196.5,243.1,196.5z M238.5,194l0,1.7c0,0.1,0.1,0.3,0.3,0.3h4.2c0.1,0,0.3-0.1,0.3-0.3l0-1.7l-0.7,0v0.9
						h-1.4V194l-0.7,0v0.9h-1.3V194L238.5,194z"/>
				</g>
				<g>
					<g id="cp2_1_">
						<path class="st2" d="M248.7,193.8l1.2,0v0.9h0.9v-0.9l1.2,0v0.9h0.9v-0.9l1.2,0l0,2c0,0.3-0.2,0.5-0.5,0.5h-4.2
							c-0.3,0-0.5-0.2-0.5-0.5L248.7,193.8L248.7,193.8L248.7,193.8z"/>
						<path d="M253.5,196.5h-4.2c-0.4,0-0.8-0.3-0.8-0.8l0-2.1l0.2-0.1l0.1,0l1.4,0v0.9h0.4v-0.9l1.7,0v0.9h0.4v-0.9l1.7,0l0,2.2
							C254.2,196.1,253.9,196.5,253.5,196.5z M248.9,194l0,1.7c0,0.1,0.1,0.3,0.3,0.3h4.2c0.1,0,0.3-0.1,0.3-0.3l0-1.7l-0.7,0v0.9
							h-1.4V194l-0.7,0v0.9h-1.3V194L248.9,194z"/>
					</g>
				</g>
				<g>
					<path d="M245.7,195.3c0-0.6,0.9-0.6,0.8,0v1.5h-0.8L245.7,195.3"/>
				</g>
				<g id="cp3">
					<path d="M240.5,197.5c0-0.6,0.8-0.6,0.8,0v1.2h-0.8L240.5,197.5"/>
				</g>
				<g>
					<g id="cp3_1_">
						<path d="M251,197.5c0-0.6,0.8-0.6,0.8,0v1.2H251L251,197.5"/>
					</g>
				</g>
			</g>
			<g>
				<g id="castle_1_">
					<g>
						<path class="st2" d="M242.1,254.2c0.1-5.4,4-6.7,4-6.7c0,0,4.1,1.4,4.1,6.8L242.1,254.2"/>
					</g>
					<g>
						<path class="st2" d="M238.8,247.6l-0.7,6.2l4.1,0c0-5.1,3.9-6,4-6c0.1,0,3.9,1.1,4,6h4.1l-0.7-6.3L238.8,247.6L238.8,247.6
							L238.8,247.6z"/>
						<path d="M242.4,254.1l-4.6,0l0.7-6.5l0.1-0.2l15.1,0l0.8,6.8h-4.6l0-0.2c-0.1-4.7-3.8-5.7-3.8-5.7c0,0-3.7,0.7-3.7,5.7
							L242.4,254.1z M250.4,253.6h3.6l-0.7-5.8l-6.5,0c0.4,0.2,1,0.5,1.6,1.1C249.3,249.7,250.3,251.2,250.4,253.6z M238.4,253.6
							l3.5,0c0.1-2.7,1.2-4.2,2.2-5c0.4-0.4,0.9-0.6,1.3-0.8l-6.4,0L238.4,253.6z"/>
					</g>
					<g>
						<path class="st2" d="M237.9,253.9h16.6c0.3,0,0.6,0.3,0.6,0.8c0,0.4-0.3,0.8-0.6,0.8h-16.6c-0.3,0-0.6-0.3-0.6-0.8
							C237.2,254.2,237.5,253.9,237.9,253.9z"/>
						<path d="M254.5,255.7h-16.6c-0.5,0-0.9-0.5-0.9-1c0-0.6,0.4-1,0.9-1h16.6c0.5,0,0.9,0.5,0.9,1
							C255.3,255.2,254.9,255.7,254.5,255.7z M237.9,254.1c-0.2,0-0.4,0.2-0.4,0.5c0,0.3,0.2,0.5,0.4,0.5h16.6
							c0.2,0,0.4-0.2,0.4-0.5c0-0.3-0.2-0.5-0.4-0.5H237.9z"/>
					</g>
					<g>
						<path class="st2" d="M243.9,253.8c0-3.2,2.2-4.2,2.2-4.2c0,0,2.3,0.9,2.3,4.2H243.9"/>
						<path d="M248.7,254.1h-4.8v-0.2l-0.2,0c0-2.1,0.9-3.3,1.6-3.9c0,0,0.7-0.5,0.9-0.5c0,0,0,0,0,0c0.2,0,2.5,1.1,2.5,4.4
							L248.7,254.1z M244.1,253.6h4c-0.1-2.5-1.7-3.4-2.1-3.6C245.8,250.1,244.3,251.1,244.1,253.6z"/>
					</g>
					<g>
						<path class="st2" d="M238.2,245h15.9c0.3,0,0.6,0.3,0.6,0.7c0,0.4-0.3,0.7-0.6,0.7h-15.9c-0.3,0-0.6-0.3-0.6-0.7
							C237.6,245.4,237.9,245,238.2,245z"/>
						<path d="M254.1,246.7h-15.9c-0.5,0-0.9-0.4-0.9-0.9c0-0.5,0.4-0.9,0.9-0.9h15.9c0.5,0,0.9,0.4,0.9,0.9
							C255,246.2,254.6,246.7,254.1,246.7z M238.2,245.3c-0.2,0-0.4,0.2-0.4,0.4s0.2,0.4,0.4,0.4h15.9c0.2,0,0.4-0.2,0.4-0.4
							s-0.2-0.4-0.4-0.4H238.2z"/>
					</g>
					<g>
						<path class="st2" d="M238.5,246.4h15.2c0.3,0,0.6,0.3,0.6,0.7c0,0.4-0.3,0.7-0.6,0.7h-15.2c-0.3,0-0.6-0.3-0.6-0.7
							C238,246.7,238.2,246.4,238.5,246.4z"/>
						<path d="M253.8,248.1h-15.2c-0.5,0-0.8-0.4-0.8-0.9c0-0.5,0.4-0.9,0.8-0.9h15.2c0.5,0,0.8,0.4,0.8,0.9
							C254.6,247.6,254.2,248.1,253.8,248.1z M238.5,246.7c-0.2,0-0.3,0.2-0.3,0.4c0,0.2,0.2,0.4,0.3,0.4h15.2
							c0.2,0,0.3-0.2,0.3-0.4c0-0.2-0.2-0.4-0.3-0.4H238.5z"/>
					</g>
					<g>
						<path class="st2" d="M243.5,236.1l1.2,0v0.9h0.9V236l1.2,0v0.9h0.9V236h1.2l0,2c0,0.3-0.2,0.5-0.5,0.5H244
							c-0.3,0-0.6-0.2-0.6-0.5L243.5,236.1L243.5,236.1L243.5,236.1z"/>
						<path d="M248.3,238.8H244c-0.4,0-0.8-0.3-0.8-0.8l0-2.1l0.2-0.1l0.1,0l1.4,0v0.9h0.4v-0.9l1.7,0v0.9h0.4v-0.9h1.7l0,2.2
							C249.1,238.4,248.8,238.8,248.3,238.8z M243.7,236.3l0,1.7c0,0.1,0.2,0.3,0.3,0.3h4.3c0.1,0,0.3-0.1,0.3-0.3l0-1.7h-0.7v0.9
							h-1.4v-0.9l-0.7,0v0.9h-1.4v-0.9L243.7,236.3z"/>
					</g>
					<g>
						<path class="st2" d="M248,238.7l0.3,6.3l-4.2,0l0.3-6.3L248,238.7"/>
						<path d="M248.5,245.3l-4.7,0l0.3-6.8l4.1,0L248.5,245.3z M244.3,244.8l3.7,0l-0.3-5.8l-3.2,0L244.3,244.8z"/>
					</g>
					<g id="cp1_2_">
						<path class="st2" d="M242.8,241.6l0.1,3.4l-4,0l0.1-3.4L242.8,241.6L242.8,241.6L242.8,241.6z"/>
						<path d="M238.7,245.3l0.1-3.9h4.3l0.1,3.9L238.7,245.3z M239.3,241.9l-0.1,2.9l3.5,0l-0.1-2.9H239.3z"/>
					</g>
					<g>
						<g id="cp1_3_">
							<path class="st2" d="M253.2,241.6l0.1,3.4l-4,0l0.1-3.4L253.2,241.6L253.2,241.6L253.2,241.6z"/>
							<path d="M249.1,245.3l0.1-3.9h4.3l0.1,3.9L249.1,245.3z M249.7,241.9l-0.1,2.9l3.5,0l-0.1-2.9H249.7z"/>
						</g>
					</g>
					<g id="cp2_2_">
						<path class="st2" d="M238.3,239.2l1.2,0v0.9h0.9v-0.9l1.2,0v0.9h0.9v-0.9l1.2,0l0,2c0,0.3-0.2,0.5-0.5,0.5h-4.2
							c-0.3,0-0.5-0.2-0.5-0.5L238.3,239.2L238.3,239.2L238.3,239.2z"/>
						<path d="M243.1,241.9h-4.2c-0.4,0-0.8-0.3-0.8-0.8l0-2.1l0.2-0.1l0.1,0l1.4,0v0.9h0.4v-0.9l1.7,0v0.9h0.4v-0.9l1.7,0l0,2.2
							C243.8,241.5,243.5,241.9,243.1,241.9z M238.5,239.4l0,1.7c0,0.1,0.1,0.3,0.3,0.3h4.2c0.1,0,0.3-0.1,0.3-0.3l0-1.7l-0.7,0v0.9
							h-1.4v-0.9l-0.7,0v0.9h-1.3v-0.9L238.5,239.4z"/>
					</g>
					<g>
						<g id="cp2_3_">
							<path class="st2" d="M248.7,239.2l1.2,0v0.9h0.9v-0.9l1.2,0v0.9h0.9v-0.9l1.2,0l0,2c0,0.3-0.2,0.5-0.5,0.5h-4.2
								c-0.3,0-0.5-0.2-0.5-0.5L248.7,239.2L248.7,239.2L248.7,239.2z"/>
							<path d="M253.5,241.9h-4.2c-0.4,0-0.8-0.3-0.8-0.8l0-2.1l0.2-0.1l0.1,0l1.4,0v0.9h0.4v-0.9l1.7,0v0.9h0.4v-0.9l1.7,0l0,2.2
								C254.2,241.5,253.9,241.9,253.5,241.9z M248.9,239.4l0,1.7c0,0.1,0.1,0.3,0.3,0.3h4.2c0.1,0,0.3-0.1,0.3-0.3l0-1.7l-0.7,0
								v0.9h-1.4v-0.9l-0.7,0v0.9h-1.3v-0.9L248.9,239.4z"/>
						</g>
					</g>
					<g>
						<path d="M245.7,240.7c0-0.6,0.9-0.6,0.8,0v1.5h-0.8L245.7,240.7"/>
					</g>
					<g id="cp3_2_">
						<path d="M240.5,242.9c0-0.6,0.8-0.6,0.8,0v1.2h-0.8L240.5,242.9"/>
					</g>
					<g>
						<g id="cp3_3_">
							<path d="M251,242.9c0-0.6,0.8-0.6,0.8,0v1.2H251L251,242.9"/>
						</g>
					</g>
				</g>
				<g id="castle3">
					<g id="castle_2_">
						<g>
							<path class="st2" d="M259.8,301.5c-3.7-3.9-1.9-7.5-1.9-7.6c0,0,3.9-2,7.7,1.8L259.8,301.5"/>
						</g>
						<g>
							<path class="st2" d="M252.8,299.2l3.9,4.9l2.9-2.9c-3.6-3.7-1.5-7-1.4-7c0.1-0.1,3.6-2,7.1,1.4l2.9-2.9l-5-3.9L252.8,299.2
								L252.8,299.2L252.8,299.2z"/>
							<path d="M256.7,304.4l-4.1-5.1l-0.1-0.2l0.1-0.1l10.5-10.6l5.4,4.2l-3.2,3.3l-0.2-0.2c-3.4-3.2-6.7-1.4-6.8-1.3l0,0
								c0,0-2.1,3.1,1.5,6.7l0.2,0.2L256.7,304.4z M253.1,299.2l3.6,4.5l2.5-2.5c-1.9-2-2.1-3.8-2-5.1c0.1-0.6,0.2-1.1,0.4-1.4
								L253.1,299.2z M260.7,293.3c1.2,0,2.9,0.4,4.5,1.9l2.5-2.5l-4.6-3.6l-4.6,4.6c0.4-0.2,1.1-0.3,1.8-0.4
								C260.5,293.3,260.6,293.3,260.7,293.3z"/>
						</g>
						<g>
							<path class="st2" d="M256.6,304.2l11.7-11.8c0.2-0.2,0.7-0.2,1,0.1c0.3,0.3,0.3,0.7,0.1,1l-11.7,11.8c-0.2,0.2-0.7,0.2-1-0.1
								C256.4,304.9,256.3,304.5,256.6,304.2z"/>
							<path d="M257.2,305.7c-0.3,0-0.5-0.1-0.8-0.3c-0.4-0.4-0.4-1-0.1-1.3l11.7-11.8c0.2-0.2,0.4-0.3,0.7-0.2
								c0.2,0,0.5,0.1,0.7,0.3c0.4,0.4,0.4,1,0.1,1.3l-11.7,11.8C257.7,305.7,257.5,305.7,257.2,305.7z M256.7,304.4
								c-0.1,0.2-0.1,0.4,0.1,0.6c0.2,0.2,0.5,0.2,0.6,0.1l11.7-11.8c0.1-0.2,0.1-0.4-0.1-0.6c-0.1-0.1-0.2-0.2-0.4-0.2
								c-0.1,0-0.2,0-0.3,0.1L256.7,304.4z"/>
						</g>
						<g>
							<path class="st2" d="M260.8,299.9c-2.3-2.3-1.4-4.5-1.4-4.5c0,0,2.3-1,4.6,1.3L260.8,299.9"/>
							<path d="M260.8,300.3l-0.2-0.2c-1.4-1.4-1.7-2.8-1.6-3.8c0-0.4,0.1-1,0.3-1.1l0.1,0c0.1,0,2.5-1,4.8,1.3l0.2,0.2L260.8,300.3
								z M259.6,295.6c-0.1,0.4-0.5,2.1,1.2,4l2.8-2.9C261.8,295,260,295.5,259.6,295.6z"/>
						</g>
						<g>
							<path class="st2" d="M250.5,297.8l11.2-11.3c0.2-0.2,0.7-0.2,0.9,0.1c0.3,0.3,0.3,0.7,0.1,0.9l-11.2,11.3
								c-0.2,0.2-0.6,0.2-0.9-0.1C250.3,298.4,250.3,298,250.5,297.8z"/>
							<path d="M251.1,299.2c-0.2,0-0.5-0.1-0.7-0.3c-0.4-0.4-0.4-0.9-0.1-1.3l11.2-11.3c0.2-0.2,0.4-0.2,0.6-0.2c0,0,0,0,0,0
								c0.3,0,0.5,0.1,0.7,0.3c0.4,0.4,0.4,0.9,0.1,1.3l-11.2,11.3C251.5,299.1,251.3,299.2,251.1,299.2z M250.7,297.9
								c-0.1,0.1-0.1,0.4,0.1,0.6c0.2,0.2,0.4,0.2,0.6,0.1l11.2-11.3c0.1-0.1,0.1-0.4-0.1-0.6c-0.1-0.1-0.2-0.1-0.3-0.1c0,0,0,0,0,0
								c-0.1,0-0.2,0-0.2,0.1L250.7,297.9z"/>
						</g>
						<g>
							<path class="st2" d="M251.8,298.5l10.7-10.8c0.2-0.2,0.6-0.2,0.9,0.1c0.3,0.3,0.3,0.7,0.1,0.9l-10.7,10.8
								c-0.2,0.2-0.6,0.2-0.9-0.1C251.6,299.1,251.5,298.7,251.8,298.5z"/>
							<path d="M252.4,299.9c-0.2,0-0.5-0.1-0.7-0.3c-0.4-0.4-0.4-0.9-0.1-1.2l10.7-10.8c0.3-0.3,0.9-0.3,1.2,0.1
								c0.2,0.2,0.3,0.4,0.3,0.7c0,0.2-0.1,0.4-0.2,0.6l-10.7,10.8C252.8,299.8,252.6,299.9,252.4,299.9z M262.9,287.8
								c-0.1,0-0.2,0-0.2,0.1l-10.7,10.8c-0.1,0.1-0.1,0.4,0.1,0.6c0.2,0.2,0.4,0.2,0.6,0.1l10.7-10.8c0.1-0.1,0.1-0.1,0.1-0.2
								c0-0.1-0.1-0.2-0.2-0.3C263.1,287.9,263,287.8,262.9,287.8z"/>
						</g>
						<g>
							<path class="st2" d="M247.9,287.7l0.8-0.9l0.6,0.6l0.6-0.6l-0.6-0.6l0.9-0.9l0.6,0.6l0.6-0.6l-0.6-0.6l0.9-0.9l1.4,1.4
								c0.2,0.2,0.2,0.5,0,0.7l-3,3.1c-0.2,0.2-0.6,0.2-0.8,0L247.9,287.7L247.9,287.7L247.9,287.7z"/>
							<path d="M249.6,289.5c-0.2,0-0.4-0.1-0.5-0.2l-1.6-1.5l0.2-0.2l0.2,0.2l-0.2-0.2l1-1l0.6,0.6l0.3-0.3l-0.6-0.6l1.2-1.2
								l0.6,0.6l0.3-0.3l-0.6-0.6l1.2-1.2l1.6,1.6c0.1,0.1,0.2,0.3,0.2,0.5c0,0.2-0.1,0.4-0.2,0.6l-3,3.1
								C250,289.4,249.8,289.5,249.6,289.5z M248.2,287.7l1.2,1.2c0.1,0.1,0.3,0.1,0.4,0l3-3.1c0.1-0.1,0.1-0.1,0.1-0.2
								c0-0.1,0-0.1-0.1-0.2l-1.2-1.2l-0.5,0.5l0.6,0.6l-1,1l-0.6-0.6l-0.5,0.5l0.6,0.6l-1,1l-0.6-0.6L248.2,287.7z"/>
						</g>
						<g>
							<path class="st2" d="M252.9,286.4l4.7,4.3l-3,3l-4.3-4.7L252.9,286.4"/>
							<path d="M254.6,294l-4.6-5l2.9-2.9l5,4.6L254.6,294z M250.7,289l4,4.3l2.6-2.6l-4.3-3.9L250.7,289z"/>
						</g>
						<g id="cp1_4_">
							<path class="st2" d="M251.4,292.1l2.5,2.3l-2.8,2.9l-2.3-2.5L251.4,292.1L251.4,292.1L251.4,292.1z"/>
							<path d="M251,297.6l-2.7-2.8l3-3l2.9,2.6L251,297.6z M249,294.8l2,2.1l2.5-2.5l-2.1-2L249,294.8z"/>
						</g>
						<g>
							<g id="cp1_5_">
								<path class="st2" d="M258.7,284.7l2.5,2.3l-2.8,2.9l-2.3-2.5L258.7,284.7L258.7,284.7L258.7,284.7z"/>
								<path d="M258.4,290.2l-2.7-2.8l3-3l2.9,2.6L258.4,290.2z M256.4,287.4l2,2.1l2.5-2.5l-2.1-2L256.4,287.4z"/>
							</g>
						</g>
						<g id="cp2_4_">
							<path class="st2" d="M246.4,293.6l0.8-0.8l0.6,0.6l0.6-0.6l-0.6-0.6l0.9-0.9l0.6,0.6l0.6-0.6l-0.6-0.6l0.9-0.9l1.4,1.4
								c0.2,0.2,0.2,0.5,0,0.7l-3,3c-0.2,0.2-0.5,0.2-0.8,0L246.4,293.6L246.4,293.6L246.4,293.6z"/>
							<path d="M248.2,295.3c-0.2,0-0.4-0.1-0.5-0.2l-1.6-1.5l0.2-0.2l0.2,0.2l-0.2-0.2l1-1l0.6,0.6l0.3-0.3l-0.6-0.6l1.2-1.2
								l0.6,0.6l0.3-0.3l-0.6-0.6l1.2-1.2l1.6,1.6c0.3,0.3,0.3,0.8,0,1.1l-3,3C248.6,295.2,248.4,295.3,248.2,295.3z M246.8,293.6
								l1.2,1.2c0.1,0.1,0.3,0.1,0.4,0l3-3c0.1-0.1,0.1-0.3,0-0.4l-1.2-1.2l-0.5,0.5l0.6,0.6l-1,1l-0.6-0.6l-0.5,0.5l0.6,0.6l-1,1
								l-0.6-0.6L246.8,293.6z"/>
						</g>
						<g>
							<g id="cp2_5_">
								<path class="st2" d="M253.7,286.2l0.8-0.8l0.6,0.6l0.6-0.6l-0.6-0.6l0.9-0.9l0.6,0.6l0.6-0.6l-0.6-0.6l0.9-0.9l1.4,1.4
									c0.2,0.2,0.2,0.5,0,0.7l-3,3c-0.2,0.2-0.5,0.2-0.8,0L253.7,286.2L253.7,286.2L253.7,286.2z"/>
								<path d="M255.5,287.9c-0.2,0-0.4-0.1-0.5-0.2l-1.5-1.4v-0.2l1.1-1.1l0.6,0.6l0.3-0.3l-0.6-0.6l1.2-1.2l0.6,0.6l0.3-0.3
									l-0.6-0.6l1.2-1.2l1.6,1.6c0.3,0.3,0.3,0.8,0,1.1l-3,3C255.9,287.9,255.7,287.9,255.5,287.9z M254.1,286.2l1.2,1.2
									c0.1,0.1,0.3,0.1,0.4,0l3-3c0.1-0.1,0.1-0.3,0-0.4l-1.2-1.2l-0.5,0.5l0.6,0.6l-1,1l-0.6-0.6l-0.5,0.5l0.6,0.6l-1,1l-0.6-0.6
									L254.1,286.2z"/>
							</g>
						</g>
						<g>
							<path d="M252.8,289.4c-0.5-0.4,0.2-1,0.6-0.6l1.1,1.1l-0.6,0.6L252.8,289.4"/>
						</g>
						<g id="cp3_4_">
							<path d="M250.6,294.6c-0.4-0.4,0.1-1,0.6-0.6l0.8,0.8l-0.6,0.6L250.6,294.6"/>
						</g>
						<g transform="matrix(0.70460892,-0.70959585,0.70959585,0.70460892,-35.341459,275.10898)">
							<g id="cp3_5_">
								<path d="M258,287.2c-0.4-0.4,0.1-1,0.6-0.6l0.8,0.8l-0.6,0.6L258,287.2"/>
							</g>
						</g>
					</g>
				</g>
				<g>
					<g id="castle_3_">
						<g>
							<path class="st2" d="M286.9,208.8c0.1-5.4,4-6.7,4-6.7c0,0,4.1,1.4,4.1,6.8L286.9,208.8"/>
						</g>
						<g>
							<path class="st2" d="M283.6,202.2l-0.7,6.2l4.1,0c0-5.1,3.9-6,4-6c0.1,0,3.9,1.1,4,6h4.1l-0.7-6.3L283.6,202.2L283.6,202.2
								L283.6,202.2z"/>
							<path d="M287.2,208.7l-4.6,0l0.7-6.7l15.2,0l0.8,6.8h-4.6l0-0.2c-0.1-4.7-3.8-5.7-3.8-5.7c0,0-3.7,0.7-3.7,5.7L287.2,208.7z
								 M295.2,208.2h3.6l-0.7-5.8l-6.5,0c0.4,0.2,1,0.5,1.6,1.1C294.1,204.3,295.1,205.8,295.2,208.2z M283.2,208.2l3.5,0
								c0.1-2.7,1.2-4.2,2.2-5c0.4-0.4,0.9-0.6,1.3-0.8l-6.4,0L283.2,208.2z"/>
						</g>
						<g>
							<path class="st2" d="M282.7,208.5h16.6c0.4,0,0.6,0.3,0.6,0.8c0,0.4-0.3,0.8-0.6,0.8h-16.6c-0.3,0-0.6-0.3-0.6-0.8
								C282,208.8,282.3,208.5,282.7,208.5z"/>
							<path d="M299.3,210.3h-16.6c-0.5,0-0.9-0.5-0.9-1c0-0.6,0.4-1,0.9-1h16.6c0.5,0,0.9,0.5,0.9,1
								C300.1,209.8,299.7,210.3,299.3,210.3z M282.7,208.7c-0.2,0-0.4,0.2-0.4,0.5c0,0.3,0.2,0.5,0.4,0.5h16.6
								c0.2,0,0.4-0.2,0.4-0.5c0-0.3-0.2-0.5-0.4-0.5H282.7z"/>
						</g>
						<g>
							<path class="st2" d="M288.7,208.5c0-3.2,2.2-4.2,2.2-4.2c0,0,2.3,0.9,2.3,4.2H288.7"/>
							<path d="M293.5,208.7h-4.8v-0.2l-0.2,0c0-2.1,0.9-3.3,1.6-3.9c0,0,0.7-0.5,0.9-0.5c0,0,0,0,0,0c0.2,0,2.5,1.1,2.5,4.4
								L293.5,208.7z M288.9,208.2h4c-0.1-2.5-1.7-3.4-2.1-3.6C290.5,204.8,289,205.7,288.9,208.2z"/>
						</g>
						<g>
							<path class="st2" d="M283,199.7h15.9c0.3,0,0.6,0.3,0.6,0.7c0,0.4-0.3,0.7-0.6,0.7H283c-0.3,0-0.6-0.3-0.6-0.7
								C282.4,200,282.7,199.7,283,199.7z"/>
							<path d="M298.9,201.3H283c-0.5,0-0.9-0.4-0.9-0.9c0-0.5,0.4-0.9,0.9-0.9h15.9c0.5,0,0.9,0.4,0.9,0.9
								C299.8,200.9,299.4,201.3,298.9,201.3z M283,199.9c-0.2,0-0.4,0.2-0.4,0.4c0,0.2,0.2,0.4,0.4,0.4h15.9c0.2,0,0.4-0.2,0.4-0.4
								c0-0.2-0.2-0.4-0.4-0.4H283z"/>
						</g>
						<g>
							<path class="st2" d="M283.3,201h15.2c0.3,0,0.6,0.3,0.6,0.7c0,0.4-0.3,0.7-0.6,0.7h-15.2c-0.3,0-0.6-0.3-0.6-0.7
								C282.8,201.4,283,201,283.3,201z"/>
							<path d="M298.6,202.7h-15.2c-0.5,0-0.8-0.4-0.8-0.9c0-0.5,0.4-0.9,0.8-0.9h15.2c0.5,0,0.8,0.4,0.8,0.9
								C299.4,202.3,299,202.7,298.6,202.7z M283.3,201.3c-0.2,0-0.3,0.2-0.3,0.4c0,0.2,0.2,0.4,0.3,0.4h15.2c0.2,0,0.3-0.2,0.3-0.4
								c0-0.2-0.2-0.4-0.3-0.4H283.3z"/>
						</g>
						<g>
							<path class="st2" d="M288.3,190.7l1.2,0v0.9h0.9v-0.9l1.2,0v0.9h0.9v-0.9h1.2l0,2c0,0.3-0.2,0.5-0.5,0.5h-4.3
								c-0.3,0-0.6-0.2-0.6-0.5L288.3,190.7L288.3,190.7L288.3,190.7z"/>
							<path d="M293.1,193.4h-4.3c-0.4,0-0.8-0.3-0.8-0.8l0-2.1l0.2-0.1l0.1,0l1.4,0v0.9h0.4v-0.9l1.7,0v0.9h0.4v-0.9h1.7l0,2.2
								C293.9,193.1,293.6,193.4,293.1,193.4z M288.5,190.9l0,1.7c0,0.1,0.2,0.3,0.3,0.3h4.3c0.1,0,0.3-0.1,0.3-0.3l0-1.7h-0.7v0.9
								h-1.4v-0.9l-0.7,0v0.9h-1.4v-0.9L288.5,190.9z"/>
						</g>
						<g>
							<path class="st2" d="M292.8,193.3l0.3,6.3l-4.2,0l0.3-6.3L292.8,193.3"/>
							<path d="M293.3,199.9l-4.7,0l0.3-6.8l4.1,0L293.3,199.9z M289.1,199.4l3.7,0l-0.3-5.8l-3.2,0L289.1,199.4z"/>
						</g>
						<g id="cp1_6_">
							<path class="st2" d="M287.6,196.2l0.1,3.4l-4,0l0.1-3.4L287.6,196.2L287.6,196.2L287.6,196.2z"/>
							<path d="M283.5,199.9l0.1-3.9h4.3l0.1,3.9L283.5,199.9z M284.1,196.5l-0.1,2.9l3.5,0l-0.1-2.9H284.1z"/>
						</g>
						<g>
							<g id="cp1_7_">
								<path class="st2" d="M298,196.2l0.1,3.4l-4,0l0.1-3.4L298,196.2L298,196.2L298,196.2z"/>
								<path d="M293.9,199.9l0.1-3.9h4.3l0.1,3.9L293.9,199.9z M294.5,196.5l-0.1,2.9l3.5,0l-0.1-2.9H294.5z"/>
							</g>
						</g>
						<g id="cp2_6_">
							<path class="st2" d="M283.1,193.8l1.2,0v0.9h0.9v-0.9l1.2,0v0.9h0.9v-0.9l1.2,0l0,2c0,0.3-0.2,0.5-0.5,0.5h-4.2
								c-0.3,0-0.5-0.2-0.5-0.5L283.1,193.8L283.1,193.8L283.1,193.8z"/>
							<path d="M287.9,196.5h-4.2c-0.4,0-0.8-0.3-0.8-0.8l0-2.1l0.2-0.1l0.1,0l1.4,0v0.9h0.4v-0.9l1.7,0v0.9h0.4v-0.9l1.7,0l0,2.2
								C288.6,196.1,288.3,196.5,287.9,196.5z M283.3,194l0,1.7c0,0.1,0.1,0.3,0.3,0.3h4.2c0.1,0,0.3-0.1,0.3-0.3l0-1.7l-0.7,0v0.9
								h-1.4V194l-0.7,0v0.9H284V194L283.3,194z"/>
						</g>
						<g>
							<g id="cp2_7_">
								<path class="st2" d="M293.5,193.8l1.2,0v0.9h0.9v-0.9l1.2,0v0.9h0.9v-0.9l1.2,0l0,2c0,0.3-0.2,0.5-0.5,0.5H294
									c-0.3,0-0.5-0.2-0.5-0.5L293.5,193.8L293.5,193.8L293.5,193.8z"/>
								<path d="M298.3,196.5H294c-0.4,0-0.8-0.3-0.8-0.8l0-2.1l0.2-0.1l0.1,0l1.4,0v0.9h0.4v-0.9l1.7,0v0.9h0.4v-0.9l1.7,0l0,2.2
									C299,196.1,298.7,196.5,298.3,196.5z M293.7,194l0,1.7c0,0.1,0.1,0.3,0.3,0.3h4.2c0.1,0,0.3-0.1,0.3-0.3l0-1.7l-0.7,0v0.9
									h-1.4V194l-0.7,0v0.9h-1.3V194L293.7,194z"/>
							</g>
						</g>
						<g>
							<path d="M290.5,195.3c0-0.6,0.9-0.6,0.8,0v1.5h-0.8L290.5,195.3"/>
						</g>
						<g id="cp3_6_">
							<path d="M285.3,197.5c0-0.6,0.8-0.6,0.8,0v1.2h-0.8L285.3,197.5"/>
						</g>
						<g>
							<g id="cp3_7_">
								<path d="M295.7,197.5c0-0.6,0.8-0.6,0.8,0v1.2h-0.8L295.7,197.5"/>
							</g>
						</g>
					</g>
					<g>
						<g>
							<g id="castle_4_">
								<g>
									<path class="st2" d="M339.5,208.8c-0.1-5.4-4-6.7-4-6.7c0,0-4.1,1.4-4.1,6.8L339.5,208.8"/>
								</g>
								<g>
									<path class="st2" d="M342.8,202.2l0.7,6.2l-4.1,0c0-5.1-3.9-6-4-6c-0.1,0-3.9,1.1-4,6h-4.1l0.7-6.3L342.8,202.2
										L342.8,202.2L342.8,202.2z"/>
									<path d="M339.2,208.7l0-0.2c0-5-3.7-5.7-3.8-5.7c0,0-3.7,1-3.8,5.7l0,0.2h-4.6l0.8-6.8l15.2,0v0.2l0.7,6.5L339.2,208.7z
										 M327.7,208.2h3.6c0.1-2.4,1.2-3.9,2-4.7c0.6-0.5,1.1-0.9,1.6-1.1l-6.5,0L327.7,208.2z M336.2,202.5
										c0.4,0.2,0.8,0.4,1.3,0.8c1,0.8,2.1,2.3,2.2,5l3.5,0l-0.6-5.7L336.2,202.5z"/>
								</g>
								<g>
									<path class="st2" d="M343.8,208.5h-16.6c-0.3,0-0.6,0.3-0.6,0.8c0,0.4,0.3,0.8,0.6,0.8h16.6c0.3,0,0.6-0.3,0.6-0.8
										C344.4,208.8,344.1,208.5,343.8,208.5z"/>
									<path d="M343.8,210.3h-16.6c-0.5,0-0.9-0.5-0.9-1c0-0.6,0.4-1,0.9-1h16.6c0.5,0,0.9,0.5,0.9,1
										C344.7,209.8,344.3,210.3,343.8,210.3z M327.2,208.7c-0.2,0-0.4,0.2-0.4,0.5c0,0.3,0.2,0.5,0.4,0.5h16.6
										c0.2,0,0.4-0.2,0.4-0.5c0-0.3-0.2-0.5-0.4-0.5H327.2z"/>
								</g>
								<g>
									<path class="st2" d="M337.7,208.5c0-3.2-2.2-4.2-2.2-4.2c0,0-2.3,0.9-2.3,4.2H337.7"/>
									<path d="M338,208.7h-5l0-0.2c0-3.3,2.4-4.4,2.6-4.4c0.2,0,0.8,0.5,0.8,0.5c0.7,0.6,1.6,1.8,1.6,3.9L338,208.7z
										 M333.5,208.2h4c-0.1-2.5-1.6-3.5-2-3.7C335.2,204.7,333.6,205.6,333.5,208.2z"/>
								</g>
								<g>
									<path class="st2" d="M343.4,199.7h-15.9c-0.3,0-0.6,0.3-0.6,0.7c0,0.4,0.3,0.7,0.6,0.7h15.9c0.3,0,0.6-0.3,0.6-0.7
										C344,200,343.8,199.7,343.4,199.7z"/>
									<path d="M343.4,201.3h-15.9c-0.5,0-0.9-0.4-0.9-0.9c0-0.5,0.4-0.9,0.9-0.9h15.9c0.5,0,0.9,0.4,0.9,0.9
										C344.3,200.9,343.9,201.3,343.4,201.3z M327.5,199.9c-0.2,0-0.4,0.2-0.4,0.4c0,0.2,0.2,0.4,0.4,0.4h15.9
										c0.2,0,0.4-0.2,0.4-0.4c0-0.2-0.2-0.4-0.4-0.4H327.5z"/>
								</g>
								<g>
									<path class="st2" d="M343.1,201h-15.2c-0.3,0-0.6,0.3-0.6,0.7c0,0.4,0.3,0.7,0.6,0.7h15.2c0.3,0,0.6-0.3,0.6-0.7
										C343.7,201.4,343.4,201,343.1,201z"/>
									<path d="M343.1,202.7h-15.2c-0.5,0-0.8-0.4-0.8-0.9c0-0.5,0.4-0.9,0.8-0.9h15.2c0.5,0,0.8,0.4,0.8,0.9
										C343.9,202.3,343.5,202.7,343.1,202.7z M327.9,201.3c-0.2,0-0.3,0.2-0.3,0.4c0,0.2,0.2,0.4,0.3,0.4h15.2
										c0.2,0,0.3-0.2,0.3-0.4c0-0.2-0.2-0.4-0.3-0.4H327.9z"/>
								</g>
								<g>
									<path class="st2" d="M338.2,190.7l-1.2,0v0.9h-0.9v-0.9l-1.2,0v0.9H334v-0.9h-1.2l0,2c0,0.3,0.2,0.5,0.5,0.5h4.3
										c0.3,0,0.6-0.2,0.6-0.5L338.2,190.7L338.2,190.7L338.2,190.7z"/>
									<path d="M337.6,193.4h-4.3c-0.4,0-0.8-0.3-0.8-0.8l0-2.2h1.7v0.9h0.4v-0.9l1.7,0v0.9h0.4v-0.9l1.5,0l0.2,0.1l0,2.1
										C338.4,193,338,193.4,337.6,193.4z M333,190.9l0,1.7c0,0.2,0.2,0.3,0.3,0.3h4.3c0.2,0,0.3-0.1,0.3-0.3l0-1.7l-0.7,0v0.9
										h-1.4v-0.9l-0.7,0v0.9h-1.4v-0.9H333z"/>
								</g>
								<g>
									<path class="st2" d="M333.6,193.3l-0.3,6.3l4.2,0l-0.3-6.3L333.6,193.3"/>
									<path d="M333.1,199.9l0.3-6.8l4.1,0l0.3,6.8L333.1,199.9z M333.9,193.5l-0.3,5.8l3.7,0l-0.3-5.8L333.9,193.5z"/>
								</g>
								<g id="cp1_8_">
									<path class="st2" d="M338.8,196.2l-0.1,3.4l4,0l-0.1-3.4L338.8,196.2L338.8,196.2L338.8,196.2z"/>
									<path d="M343,199.9l-4.6,0l0.1-3.9h4.3L343,199.9z M338.9,199.4l3.5,0l-0.1-2.9H339L338.9,199.4z"/>
								</g>
								<g>
									<g id="cp1_9_">
										<path class="st2" d="M328.4,196.2l-0.1,3.4l4,0l-0.1-3.4L328.4,196.2L328.4,196.2L328.4,196.2z"/>
										<path d="M332.6,199.9l-4.6,0l0.1-3.9h4.3L332.6,199.9z M328.5,199.4l3.5,0l-0.1-2.9h-3.3L328.5,199.4z"/>
									</g>
								</g>
								<g id="cp2_8_">
									<path class="st2" d="M343.3,193.8l-1.2,0v0.9h-0.9v-0.9l-1.2,0v0.9h-0.9v-0.9l-1.2,0l0,2c0,0.3,0.2,0.5,0.5,0.5h4.2
										c0.3,0,0.5-0.2,0.5-0.5L343.3,193.8L343.3,193.8L343.3,193.8z"/>
									<path d="M342.8,196.5h-4.2c-0.4,0-0.8-0.3-0.8-0.8l0-2.2l1.7,0v0.9h0.4v-0.9l1.7,0v0.9h0.4v-0.9l1.5,0l0.2,0.1l0,2.1
										C343.6,196.1,343.2,196.5,342.8,196.5z M338.3,194l0,1.7c0,0.2,0.1,0.3,0.3,0.3h4.2c0.2,0,0.3-0.1,0.3-0.3l0-1.7l-0.7,0
										v0.9h-1.3V194l-0.7,0v0.9H339V194L338.3,194z"/>
								</g>
								<g>
									<g id="cp2_9_">
										<path class="st2" d="M332.9,193.8l-1.2,0v0.9h-0.9v-0.9l-1.2,0v0.9h-0.9v-0.9l-1.2,0l0,2c0,0.3,0.2,0.5,0.5,0.5h4.2
											c0.3,0,0.5-0.2,0.5-0.5L332.9,193.8L332.9,193.8L332.9,193.8z"/>
										<path d="M332.4,196.5h-4.2c-0.4,0-0.8-0.3-0.8-0.8l0-2.2l1.7,0v0.9h0.4v-0.9l1.7,0v0.9h0.4v-0.9l1.5,0l0.2,0.1l0,2.1
											C333.2,196.1,332.8,196.5,332.4,196.5z M327.9,194l0,1.7c0,0.2,0.1,0.3,0.3,0.3h4.2c0.2,0,0.3-0.1,0.3-0.3l0-1.7l-0.7,0
											v0.9h-1.3V194l-0.7,0v0.9h-1.4V194L327.9,194z"/>
									</g>
								</g>
								<g>
									<path d="M335.9,195.3c0-0.6-0.9-0.6-0.8,0v1.5h0.8L335.9,195.3"/>
								</g>
								<g id="cp3_8_">
									<path d="M341.1,197.5c0-0.6-0.8-0.6-0.8,0v1.2h0.8L341.1,197.5"/>
								</g>
								<g>
									<g id="cp3_9_">
										<path d="M330.7,197.5c0-0.6-0.8-0.6-0.8,0v1.2h0.8L330.7,197.5"/>
									</g>
								</g>
							</g>
							<g>
								<g id="castle_5_">
									<g>
										<path class="st2" d="M339.5,254.2c-0.1-5.4-4-6.7-4-6.7c0,0-4.1,1.4-4.1,6.8L339.5,254.2"/>
									</g>
									<g>
										<path class="st2" d="M342.8,247.6l0.7,6.2l-4.1,0c0-5.1-3.9-6-4-6c-0.1,0-3.9,1.1-4,6h-4.1l0.7-6.3L342.8,247.6
											L342.8,247.6L342.8,247.6z"/>
										<path d="M339.2,254.1l0-0.2c0-5-3.7-5.7-3.8-5.7c0,0-3.7,1-3.8,5.7l0,0.2h-4.6l0.8-6.8l15.2,0v0.2l0.7,6.5L339.2,254.1z
											 M327.7,253.6h3.6c0.1-2.4,1.2-3.9,2-4.7c0.6-0.5,1.1-0.9,1.6-1.1l-6.5,0L327.7,253.6z M336.2,247.9
											c0.4,0.2,0.8,0.4,1.3,0.8c1,0.8,2.1,2.3,2.2,5l3.5,0l-0.6-5.7L336.2,247.9z"/>
									</g>
									<g>
										<path class="st2" d="M343.8,253.9h-16.6c-0.3,0-0.6,0.3-0.6,0.8c0,0.4,0.3,0.8,0.6,0.8h16.6c0.3,0,0.6-0.3,0.6-0.8
											C344.4,254.2,344.1,253.9,343.8,253.9z"/>
										<path d="M343.8,255.7h-16.6c-0.5,0-0.9-0.5-0.9-1c0-0.6,0.4-1,0.9-1h16.6c0.5,0,0.9,0.5,0.9,1
											C344.7,255.2,344.3,255.7,343.8,255.7z M327.2,254.1c-0.2,0-0.4,0.2-0.4,0.5c0,0.3,0.2,0.5,0.4,0.5h16.6
											c0.2,0,0.4-0.2,0.4-0.5c0-0.3-0.2-0.5-0.4-0.5H327.2z"/>
									</g>
									<g>
										<path class="st2" d="M337.7,253.8c0-3.2-2.2-4.2-2.2-4.2c0,0-2.3,0.9-2.3,4.2H337.7"/>
										<path d="M338,254.1h-5l0-0.2c0-3.3,2.4-4.4,2.6-4.4c0.2,0,0.8,0.5,0.8,0.5c0.7,0.6,1.6,1.8,1.6,3.9L338,254.1z
											 M333.5,253.6h4c-0.1-2.5-1.6-3.5-2-3.7C335.2,250.1,333.6,251,333.5,253.6z"/>
									</g>
									<g>
										<path class="st2" d="M343.4,245h-15.9c-0.3,0-0.6,0.3-0.6,0.7c0,0.4,0.3,0.7,0.6,0.7h15.9c0.3,0,0.6-0.3,0.6-0.7
											C344,245.4,343.8,245,343.4,245z"/>
										<path d="M343.4,246.7h-15.9c-0.5,0-0.9-0.4-0.9-0.9c0-0.5,0.4-0.9,0.9-0.9h15.9c0.5,0,0.9,0.4,0.9,0.9
											C344.3,246.2,343.9,246.7,343.4,246.7z M327.5,245.3c-0.2,0-0.4,0.2-0.4,0.4s0.2,0.4,0.4,0.4h15.9c0.2,0,0.4-0.2,0.4-0.4
											s-0.2-0.4-0.4-0.4H327.5z"/>
									</g>
									<g>
										<path class="st2" d="M343.1,246.4h-15.2c-0.3,0-0.6,0.3-0.6,0.7c0,0.4,0.3,0.7,0.6,0.7h15.2c0.3,0,0.6-0.3,0.6-0.7
											C343.7,246.7,343.4,246.4,343.1,246.4z"/>
										<path d="M343.1,248.1h-15.2c-0.5,0-0.8-0.4-0.8-0.9c0-0.5,0.4-0.9,0.8-0.9h15.2c0.5,0,0.8,0.4,0.8,0.9
											C343.9,247.6,343.5,248.1,343.1,248.1z M327.9,246.7c-0.2,0-0.3,0.2-0.3,0.4c0,0.2,0.2,0.4,0.3,0.4h15.2
											c0.2,0,0.3-0.2,0.3-0.4c0-0.2-0.2-0.4-0.3-0.4H327.9z"/>
									</g>
									<g>
										<path class="st2" d="M338.2,236.1l-1.2,0v0.9h-0.9V236l-1.2,0v0.9H334V236h-1.2l0,2c0,0.3,0.2,0.5,0.5,0.5h4.3
											c0.3,0,0.6-0.2,0.6-0.5L338.2,236.1L338.2,236.1L338.2,236.1z"/>
										<path d="M337.6,238.8h-4.3c-0.4,0-0.8-0.3-0.8-0.8l0-2.2h1.7v0.9h0.4v-0.9l1.7,0v0.9h0.4v-0.9l1.5,0l0.2,0.1l0,2.1
											C338.4,238.4,338,238.8,337.6,238.8z M333,236.3l0,1.7c0,0.2,0.2,0.3,0.3,0.3h4.3c0.2,0,0.3-0.1,0.3-0.3l0-1.7l-0.7,0v0.9
											h-1.4v-0.9l-0.7,0v0.9h-1.4v-0.9H333z"/>
									</g>
									<g>
										<path class="st2" d="M333.6,238.7l-0.3,6.3l4.2,0l-0.3-6.3L333.6,238.7"/>
										<path d="M333.1,245.3l0.3-6.8l4.1,0l0.3,6.8L333.1,245.3z M333.9,238.9l-0.3,5.8l3.7,0l-0.3-5.8L333.9,238.9z"/>
									</g>
									<g id="cp1_10_">
										<path class="st2" d="M338.8,241.6l-0.1,3.4l4,0l-0.1-3.4L338.8,241.6L338.8,241.6L338.8,241.6z"/>
										<path d="M343,245.3l-4.6,0l0.1-3.9h4.3L343,245.3z M338.9,244.8l3.5,0l-0.1-2.9H339L338.9,244.8z"/>
									</g>
									<g>
										<g id="cp1_11_">
											<path class="st2" d="M328.4,241.6l-0.1,3.4l4,0l-0.1-3.4L328.4,241.6L328.4,241.6L328.4,241.6z"/>
											<path d="M332.6,245.3l-4.6,0l0.1-3.9h4.3L332.6,245.3z M328.5,244.8l3.5,0l-0.1-2.9h-3.3L328.5,244.8z"/>
										</g>
									</g>
									<g id="cp2_10_">
										<path class="st2" d="M343.3,239.2l-1.2,0v0.9h-0.9v-0.9l-1.2,0v0.9h-0.9v-0.9l-1.2,0l0,2c0,0.3,0.2,0.5,0.5,0.5h4.2
											c0.3,0,0.5-0.2,0.5-0.5L343.3,239.2L343.3,239.2L343.3,239.2z"/>
										<path d="M342.8,241.9h-4.2c-0.4,0-0.8-0.3-0.8-0.8l0-2.2l1.7,0v0.9h0.4v-0.9l1.7,0v0.9h0.4v-0.9l1.5,0l0.2,0.1l0,2.1
											C343.6,241.5,343.2,241.9,342.8,241.9z M338.3,239.4l0,1.7c0,0.2,0.1,0.3,0.3,0.3h4.2c0.2,0,0.3-0.1,0.3-0.3l0-1.7l-0.7,0
											v0.9h-1.3v-0.9l-0.7,0v0.9H339v-0.9L338.3,239.4z"/>
									</g>
									<g>
										<g id="cp2_11_">
											<path class="st2" d="M332.9,239.2l-1.2,0v0.9h-0.9v-0.9l-1.2,0v0.9h-0.9v-0.9l-1.2,0l0,2c0,0.3,0.2,0.5,0.5,0.5h4.2
												c0.3,0,0.5-0.2,0.5-0.5L332.9,239.2L332.9,239.2L332.9,239.2z"/>
											<path d="M332.4,241.9h-4.2c-0.4,0-0.8-0.3-0.8-0.8l0-2.2l1.7,0v0.9h0.4v-0.9l1.7,0v0.9h0.4v-0.9l1.5,0l0.2,0.1l0,2.1
												C333.2,241.5,332.8,241.9,332.4,241.9z M327.9,239.4l0,1.7c0,0.2,0.1,0.3,0.3,0.3h4.2c0.2,0,0.3-0.1,0.3-0.3l0-1.7
												l-0.7,0v0.9h-1.3v-0.9l-0.7,0v0.9h-1.4v-0.9L327.9,239.4z"/>
										</g>
									</g>
									<g>
										<path d="M335.9,240.7c0-0.6-0.9-0.6-0.8,0v1.5h0.8L335.9,240.7"/>
									</g>
									<g id="cp3_10_">
										<path d="M341.1,242.9c0-0.6-0.8-0.6-0.8,0v1.2h0.8L341.1,242.9"/>
									</g>
									<g>
										<g id="cp3_11_">
											<path d="M330.7,242.9c0-0.6-0.8-0.6-0.8,0v1.2h0.8L330.7,242.9"/>
										</g>
									</g>
								</g>
								<g id="castle3_1_">
									<g id="castle_6_">
										<g>
											<path class="st2" d="M321.8,301.5c3.7-3.9,1.9-7.5,1.9-7.6c0,0-3.9-2-7.7,1.8L321.8,301.5"/>
										</g>
										<g>
											<path class="st2" d="M328.8,299.2l-3.9,4.9l-2.9-2.9c3.6-3.7,1.5-7,1.4-7c-0.1-0.1-3.6-2-7.1,1.4l-2.9-2.9l5-3.9
												L328.8,299.2L328.8,299.2L328.8,299.2z"/>
											<path d="M324.9,304.4l-3.2-3.2l0.2-0.2c3.5-3.6,1.5-6.7,1.4-6.7l0,0c0,0-3.3-1.9-6.7,1.4l-0.2,0.2l-3.2-3.3l5.4-4.2
												l10.6,10.8l-0.1,0.2L324.9,304.4z M322.4,301.2l2.5,2.5l3.6-4.5l-4.5-4.6c0.2,0.4,0.3,0.9,0.4,1.4
												C324.5,297.3,324.2,299.2,322.4,301.2z M313.9,292.6l2.5,2.5c1.8-1.6,3.6-1.9,4.8-1.9c0.7,0,1.4,0.2,1.8,0.4l-4.6-4.6
												L313.9,292.6z"/>
										</g>
										<g>
											<path class="st2" d="M325.1,304.2l-11.7-11.8c-0.2-0.2-0.7-0.2-1,0.1c-0.3,0.3-0.3,0.7-0.1,1l11.7,11.8
												c0.2,0.2,0.7,0.2,1-0.1C325.3,304.9,325.3,304.5,325.1,304.2z"/>
											<path d="M324.4,305.7c-0.2,0-0.4-0.1-0.6-0.2l-11.7-11.8c-0.3-0.3-0.3-0.9,0.1-1.3c0.2-0.2,0.4-0.3,0.7-0.3
												c0.3,0,0.5,0.1,0.7,0.2l11.7,11.8c0.3,0.3,0.3,0.9-0.1,1.3C324.9,305.6,324.7,305.7,324.4,305.7z M313,292.5
												C313,292.5,312.9,292.5,313,292.5c-0.2,0-0.3,0.1-0.4,0.2c-0.2,0.2-0.2,0.5-0.1,0.6l11.7,11.8c0.1,0.1,0.4,0.1,0.6-0.1
												c0.2-0.2,0.2-0.5,0.1-0.6l-11.7-11.8C313.1,292.6,313.1,292.5,313,292.5z"/>
										</g>
										<g>
											<path class="st2" d="M320.8,299.9c2.3-2.3,1.4-4.5,1.4-4.5c0,0-2.3-1-4.6,1.3L320.8,299.9"/>
											<path d="M320.8,300.3l-3.5-3.6l0.2-0.2c2.4-2.3,4.7-1.4,4.8-1.3l0.1,0c0.1,0.1,0.2,0.7,0.3,1.1c0,0.9-0.2,2.3-1.6,3.8
												L320.8,300.3z M318,296.7l2.8,2.9c1.7-1.9,1.3-3.6,1.2-4C321.6,295.5,319.8,295,318,296.7z"/>
										</g>
										<g>
											<path class="st2" d="M331.1,297.8l-11.2-11.3c-0.2-0.2-0.7-0.2-0.9,0.1c-0.3,0.3-0.3,0.7-0.1,0.9l11.2,11.3
												c0.2,0.2,0.6,0.2,0.9-0.1C331.3,298.4,331.3,298,331.1,297.8z"/>
											<path d="M330.5,299.2c-0.2,0-0.4-0.1-0.6-0.2l-11.2-11.3c-0.3-0.3-0.3-0.9,0.1-1.3c0.2-0.2,0.4-0.3,0.7-0.3c0,0,0,0,0,0
												c0.2,0,0.4,0.1,0.6,0.2l11.2,11.3c0.3,0.3,0.3,0.9-0.1,1.3C331,299.1,330.8,299.2,330.5,299.2z M319.5,286.6
												c-0.1,0-0.2,0.1-0.3,0.1c-0.2,0.2-0.2,0.4-0.1,0.6l11.2,11.3c0.1,0.1,0.4,0.1,0.6-0.1c0.2-0.2,0.2-0.4,0.1-0.6
												l-11.2-11.3C319.6,286.6,319.5,286.6,319.5,286.6C319.5,286.6,319.5,286.6,319.5,286.6z"/>
										</g>
										<g>
											<path class="st2" d="M329.9,298.5l-10.7-10.8c-0.2-0.2-0.6-0.2-0.9,0.1c-0.3,0.3-0.3,0.7-0.1,0.9l10.7,10.8
												c0.2,0.2,0.6,0.2,0.9-0.1C330.1,299.1,330.1,298.7,329.9,298.5z"/>
											<path d="M329.3,299.9c-0.2,0-0.4-0.1-0.6-0.2L318,288.9c-0.1-0.1-0.2-0.3-0.2-0.6c0-0.3,0.1-0.5,0.3-0.7
												c0.2-0.2,0.4-0.3,0.6-0.3c0.2,0,0.5,0.1,0.6,0.2l10.7,10.8c0.3,0.3,0.3,0.9-0.1,1.2C329.8,299.8,329.5,299.9,329.3,299.9
												z M318.8,287.8C318.8,287.8,318.7,287.8,318.8,287.8c-0.1,0-0.3,0.1-0.3,0.2c-0.1,0.1-0.2,0.2-0.2,0.3
												c0,0.1,0,0.1,0.1,0.2l10.7,10.8c0.1,0.1,0.4,0.1,0.6-0.1c0.2-0.2,0.2-0.4,0.1-0.6L319,287.9
												C318.9,287.8,318.8,287.8,318.8,287.8z"/>
										</g>
										<g>
											<path class="st2" d="M333.8,287.7l-0.8-0.9l-0.6,0.6l-0.6-0.6l0.6-0.6l-0.9-0.9l-0.6,0.6l-0.6-0.6l0.6-0.6l-0.9-0.9
												l-1.4,1.4c-0.2,0.2-0.2,0.5,0,0.7l3,3.1c0.2,0.2,0.6,0.2,0.8,0L333.8,287.7L333.8,287.7L333.8,287.7z"/>
											<path d="M332,289.5c-0.2,0-0.4-0.1-0.6-0.2l-3-3.1c-0.2-0.2-0.2-0.4-0.2-0.6c0-0.2,0.1-0.4,0.2-0.5l1.6-1.6l1.2,1.2
												l-0.6,0.6l0.3,0.3l0.6-0.6l1.2,1.2l-0.6,0.6l0.3,0.3l0.6-0.6l1.1,1.1l0.1,0.2l-1.5,1.5
												C332.4,289.4,332.2,289.5,332,289.5z M330,284.2l-1.2,1.2c-0.1,0.1-0.1,0.1-0.1,0.2c0,0.1,0,0.2,0.1,0.2l3,3.1
												c0.1,0.1,0.3,0.1,0.4,0l1.2-1.2l-0.5-0.5l-0.6,0.6l-1-1l0.6-0.6l-0.5-0.5l-0.6,0.6l-1-1l0.6-0.6L330,284.2z"/>
										</g>
										<g>
											<path class="st2" d="M328.7,286.4l-4.7,4.3l3,3l4.3-4.7L328.7,286.4"/>
											<path d="M327,294l-3.3-3.3l5-4.6l2.9,2.9L327,294z M324.4,290.6l2.6,2.6l4-4.3l-2.3-2.3L324.4,290.6z"/>
										</g>
										<g id="cp1_12_">
											<path class="st2" d="M330.3,292.1l-2.5,2.3l2.8,2.9l2.3-2.5L330.3,292.1L330.3,292.1L330.3,292.1z"/>
											<path d="M330.6,297.6l-3.2-3.2l2.7-2.5l0.2,0.2l0.2-0.2l0,0l0.2,0.2h0l2.7,2.7L330.6,297.6z M328.1,294.4l2.5,2.5l2-2.1
												l-2.3-2.4L328.1,294.4z"/>
										</g>
										<g>
											<g id="cp1_13_">
												<path class="st2" d="M322.9,284.7l-2.5,2.3l2.8,2.9l2.3-2.5L322.9,284.7L322.9,284.7L322.9,284.7z"/>
												<path d="M323.3,290.2l-3.2-3.2l2.9-2.6l3,3L323.3,290.2z M320.8,287l2.5,2.5l2-2.1l-2.3-2.4L320.8,287z"/>
											</g>
										</g>
										<g id="cp2_12_">
											<path class="st2" d="M335.2,293.6l-0.8-0.8l-0.6,0.6l-0.6-0.6l0.6-0.6l-0.9-0.9l-0.6,0.6l-0.6-0.6l0.6-0.6l-0.9-0.9
												l-1.4,1.4c-0.2,0.2-0.2,0.5,0,0.7l3,3c0.2,0.2,0.5,0.2,0.8,0L335.2,293.6L335.2,293.6L335.2,293.6z"/>
											<path d="M333.5,295.3c-0.2,0-0.4-0.1-0.6-0.2l-3-3c-0.3-0.3-0.3-0.8,0-1.1l1.6-1.6l1.2,1.2l-0.6,0.6l0.3,0.3l0.6-0.6
												l1.2,1.2l-0.6,0.6l0.3,0.3l0.6-0.6l1.1,1.1v0.2l-1.5,1.4C333.9,295.2,333.7,295.3,333.5,295.3z M331.5,290.1l-1.2,1.2
												c-0.1,0.1-0.1,0.3,0,0.4l3,3c0.1,0.1,0.3,0.1,0.4,0l1.2-1.2l-0.5-0.5l-0.6,0.6l-1-1l0.6-0.6l-0.5-0.5l-0.6,0.6l-1-1
												l0.6-0.6L331.5,290.1z"/>
										</g>
										<g>
											<g id="cp2_13_">
												<path class="st2" d="M327.9,286.2l-0.8-0.8l-0.6,0.6l-0.6-0.6l0.6-0.6l-0.9-0.9l-0.6,0.6l-0.6-0.6l0.6-0.6l-0.9-0.9
													l-1.4,1.4c-0.2,0.2-0.2,0.5,0,0.7l3,3c0.2,0.2,0.5,0.2,0.8,0L327.9,286.2L327.9,286.2L327.9,286.2z"/>
												<path d="M326.2,287.9c-0.2,0-0.4-0.1-0.6-0.2l-3-3c-0.3-0.3-0.3-0.8,0-1.1l1.6-1.6l1.2,1.2l-0.6,0.6l0.3,0.3l0.6-0.6
													l1.2,1.2l-0.6,0.6l0.3,0.3l0.6-0.6l1.1,1.1l-0.1,0.2l-1.4,1.4C326.5,287.9,326.3,287.9,326.2,287.9z M324.2,282.8
													l-1.2,1.2c-0.1,0.1-0.1,0.3,0,0.4l3,3c0.1,0.1,0.3,0.1,0.4,0l1.2-1.2l-0.5-0.5l-0.6,0.6l-1-1l0.6-0.6l-0.5-0.5l-0.6,0.6
													l-1-1l0.6-0.6L324.2,282.8z"/>
											</g>
										</g>
										<g>
											<path d="M328.9,289.4c0.5-0.4-0.2-1-0.6-0.6l-1.1,1.1l0.6,0.6L328.9,289.4"/>
										</g>
										<g id="cp3_12_">
											<path d="M331,294.6c0.4-0.4-0.1-1-0.6-0.6l-0.8,0.8l0.6,0.6L331,294.6"/>
										</g>
										<g transform="matrix(-1,0,0,1,479.79195,0)">
											<g id="cp3_13_">
												<path d="M323.7,287.2c0.4-0.4-0.1-1-0.6-0.6l-0.8,0.8l0.6,0.6L323.7,287.2"/>
											</g>
										</g>
									</g>
								</g>
								<g id="quina">
									<g>
										<path class="st4" d="M283.7,255.9L283.7,255.9c0,2.2,0.8,4.1,2.2,5.6c1.3,1.4,3.2,2.3,5.2,2.3c2,0,3.9-0.9,5.2-2.3
											c1.3-1.4,2.2-3.4,2.2-5.6v-10.6l-14.7,0L283.7,255.9"/>
									</g>
									<g>
										<circle class="st3" cx="287.1" cy="249.3" r="1.5"/>
									</g>
									<g>
										<circle class="st3" cx="295.2" cy="249.3" r="1.5"/>
									</g>
									<g>
										<circle class="st3" cx="291.1" cy="253.2" r="1.5"/>
									</g>
									<g>
										<circle class="st3" cx="287.1" cy="257.3" r="1.5"/>
									</g>
									<g>
										<circle class="st3" cx="295.2" cy="257.3" r="1.5"/>
									</g>
								</g>
								<g>
									<g id="quina_1_">
										<g>
											<path class="st4" d="M283.7,230.4L283.7,230.4c0,2.2,0.8,4.1,2.2,5.6c1.3,1.4,3.2,2.3,5.2,2.3c2,0,3.9-0.9,5.2-2.3
												c1.3-1.4,2.2-3.4,2.2-5.6v-10.6l-14.7,0L283.7,230.4"/>
										</g>
										<g>
											<circle class="st3" cx="287.1" cy="223.8" r="1.5"/>
										</g>
										<g>
											<circle class="st3" cx="295.2" cy="223.8" r="1.5"/>
										</g>
										<g>
											<circle class="st3" cx="291.1" cy="227.7" r="1.5"/>
										</g>
										<g>
											<circle class="st3" cx="287.1" cy="231.8" r="1.5"/>
										</g>
										<g>
											<circle class="st3" cx="295.2" cy="231.8" r="1.5"/>
										</g>
									</g>
								</g>
								<g>
									<g id="quina_2_">
										<g>
											<path class="st4" d="M263.3,255.9L263.3,255.9c0,2.2,0.8,4.1,2.2,5.6c1.3,1.4,3.2,2.3,5.2,2.3c2,0,3.9-0.9,5.2-2.3
												c1.3-1.4,2.2-3.4,2.2-5.6v-10.6l-14.7,0L263.3,255.9"/>
										</g>
										<g>
											<circle class="st3" cx="266.7" cy="249.3" r="1.5"/>
										</g>
										<g>
											<circle class="st3" cx="274.8" cy="249.3" r="1.5"/>
										</g>
										<g>
											<circle class="st3" cx="270.8" cy="253.2" r="1.5"/>
										</g>
										<g>
											<circle class="st3" cx="266.7" cy="257.3" r="1.5"/>
										</g>
										<g>
											<circle class="st3" cx="274.8" cy="257.3" r="1.5"/>
										</g>
									</g>
								</g>
								<g>
									<g id="quina_3_">
										<g>
											<path class="st4" d="M304,255.9L304,255.9c0,2.2,0.8,4.1,2.2,5.6c1.3,1.4,3.2,2.3,5.2,2.3c2,0,3.9-0.9,5.2-2.3
												c1.3-1.4,2.2-3.4,2.2-5.6v-10.6l-14.7,0L304,255.9"/>
										</g>
										<g>
											<circle class="st3" cx="307.4" cy="249.3" r="1.5"/>
										</g>
										<g>
											<circle class="st3" cx="315.6" cy="249.3" r="1.5"/>
										</g>
										<g>
											<circle class="st3" cx="311.5" cy="253.2" r="1.5"/>
										</g>
										<g>
											<circle class="st3" cx="307.4" cy="257.3" r="1.5"/>
										</g>
										<g>
											<circle class="st3" cx="315.5" cy="257.3" r="1.5"/>
										</g>
									</g>
								</g>
								<g>
									<g id="quina_4_">
										<g>
											<path class="st4" d="M283.7,281.1L283.7,281.1c0,2.2,0.8,4.1,2.2,5.6c1.3,1.4,3.2,2.3,5.2,2.3c2,0,3.9-0.9,5.2-2.3
												c1.3-1.4,2.2-3.4,2.2-5.6v-10.6l-14.7,0L283.7,281.1"/>
										</g>
										<g>
											<circle class="st3" cx="287.1" cy="274.6" r="1.5"/>
										</g>
										<g>
											<circle class="st3" cx="295.2" cy="274.6" r="1.5"/>
										</g>
										<g>
											<circle class="st3" cx="291.1" cy="278.5" r="1.5"/>
										</g>
										<g>
											<circle class="st3" cx="287.1" cy="282.6" r="1.5"/>
										</g>
										<g>
											<circle class="st3" cx="295.2" cy="282.6" r="1.5"/>
										</g>
									</g>
								</g>
							</g>
						</g>
					</g>
				</g>
			</g>
		</g>
	</g>
</g>
</svg>
