<?xml version="1.0" encoding="utf-8"?>
<!-- Generator: Adobe Illustrator 24.1.2, SVG Export Plug-In . SVG Version: 6.00 Build 0)  -->
<svg version="1.1" id="Layer_1" xmlns="http://www.w3.org/2000/svg" xmlns:xlink="http://www.w3.org/1999/xlink" x="0px" y="0px"
	 viewBox="0 0 170 83.5" style="enable-background:new 0 0 170 83.5;" xml:space="preserve">
<style type="text/css">
	.st0{fill:#2850E4;}
</style>
<g transform="translate(0.000000,252.000000) scale(0.100000,-0.100000)">
	<path class="st0" d="M1053,2445c-44-18-59-98-25-140c26-32,90-38,125-10c23,18,27,29,27,70s-4,52-26,69
		C1126,2456,1090,2460,1053,2445z"/>
	<path class="st0" d="M1332,2443c-37-18-44-67-40-281c3-195,3-199,27-218c14-11,39-19,63-19c54,0,88-34,88-88c0-60,27-87,85-87
		c57,0,85,28,85,85c0,56-26,82-88,88c-65,6-87,28-87,89c0,58,36,93,96,93c54,0,79,27,79,83c0,58-30,87-88,87c-52,0-78,24-87,77
		c-12,73-15,80-40,91C1394,2457,1363,2457,1332,2443z"/>
	<path class="st0" d="M61,2249c-19-24-21-40-21-151c0-118,1-125,25-148c17-18,35-25,63-25c52,0,81-25,88-75c10-73,13-81,39-93
		c78-36,135,11,135,110c0,31,5,41,25,50c19,8,31,8,50,0c21-10,25-18,25-56c0-98,33-120,169-115c132,6,125-7,129,259l3,220l-25,25
		c-32,32-96,35-126,5c-18-18-20-33-20-153c0-104-3-137-16-155c-20-28-69-30-84-3c-5,11-10,79-10,151c0,126-1,132-25,155
		c-31,32-96,34-125,5c-18-18-20-33-20-153c0-154-9-177-65-177s-65,23-65,177c0,120-2,135-20,153C159,2286,88,2283,61,2249z"/>
	<path class="st0" d="M904,2157c-19-12-34-49-34-82c0-38,39-80,75-80c48,0,65-31,65-119c0-101,16-126,83-126c30,0,52,6,66,19
		c20,18,21,29,21,191c0,216,8,205-151,205C966,2165,910,2161,904,2157z"/>
</g>
</svg>
