<svg width="24" height="24" xmlns="http://www.w3.org/2000/svg">
    <g fill="none" fill-rule="evenodd">
        <path fill="none" d="M0 0h24v24H0z"/>
        <path d="m20.527 16.451.062.144L14.16 5.47C13.61 4.523 12.842 4 12 4c-.842 0-1.61.522-2.16 1.473L3.473 16.45c-.552.95-.625 1.848-.202 2.574.424.726 1.26 1.1 2.362 1.1h12.735c1.1 0 1.94-.375 2.36-1.1.422-.725.35-1.624-.2-2.574zM12 18.285a.809.809 0 1 1 .813-.809.81.81 0 0 1-.812.809H12zm.806-10.139-.265 6.636a.541.541 0 0 1-1.082 0l-.268-6.635a.813.813 0 1 1 1.611 0h.004z" fill="red" fill-rule="nonzero"/>
    </g>
</svg>
