<?xml version="1.0" encoding="UTF-8"?>
<svg width="160px" height="155px" viewBox="0 0 160 155" version="1.1" xmlns="http://www.w3.org/2000/svg" xmlns:xlink="http://www.w3.org/1999/xlink">
    <title>0B017D1B-B844-44C9-8F1B-681FE5548109</title>
    <g id="POC" stroke="none" stroke-width="1" fill="none" fill-rule="evenodd">
        <g id="03.00.01-Status:-Account-Not-Created" transform="translate(-100.000000, -238.000000)">
            <rect fill="#FFFFFF" x="0" y="0" width="360" height="760"></rect>
            <g id="Group" transform="translate(24.000000, 238.000000)">
                <g id="Illustrations-/-Error" transform="translate(76.000000, 0.000000)">
                    <ellipse id="Oval-Copy-2" fill-opacity="0.1" fill="#FA4C51" cx="68.173913" cy="65.3363229" rx="54.9565217" ry="54.9103139"></ellipse>
                    <ellipse id="Oval" fill-opacity="0.2" fill="#FA4C51" cx="107.826087" cy="104.955157" rx="39.6521739" ry="39.6188341"></ellipse>
                    <g id="Illustration-/-Confirmation-Message" transform="translate(73.166984, 55.492119)">
                        <ellipse id="Oval" fill="#FA4C51" cx="25.0434783" cy="25.0224215" rx="25.0434783" ry="25.0224215"></ellipse>
                        <g id="Group" transform="translate(8.621525, 8.614276)" fill="#FFFFFF" fill-rule="nonzero">
                            <g id="Icons-/-Check">
                                <path d="M15.1375668,21.2075192 L14.2754176,7.39781076 C14.2090501,6.33475155 15.0170284,5.41917031 16.0800876,5.35280282 C16.1200953,5.35030512 16.1601711,5.34905536 16.2002566,5.34905536 C17.2674616,5.34905536 18.1326022,6.21419595 18.1326022,7.28140095 C18.1326022,7.32031241 18.1314269,7.359215 18.1290778,7.39805549 L17.2940077,21.2054994 C17.2607677,21.7551058 16.8053497,22.1838124 16.254739,22.1838124 L16.1767114,22.1838124 C15.6268812,22.1838124 15.1718264,21.756281 15.1375668,21.2075192 Z M16.2150216,24.7762993 L16.2183355,24.7762993 C17.3057717,24.7762993 18.1873129,25.6578406 18.1873129,26.7452768 C18.1873129,27.832713 17.3057717,28.7142542 16.2183355,28.7142542 L16.2150216,28.7142542 C15.1275854,28.7142542 14.2460442,27.832713 14.2460442,26.7452768 C14.2460442,25.6578406 15.1275854,24.7762993 16.2150216,24.7762993 Z" id="!"></path>
                            </g>
                        </g>
                    </g>
                </g>
            </g>
        </g>
    </g>
</svg>