<svg xmlns="http://www.w3.org/2000/svg" xmlns:xlink="http://www.w3.org/1999/xlink" viewBox="143 56 397.7 395" xmlns:v="https://vecta.io/nano"><style><![CDATA[.F{fill:#ff0}.G{fill:#fff}]]></style><path d="M341.9 58.5h0c-17.6 0-34.7 2.4-51 6.7v376.5c16.2 4.4 33.3 6.7 51 6.7h0c107.7 0 195-87.3 195-195h0c0-107.6-87.3-194.9-195-194.9z" fill="red"/><path d="M146.9 253.5h0c0 90.1 61.1 165.9 144 188.3V65.2c-83 22.4-144 98.2-144 188.3z" fill="#060"/><path d="M367.6 314.3c-29.6-.9-165.3-85.6-166.3-99.1l7.5-12.5c13.5 19.6 152.2 102 165.9 99l-7.1 12.6" class="F"/><path d="M367.6 314.6c-15.8-.5-60.5-24.5-94-44.9-34.6-21-72-47.1-72.5-54.5v-.2l7.5-12.5c0-.1.1-.1.2-.1s.2 0 .2.1c6.9 10 46.6 36.3 82.8 57.9 42.7 25.5 76.8 42.3 82.8 41.1.1 0 .2 0 .3.1s.1.2 0 .3l-7.1 12.5c0 .1-.1.2-.2.2zm-166-99.4c.7 6.2 31 28.9 72.2 54 33.3 20.3 77.8 44.1 93.6 44.8l6.7-11.9c-8.5.4-47.3-20.1-82.6-41.2-35.9-21.4-75.1-47.3-82.7-57.7l-7.2 12z"/><path d="M207.2 201c-2.7 7.1 35.4 30.7 81.2 58.6s85.3 45.1 88.2 42.6c.2-.3 1.4-2.5 1.3-2.5-.5.8-1.9 1.1-4 .5-12.4-3.6-44.7-18.4-84.6-42.6-40-24.2-74.8-46.6-80.2-56.1-.4-.7-.6-1.9-.6-2.8h-.1l-1.2 2v.3h0 0zm161.1 113.7c-.5.9-1.4.9-3.2.7-11.1-1.2-44.7-17.6-84.4-41.4-46.3-27.7-84.5-52.9-80.3-59.5l1.1-2 .2.1c-3.7 11.2 75.4 56.4 80.1 59.3 45.8 28.4 84.4 44.9 87.8 40.6l-1.3 2.2h0 0z" class="F"/><path d="M366.5 315.8c-.4 0-.9 0-1.4-.1-11.3-1.2-45.3-17.9-84.5-41.4-52.5-31.4-78.9-50.3-80.7-57.8-.2-.8-.1-1.5.2-2.1l1.1-2c.1-.1.2-.2.3-.1l.2.1c.1 0 .1.1.2.1v.2c-1.2 3.7 7.1 16.1 76.8 57.1l3.1 1.8c45.2 28 84.1 44.9 87.4 40.7.1-.1.3-.1.4-.1.1.1.2.2.1.4l-1.2 2.1c-.4.9-1.1 1.1-2 1.1zM201.3 213.4l-.7 1.2c-.3.5-.3 1-.2 1.7 1.8 7.3 28.1 26.1 80.4 57.5 39.2 23.5 73.1 40.1 84.3 41.3 1.7.2 2.5.2 2.9-.6l.7-1.2c-.4.1-.8.2-1.4.2-9.6 0-44.7-15.8-85.8-41.3-.4-.3-1.5-.9-3.1-1.8-51.2-30.2-77.1-49.4-77.1-57zm174.5 89.2c-7.2 0-44.4-16.7-87.5-42.8-49.3-30-84-51.8-81.4-58.9l.2-.3 1.2-2c.1-.1.1-.1.2-.1h.1c.1 0 .1 0 .2.1s.1.1.1.2c0 .8.2 2 .6 2.6 5.7 10 45.8 35.2 80.1 56 37.6 22.8 71 38.7 84.6 42.6 1.8.5 3.2.4 3.7-.4 0-.1.1-.1.2-.1s.2 0 .3.1c.1.2.1.2-1.2 2.5l-.1.3s0 .1-.1.1c-.3 0-.7.1-1.2.1zM207.5 201.1c-2.6 7.3 41.9 34.3 81.1 58.2 47.1 28.6 85 44.7 87.9 42.7l.1-.2c.3-.5.5-.8.7-1.2-.8.3-1.9.2-3.3-.2-13.6-3.9-47.1-19.8-84.7-42.7-34.3-20.8-74.5-46-80.3-56.2-.3-.5-.5-1.4-.6-2.1l-.9 1.7z"/><path d="M291.1 223.3c29.6-.2 66.2-4 87.2-12.4l-4.5-7.4c-12.4 6.9-49.2 11.4-83 12.1-39.9-.4-68.1-4.1-82.2-13.6l-4.3 7.8c26 11.1 52.6 13.4 86.8 13.5" class="F"/><path d="M291.1 223.6c-34.3-.1-60.7-2.4-86.9-13.4-.1 0-.1-.1-.2-.2v-.2l4.3-7.8c0-.1.1-.1.2-.1h.2c13.1 8.8 39.2 13.1 82.1 13.5 30.5-.6 69.4-4.6 82.8-12.1.1-.1.3 0 .4.1l4.5 7.4c0 .1.1.2 0 .2 0 .1-.1.1-.2.2-22.1 8.8-59.5 12.2-87.2 12.4zm-86.4-13.8c25.9 10.9 52.3 13.2 86.3 13.3 27.5-.2 64.7-3.6 86.8-12.3l-4.2-6.9c-13.7 7.4-52.4 11.4-82.8 12-42.7-.4-68.8-4.7-82.1-13.4l-4 7.3z"/><path d="M379.5 211.1c-.7 1.2-14.4 5.9-34.7 9.4-13.7 2.1-31.6 3.9-53.9 3.9-21.2 0-38.5-1.5-51.6-3.3-21.2-3.3-32.2-8-36.2-9.6.4-.8.6-1.3 1-2 11.7 4.6 22.7 7.4 35.5 9.4 13 1.8 30.1 3.3 51.2 3.3 22.2 0 39.9-1.9 53.5-4 20.7-3.3 32.1-7.6 33.6-9.6l1.6 2.5h0 0zm-3.9-7.5c-2.2 1.8-13.4 5.8-33.1 8.9-13.1 1.9-29.9 3.6-51.2 3.6-20.3 0-36.9-1.3-49.5-3.2-20-2.6-30.7-7.3-34.5-8.7.4-.7.8-1.3 1.2-2 3 1.5 13.3 5.7 33.5 8.5 12.5 1.8 29.1 3.1 49.3 3.1 21.3 0 37.8-1.7 50.8-3.6 19.8-2.7 30.5-7.8 32.1-9.1l1.4 2.5h0 0z" class="F"/><path d="M290.6 224.6c-18 0-35.2-1.1-51.2-3.3-20.5-3.2-31.7-7.7-35.9-9.4l-.4-.2c-.1 0-.1-.1-.2-.2v-.2c.2-.3.3-.6.4-.9l.6-1.2c.1-.1.2-.2.4-.1 11.2 4.4 22.1 7.3 35.5 9.4 16 2.2 33.1 3.3 50.8 3.3h.4a353.9 353.9 0 0 0 53.5-4c20.5-3.3 31.9-7.6 33.5-9.5.1-.1.1-.1.2-.1s.2.1.2.1l1.5 2.5c0 .1.1.2 0 .3v.1c-1.1 1.4-15.3 6.1-34.8 9.5-16.9 2.6-35 3.9-53.9 3.9h-.6zm-87.1-13.2l.2.1c4.2 1.7 15.3 6.2 35.7 9.4 16 2.2 33.2 3.3 51.2 3.3h.4c18.9 0 37-1.3 53.9-3.9 20-3.5 33-8 34.4-9.1l-1.2-2c-2.3 2-12.8 6.1-33.5 9.5-17.9 2.7-35.4 4-53.6 4-17.9 0-35.1-1.1-51.3-3.3-13.3-2.1-24.2-4.9-35.4-9.3-.2.3-.3.6-.5.9-.1 0-.2.1-.3.4zm87.3 5c-17.8 0-34.8-1.1-49.1-3.2-17.7-2.3-28-6.2-32.9-8.1-.6-.2-1.2-.4-1.6-.6-.1 0-.1-.1-.2-.2v-.2c.4-.7.8-1.3 1.2-2 .1-.1.2-.2.4-.1 1.7.9 11.6 5.4 33.5 8.5 9.9 1.4 26.3 3.1 48.7 3.1h.5a352.94 352.94 0 0 0 50.8-3.6c18.9-2.6 30-7.5 31.9-9 .1 0 .1-.1.2-.1s.1.1.2.1l1.4 2.4v.1c0 .1 0 .2-.1.2-2.2 1.8-13.2 5.8-33.3 9-16.8 2.4-33.5 3.6-51.3 3.6 0 .1-.2.1-.3.1zm-83.1-12.3c.4.1.8.3 1.3.5 4.9 1.9 15.2 5.8 32.8 8.1 14.3 2.1 31.2 3.2 49 3.2h.4c17.7 0 34.4-1.2 51.2-3.6 19.4-3.1 30.3-6.9 32.8-8.7l-1.2-1.9c-2.2 1.4-12.4 6.2-31.9 8.9a353.38 353.38 0 0 1-50.9 3.6h-.5c-22.5 0-38.9-1.7-48.8-3.1-21.2-3-31.1-7.3-33.4-8.5-.3.5-.6 1-.8 1.5z"/><path d="M193.8 259c18.2 9.8 58.7 14.7 97 15.1 34.9.1 80.3-5.4 97.3-14.4l-.5-9.8c-5.3 8.3-54 16.3-97.2 15.9-43.2-.3-83.3-7-96.7-15.6l.1 8.8" class="F"/><path d="M291.3 274.4h-.5c-33.9-.3-77.3-4.4-97.1-15.1-.1-.1-.2-.2-.1-.3l-.1-8.8c0-.1.1-.2.1-.2.1-.1.2 0 .3 0 13.5 8.7 54.1 15.3 96.6 15.6 42.8.3 91.8-7.7 97-15.8.1-.1.2-.2.3-.1.1 0 .2.1.2.3l.5 9.8c0 .1-.1.2-.1.3-17.3 8.9-62.7 14.3-97.1 14.3zm-97.2-15.5c19.8 10.6 62.9 14.7 96.7 15 34.2.1 79.8-5.3 97-14.3l-.4-8.9c-7.3 8.2-54.3 15.8-97 15.5-42.1-.3-82.4-6.8-96.4-15.4l.1 8.1z"/><path d="M389 257.6v2.3c-2.6 3.1-18.6 7.7-38.6 10.9-15.3 2.3-35.2 4.1-60 4.1-23.6 0-42.4-1.7-57-3.9-23.1-3.4-37.8-9.2-40.8-11v-2.7c8.9 5.9 33 10.2 41.1 11.6 14.5 2.2 33.2 3.9 56.7 3.9 24.7 0 44.5-1.8 59.7-4.1 14.4-2 34.9-7.5 38.9-11.1h0 0zm0-8.3v2.3c-2.6 3.1-18.6 7.7-38.6 10.9-15.3 2.3-35.2 4.1-60 4.1-23.6 0-42.4-1.7-57-3.9-23.1-3.4-37.8-9.2-40.8-11V249c8.9 5.9 33 10.2 41.1 11.6 14.5 2.2 33.2 3.9 56.7 3.9 24.7 0 44.5-1.8 59.7-4.1 14.4-2.1 34.9-7.5 38.9-11.1h0 0z" class="F"/><path d="M290.4 275.3c-20.9 0-40.1-1.3-57-3.9-22.1-3.2-37.3-8.9-40.9-11-.1-.1-.1-.1-.1-.2v-2.7c0-.1.1-.2.1-.2h.3c8.9 5.9 33.6 10.3 41 11.5 16.8 2.6 35.9 3.9 56.6 3.9 21.9 0 42-1.4 59.7-4.1 14.3-2.1 34.8-7.4 38.8-11 .1-.1.2-.1.3-.1s.2.1.2.3v2.3c0 .1 0 .1-.1.2-2.7 3.2-19 7.8-38.8 11-17.9 2.6-38.1 4-60.1 4zm-97.5-15.4c2.6 1.5 16.8 7.4 40.5 10.9 16.9 2.6 36.1 3.9 56.9 3.9 22 0 42.2-1.4 60-4.1 19.2-3.1 35.7-7.7 38.4-10.7v-1.6c-5 3.6-24.8 8.8-38.6 10.8-17.7 2.7-37.8 4.1-59.7 4.1-20.8 0-39.9-1.3-56.7-3.9-7.3-1.2-31.4-5.5-40.8-11.3v1.9zm97.5 7.1c-20.9 0-40.1-1.3-57-3.9-22.1-3.2-37.3-8.9-40.9-11-.1-.1-.1-.1-.1-.2v-2.7c0-.1.1-.2.1-.2h.3c8.9 5.9 33.6 10.3 41 11.5 16.8 2.6 35.9 3.9 56.6 3.9 21.9 0 42-1.4 59.7-4.1 14.3-2.1 34.8-7.4 38.8-11 .1-.1.2-.1.2-.1.1 0 .2.1.2.2v.1 2.3c0 .1 0 .1-.1.2-2.7 3.2-19 7.8-38.8 11-17.8 2.6-38 4-60 4zm-97.5-15.4c2.6 1.5 16.8 7.4 40.5 10.9 16.9 2.6 36.1 3.9 56.9 3.9 22 0 42.2-1.4 60-4.1 19.2-3.1 35.7-7.7 38.4-10.7v-1.7c-5 3.6-24.8 8.8-38.6 10.8-17.7 2.7-37.8 4.1-59.7 4.1-20.8 0-39.9-1.3-56.7-3.9-7.3-1.2-31.4-5.5-40.8-11.3v2z"/><path d="M290.7 312.6c-41.9-.2-77.8-11.4-85.4-13.3l5.5 8.7c13.4 5.6 48.4 14 80.3 13.1s59.7-3.4 79.3-12.9l5.7-9c-13.4 6.3-58.9 13.3-85.4 13.4" class="F"/><path d="M286.2 321.4c-30.1 0-62.3-7.7-75.5-13.2-.1 0-.1-.1-.1-.1l-5.5-8.7c-.1-.1-.1-.2 0-.3s.2-.1.3-.1c.9.2 2.2.6 3.9 1 12.2 3.3 44.6 12 81.5 12.2 26.7-.1 72.1-7.2 85.3-13.4.1-.1.2 0 .3.1s.1.2 0 .3l-5.7 9-.1.1c-20.5 10-50.3 12.1-79.4 13-1.7.1-3.3.1-5 .1zM211 307.8c13.9 5.8 48.8 13.9 80.1 13 29.1-.8 58.7-3 79.1-12.9l5.1-8.1c-14.2 6.1-58.4 13-84.6 13.1-37-.2-69.4-9-81.6-12.3-1.3-.3-2.3-.6-3.2-.8l5.1 8z"/><path d="M372.5 306.1l-2.5 3.8c-9.3 3.3-23.8 6.7-30 7.7-12.6 2.6-32 4.5-49.3 4.5-37.1-.5-67.5-7.8-81.8-14l-1.2-2 .2-.3 2 .8c25.4 9.1 54 12.7 81 13.4 17.2.1 34.4-2 48.3-4.5 21.3-4.3 30-7.5 32.6-9l.7-.4h0 0zm5-8.1c0 .1 0 .1 0 0-.6 1.1-1.2 2.2-1.9 3.3-4.9 1.8-18.3 5.7-37.9 8.4-12.9 1.8-20.9 3.5-46.5 4-48-1.2-79.1-10.6-86.5-12.9l-1.1-2.1c27.8 7.3 56.3 12.3 87.6 12.9 23.4-.5 33.4-2.2 46.2-4 22.8-3.5 34.3-7.3 37.7-8.4 0-.1-.1-.1-.2-.2l2.6-1h0 0z" class="F"/><path d="M290.8 322.4c-37.9-.6-67.8-7.9-81.9-14-.1 0-.1-.1-.1-.1l-1.2-2c-.1-.1 0-.2 0-.3l.2-.3c.1-.1.2-.2.3-.1l2 .8c22.7 8.1 49.9 12.6 80.9 13.4 18.9.1 36.7-2.4 48.2-4.5 23.8-4.8 30.9-8 32.5-8.9l.7-.4c.1-.1.2 0 .3.1s.1.2 0 .3c-.9 1.3-1.7 2.6-2.5 3.8l-.1.1c-9.2 3.2-23.7 6.7-30 7.7-13.1 2.5-32.9 4.4-49.3 4.4zm-81.7-14.5c15.2 6.6 46.3 13.4 81.6 14 16.4 0 36.2-1.8 49.2-4.5 6.3-1 20.7-4.4 29.9-7.6l1.9-2.8c-2.1 1.1-9.7 4.3-32.4 8.8-11.6 2.1-29.4 4.5-48.4 4.5-31.1-.7-58.4-5.3-81.1-13.4l-1.7-.7 1 1.7zm82.1 6c-42.9-1.1-72.7-8.6-86.6-12.9-.1 0-.1-.1-.2-.1l-1.1-2.1v-.3c.1-.1.2-.1.3-.1 31.8 8.3 59.6 12.4 87.5 12.8 20.9-.4 31.2-1.9 42.1-3.4l4-.6c22-3.4 33.5-7.1 37.3-8.3h0v-.1c0-.1.1-.2.2-.2l2.5-.9c.1 0 .3 0 .3.1h0v.1c.1.1.1.2 0 .3-.6 1.1-1.3 2.1-1.9 3.2 0 .1-.1.1-.1.1-6.6 2.4-20.5 6-37.9 8.4l-5.5.8c-10.1 1.5-19 2.8-40.9 3.2zm-86.3-13.4c13.9 4.4 43.6 11.8 86.3 12.9 21.8-.4 30.7-1.7 41-3.2 1.8-.3 3.6-.5 5.5-.8 17.3-2.4 31.1-6 37.7-8.4.5-.9 1.1-1.7 1.6-2.6l-1.6.6v.1c0 .1-.1.1-.2.2l-.4.1c-3.8 1.2-15.4 4.8-37.4 8.3l-4.1.6c-10.9 1.5-21.2 3-42.2 3.4-27.8-.5-55.5-4.5-87.1-12.7l.9 1.5z"/><path d="M378 251.3c.1 27.6-14 52.3-25.3 63.2-16.1 15.4-37.4 25.4-62.3 25.8-27.8.5-54-17.6-61-25.6-13.7-15.6-24.9-35.3-25.3-62 1.7-30.1 13.5-51.1 30.6-65.4 17.1-14.4 39.9-21.4 58.9-20.9 21.9.6 47.5 11.3 65.2 32.7 11.5 14.1 16.5 29.2 19.2 52.2h0zm-87.4-94.4c53.4 0 97.3 43.4 97.3 96.7s-43.9 96.7-97.3 96.7-96.9-43.4-96.9-96.7 43.5-96.7 96.9-96.7" class="F"/><path d="M290.6 350.6c-53.6 0-97.2-43.5-97.2-97s43.6-97 97.2-97c25.9 0 50.4 10.1 68.9 28.5s28.7 42.7 28.7 68.5-10.2 50.2-28.7 68.5c-18.6 18.4-43 28.5-68.9 28.5zm0-193.4c-53.3 0-96.7 43.3-96.7 96.4 0 53.2 43.4 96.4 96.7 96.4 53.5 0 97-43.3 97-96.4 0-53.2-43.5-96.4-97-96.4zm-1.4 183.5c-28.5 0-53.9-18.7-60.1-25.7-16.8-19-25.1-39.3-25.4-62.2 1.6-27.8 11.9-49.8 30.7-65.6 16-13.5 38.7-21.5 59.1-20.9 24.1.6 49.2 13.2 65.4 32.8 11.1 13.4 16.5 28.1 19.3 52.3.1 26.7-13.1 51.6-25.4 63.4-17.2 16.5-38.8 25.5-62.5 25.9h-1.1zm2.4-173.9c-19.8 0-41.4 7.9-56.8 20.8-18.7 15.7-29 37.6-30.5 65.2.3 22.7 8.6 42.9 25.2 61.8 6.1 6.9 31.3 25.5 59.6 25.5h1.2c23.5-.4 45-9.3 62.1-25.8 12.3-11.8 25.4-36.5 25.3-63-2.8-24.1-8.1-38.6-19.2-52-16.1-19.5-41-31.9-65-32.6-.6.1-1.2.1-1.9.1z"/><path d="M290.8 156.6c53.4 0 97 43.6 97 97s-43.6 97-97 97-97-43.6-97-97 43.6-97 97-97h0zm-94.9 97c0 52.2 42.9 94.9 94.9 94.9s94.9-42.7 94.9-94.9-42.9-94.9-94.9-94.9-94.9 42.7-94.9 94.9h0z" class="F"/><path d="M290.8 350.9c-53.7 0-97.3-43.7-97.3-97.3 0-53.7 43.6-97.3 97.3-97.3s97.3 43.7 97.3 97.3c0 53.7-43.6 97.3-97.3 97.3zm0-194.1c-53.3 0-96.7 43.4-96.7 96.8 0 53.3 43.4 96.7 96.7 96.7s96.7-43.4 96.7-96.7c.1-53.3-43.3-96.8-96.7-96.8zm0 192c-25.3 0-49.1-9.9-67.2-28-18.1-18-28-41.9-28-67.2s9.9-49.2 28-67.2c18-18 41.9-28 67.2-28s49.1 9.9 67.2 28c18.1 18 28 41.9 28 67.2s-9.9 49.2-28 67.2-41.9 28-67.2 28zm0-189.8c-52.2 0-94.6 42.4-94.6 94.6s42.4 94.6 94.6 94.6 94.6-42.4 94.6-94.6S343 159 290.8 159z"/><path d="M290.9 164.6c48.7 0 88.9 40 88.9 88.9s-40.1 88.9-88.9 88.9-88.9-40-88.9-88.9 40.2-88.9 88.9-88.9h0zm-86.7 88.9c0 47.7 39.2 86.7 86.7 86.7s86.7-39 86.7-86.7-39.2-86.7-86.7-86.7c-47.6 0-86.7 39-86.7 86.7h0z" class="F"/><path d="M290.9 342.7c-23.7 0-46-9.3-62.9-26.2s-26.2-39.3-26.2-63 9.3-46.1 26.2-63 39.2-26.2 62.9-26.2 46 9.3 62.9 26.2 26.2 39.3 26.2 63-9.3 46.1-26.2 63-39.2 26.2-62.9 26.2zm0-177.8c-48.8 0-88.6 39.7-88.6 88.6s39.7 88.6 88.6 88.6c48.8 0 88.6-39.7 88.6-88.6 0-48.8-39.7-88.6-88.6-88.6zm0 175.6c-23.1 0-44.9-9.1-61.4-25.6s-25.6-38.3-25.6-61.5 9.1-45 25.6-61.5 38.3-25.6 61.4-25.6 44.9 9.1 61.4 25.6 25.6 38.3 25.6 61.5-9.1 45-25.6 61.5c-16.5 16.6-38.3 25.6-61.4 25.6zm0-173.5c-47.7 0-86.5 38.8-86.5 86.5s38.8 86.5 86.5 86.5 86.5-38.8 86.5-86.5-38.8-86.5-86.5-86.5z"/><path d="M294.8 156.2h-8.3v195h8.3v-195z" class="F"/><path d="M294.9 351.4h-8.3c-.2 0-.3-.1-.3-.3v-195c0-.1 0-.1.1-.2s.1-.1.2-.1h8.3c.2 0 .3.1.3.3v195c0 .1 0 .1-.1.2s-.2.1-.2.1zm-8.1-.5h7.8V156.5h-7.8v194.4z"/><path d="M294 155.1h2.1v197.2H294V155.1h0zm-8.3 0h2.1v197.2h-2.1V155.1h0z" class="F"/><path d="M287.9 352.6h-2.1c-.2 0-.3-.1-.3-.3V155.1c0-.2.1-.3.3-.3h2.1c.2 0 .3.1.3.3v197.2c0 .1 0 .1-.1.2-.1 0-.2.1-.2.1zm-1.9-.6h1.6V155.4H286V352zm10.1.6H294c-.2 0-.3-.1-.3-.3V155.1c0-.1 0-.1.1-.2s.1-.1.2-.1h2.1c.2 0 .3.1.3.3v197.2c0 .1 0 .1-.1.2 0 0-.1.1-.2.1zm-1.8-.6h1.6V155.4h-1.6V352z"/><path d="M387.9 257.4v-7.2l-5.9-5.5-33.3-8.8-48-4.9-57.8 2.9-41.2 9.8-8.3 6.2v7.2l21-9.4 50-7.8h48l35.3 3.9 24.5 5.9 15.7 7.7z" class="F"/><path d="M387.9 257.6h-.1l-15.7-7.8-24.4-5.9-35.2-3.9h-48l-49.9 7.8-21 9.4h-.3c-.1-.1-.1-.1-.1-.2v-7.2c0-.1 0-.2.1-.2l8.3-6.2h.1l41.2-9.8 57.9-2.9 48.1 4.9 33.4 8.8s.1 0 .1.1l5.9 5.5c.1.1.1.1.1.2v7.2c0 .1 0 .2-.1.2h-.4zm-75.4-18.1l35.3 3.9 24.5 5.9 15.3 7.6v-6.6l-5.7-5.3-33.2-8.8-48-4.9-57.8 2.9-41 9.8-8.1 6v6.6l20.7-9.3h.1l50-7.8h47.9z"/><path d="M290.9 238.6c22.9 0 45.1 2.2 62.8 5.6 18.2 3.6 31 8.2 35.4 13.3v2.5c-5.3-6.4-22.5-11-35.8-13.7-17.5-3.4-39.6-5.6-62.4-5.6-24 0-46.4 2.3-63.7 5.7-13.8 2.7-32.3 8.2-34.6 13.6v-2.6c1.3-3.7 15-9.3 34.3-13.1 17.4-3.4 39.8-5.7 64-5.7h0zm0-8.3c22.9 0 45.1 2.2 62.8 5.6 18.2 3.6 31 8.2 35.4 13.3v2.5c-5.3-6.4-22.5-11-35.8-13.7-17.5-3.4-39.6-5.6-62.4-5.6-24 0-46.3 2.3-63.6 5.7-13.4 2.5-32.6 8.2-34.7 13.6v-2.6c1.3-3.7 15.3-9.4 34.3-13.1 17.4-3.5 39.8-5.7 64-5.7h0z" class="F"/><path d="M192.6 260.3c-.2 0-.3-.1-.3-.3v-2.6-.1c1.4-4 15.9-9.6 34.5-13.3 18.6-3.6 41.3-5.6 64-5.7v.3-.3h.6c21.5 0 43.6 2 62.2 5.6 19 3.8 31.3 8.4 35.5 13.4 0 .1.1.1.1.2v2.5c0 .1-.1.2-.2.3-.1 0-.2 0-.3-.1-5.6-6.7-24.7-11.4-35.6-13.6-18.4-3.6-40.3-5.6-61.7-5.6h-.6c-22.5 0-45.1 2.1-63.6 5.7-15.1 3-32.3 8.5-34.4 13.4 0 .1-.1.2-.2.2zm98.9-19.8c21.4 0 43.3 2 61.8 5.6 10.7 2.1 29.2 6.7 35.5 13.2v-1.7c-4.2-4.8-16.4-9.4-35.2-13.1-18.6-3.6-40.6-5.6-62.1-5.6h-.6c-22.7 0-45.4 2.1-63.9 5.7-20.6 4.1-32.9 9.7-34.1 12.9v1.6c4.1-5.5 23.1-10.6 34.3-12.8 18.6-3.6 41.2-5.6 63.7-5.7.2-.1.4-.1.6-.1zM192.6 252c-.2 0-.3-.1-.3-.3v-2.6-.1c1.4-4 16.2-9.8 34.5-13.3 18.5-3.6 41.3-5.6 64-5.7h0c21.7 0 44 2 62.8 5.6 19 3.8 31.3 8.4 35.5 13.4 0 .1.1.1.1.2v2.5c0 .1-.1.2-.2.3-.1 0-.2 0-.3-.1-5.6-6.7-24.7-11.4-35.6-13.6-18.6-3.6-40.7-5.6-62.3-5.6-22.4 0-44.9 2.1-63.5 5.7-15.3 2.9-32.6 8.6-34.5 13.4 0 .1-.1.2-.2.2zm99-19.8c21.4 0 43.3 2 61.8 5.6 10.7 2.1 29.2 6.7 35.5 13.2v-1.7c-4.2-4.8-16.4-9.4-35.2-13.1-18.8-3.6-41-5.7-62.7-5.6h0c-22.7 0-45.4 2.1-63.9 5.7-19.8 3.9-32.8 9.6-34.1 12.9v1.5c3.9-5.3 22.3-10.5 34.4-12.8 18.6-3.6 41.2-5.6 63.6-5.7h.6z"/><path d="M290.4 187.8c36.1-.2 67.6 5 82 12.4l5.3 9.1c-12.5-6.7-46.5-13.8-87.2-12.7-33.2.2-68.6 3.7-86.4 13.1l6.3-10.5c14.5-7.5 49-11.4 80-11.4" class="F"/><path d="M204.1 210c-.1 0-.1 0-.2-.1s-.1-.2 0-.3l6.3-10.5.1-.1c15.2-7.9 51.2-11.4 80.2-11.5 34.8-.2 67 4.7 82.1 12.5l.1.1 5.3 9.1c.1.1 0 .2 0 .3-.1.1-.2.1-.3.1-13.1-7.1-47.3-13.7-87.1-12.7-23.3.1-65.5 2-86.3 13.1h-.2zm6.4-10.5l-5.7 9.6c21.1-10.7 62.6-12.6 85.7-12.7 39.1-1 72.7 5.4 86.5 12.3l-4.7-8.2c-15.1-7.7-47.1-12.5-81.8-12.4-28.9 0-64.8 3.6-80 11.4z"/><path d="M290.9 195.3c20.6-.1 40.5 1.1 56.3 4 14.7 2.7 28.8 6.9 30.8 9.1l1.6 2.8c-4.9-3.2-17.1-6.7-32.7-9.7-15.7-2.9-35.6-3.9-56.1-3.9-23.2-.1-41.3 1.1-56.8 3.9-16.4 3.1-27.8 7.4-30.6 9.5l1.5-2.9c5.5-2.8 14.1-6.1 28.6-8.8 16.2-3 34.4-3.9 57.4-4h0 0zm0-8.3c19.7-.1 39.2 1 54.3 3.8 12 2.3 23.8 6 28.1 9.2l2.3 3.6c-3.9-4.3-18.5-8.4-31.3-10.7-15.1-2.6-33.7-3.6-53.4-3.8-20.7.1-39.8 1.3-54.6 4-14.2 2.7-23.3 5.9-27.1 8.4l2-3c5.3-2.8 13.9-5.4 24.8-7.5 14.8-2.7 34.1-3.9 54.9-4h0z" class="F"/><path d="M379.6 211.4h-.2c-4.8-3.1-16.7-6.6-32.6-9.7-14-2.6-32.8-3.9-56-3.9-23.2-.1-41.3 1.1-56.8 3.8-16.3 3.1-27.6 7.4-30.5 9.5-.1.1-.3.1-.3 0-.1-.1-.1-.2-.1-.3l1.5-2.9c0-.1.1-.1.1-.1 7.4-3.8 16.7-6.6 28.7-8.8 14.5-2.7 31.1-3.8 57.3-3.9h0c22.2 0 41.7 1.3 56.4 4 15 2.8 28.9 6.9 31 9.2l1.6 2.8c.1.1 0 .3-.1.3h0zm-87.2-14.2c22.5 0 40.9 1.3 54.6 3.9 15 2.9 26.5 6.2 31.8 9.2l-1-1.8c-1.9-2.1-15.9-6.2-30.6-8.9-14.7-2.6-34.1-4-56.3-4h0c-26.1.1-42.7 1.3-57.2 3.9-11.9 2.1-21.2 5-28.5 8.7l-1 1.9c3.9-2.3 14.8-6.2 29.8-9 15.5-2.7 33.6-3.9 56.9-3.9h1.5zm83.2 6.7c-.1 0-.2 0-.2-.1-4-4.4-19.3-8.5-31.2-10.6-13.7-2.4-31.1-3.6-53.4-3.8-21.6.1-40.5 1.5-54.6 4-12.5 2.4-22.7 5.5-27 8.3-.1.1-.3.1-.4 0s-.1-.2 0-.4l2-3 .1-.1c5.3-2.8 13.9-5.4 24.9-7.5 14.1-2.6 33.1-4 55-4h0 0c21.5 0 40.3 1.3 54.4 3.8 12.8 2.5 24.2 6.2 28.2 9.3 0 0 .1 0 .1.1l2.3 3.6c.1.1 0 .3-.1.4 0 0 0 0-.1 0zm-84.7-15c22.3.2 39.7 1.4 53.5 3.8 10.8 1.9 24.5 5.5 30 9.5l-1.2-2c-4-3-15.3-6.6-28-9.1-14-2.5-32.8-3.8-54.3-3.8h0c-21.9.1-40.9 1.4-54.9 4-10.9 2.1-19.4 4.7-24.7 7.4l-1.3 1.9c4.9-2.7 14.5-5.6 26.2-7.8 14.1-2.5 33.1-3.9 54.7-3.9z"/><path d="M339.1 293.9c-17.9-3.3-35.7-3.8-48.2-3.7-60.2.7-79.6 12.4-82 15.9l-4.5-7.3c15.3-11.1 48.1-17.3 86.8-16.7 20.1.3 37.5 1.7 52.1 4.5l-4.2 7.3" class="F"/><path d="M208.9 306.4c-.1 0-.2-.1-.2-.1l-4.5-7.3c-.1-.1 0-.3.1-.4 15.4-11.1 47.9-17.4 87-16.7 21.2.3 38.3 1.8 52.1 4.5.1 0 .2.1.2.2v.3l-4.2 7.3c-.1.1-.2.2-.3.1-14.1-2.6-30.3-3.9-48.1-3.7-58.5.7-79.2 11.9-81.8 15.8h-.3zm-4.2-7.5l4.1 6.8c3.6-4.2 24.8-15 82-15.7 17.8-.2 33.9 1 48.1 3.6l3.9-6.8c-13.7-2.6-30.6-4.1-51.6-4.4-38.8-.6-71.1 5.5-86.5 16.5z"/><path d="M290.5 289.2c16.7.2 33.2.9 49 3.9l-1.1 2c-14.7-2.7-30.4-3.8-47.8-3.7-22.2-.2-44.7 1.9-64.2 7.5-6.2 1.7-16.4 5.7-17.4 9l-1.1-1.9c.3-1.9 6.5-6 18-9.2 22.3-6.3 43.3-7.4 64.6-7.6h0 0zm.8-8.4c17.3.3 35.3 1.1 52.7 4.6l-1.2 2.1c-15.7-3.1-30.7-4.2-51.4-4.5-22.3 0-45.9 1.6-67.4 7.9-6.9 2-18.9 6.4-19.3 9.8l-1.1-2c.3-3.1 10.6-7.2 19.9-10 21.6-6.2 45.3-7.9 67.8-7.9h0z" class="F"/><path d="M208.9 308.2c-.1 0-.2 0-.2-.1l-1.1-1.9v-.2c.4-2.2 6.9-6.2 18.2-9.4 21.4-6.1 41.4-7.5 64.8-7.7 15.9.2 32.8.9 49 3.9.1 0 .2.1.2.2v.2l-1.1 2c-.1.1-.2.2-.3.1-13.9-2.6-29.5-3.8-47.8-3.7-24.6-.2-46.1 2.3-64.2 7.5-6.6 1.8-16.3 5.8-17.2 8.8-.1.2-.1.3-.3.3zm-.8-2.2l.8 1.4c1.8-3.3 11.5-7 17.4-8.6 18.1-5.2 39.7-7.7 64.3-7.5 18.2-.1 33.8 1.1 47.7 3.6l.9-1.5c-16.1-3-32.9-3.6-48.6-3.8-23.3.2-43.3 1.5-64.6 7.6-11.6 3.2-17.5 7.1-17.9 8.8zm-3.4-5c-.1 0-.2-.1-.2-.1l-1.1-2v-.2c.3-4.1 15.5-8.8 20.1-10.2 18.5-5.4 40.1-7.9 67.9-8 17 .3 35.1 1.1 52.7 4.6.1 0 .2.1.2.2v.2l-1.2 2.1c-.1.1-.2.2-.3.1-16.7-3.3-32.6-4.2-51.3-4.5-27.6 0-49 2.5-67.3 7.9-9 2.6-18.8 6.7-19.1 9.6-.2.2-.3.3-.4.3zm-.9-2.3l.8 1.4c2-4.3 17.5-8.9 19.3-9.4 18.3-5.3 39.8-7.8 67.5-7.9 18.7.3 34.6 1.2 51.2 4.4l.9-1.6c-17.4-3.4-35.4-4.2-52.2-4.5-27.7.1-49.3 2.6-67.7 7.9-11.7 3.4-19.4 7.2-19.8 9.7z"/><path d="M376.7 299.9l-7.2 11.2-20.8-18.5-53.9-36.3L234 223l-31.5-10.8 6.7-12.5 2.3-1.2 19.6 4.9 64.7 33.3 37.2 23.5 31.4 22.5 12.7 14.7-.4 2.5z" class="F"/><path d="M369.5 311.4c-.1 0-.1 0-.2-.1l-20.8-18.5-53.9-36.2-60.6-33.2-31.5-10.8c-.1 0-.1-.1-.2-.2v-.2l6.7-12.5.1-.1 2.3-1.2h.2l19.6 4.9 64.7 33.3 37.3 23.5 31.4 22.5 12.8 14.7c.1.1.1.1.1.2l-.5 2.5v.1l-7.2 11.2c-.1.1-.2.1-.3.1zm-166.6-99.2l31.2 10.7 60.8 33.3 53.9 36.3 20.6 18.3 7-10.9.4-2.1-12.7-14.6-31.3-22.5-37.2-23.5-64.6-33.4-19.4-4.9-2.1 1.2-6.6 12.1z"/><path d="M201.4 212.6c5.5-3.8 46.2 14.4 88.7 40 42.4 25.7 83 54.8 79.3 60.2l-1.2 1.9-.6.4c.1-.1.7-.8-.1-2.8-1.8-5.9-30.6-28.9-78.3-57.7-46.5-27.7-85.3-44.5-89.2-39.7l1.4-2.3h0 0zm176.8 87.2c3.5-6.9-34.2-35.3-81-63-47.8-27.1-82.3-43.1-88.6-38.3l-1.4 2.5c0 .1.1-.2.3-.4 1.1-1 3-.9 3.9-.9 10.8.2 41.8 14.4 85.3 39.3 19 11.1 80.4 50.5 80.2 61.5 0 1 .1 1.1-.3 1.6l1.6-2.3h0 0z" class="F"/><path d="M367.7 315.5c-.1 0-.2 0-.2-.1-.1-.1-.1-.3.1-.4h0s.6-.7-.2-2.5c-1.9-6.1-32.3-29.9-78.2-57.6-48.8-29.1-85.3-44-88.8-39.7-.1.1-.3.1-.4.1-.1-.1-.2-.2-.1-.4l1.2-2.3.1-.1c5.8-3.9 46.6 14.4 89 40 38.2 23.2 77.8 50.9 79.6 59.1.1.6.1 1.1-.2 1.6l-1.2 1.9s0 .1-.1.1l-.6.4h0c.1-.1.1-.1 0-.1zM202.8 213.9c10.7 0 46.7 16.7 86.7 40.5 46.6 28.2 76.5 51.5 78.4 57.9.3.8.4 1.4.4 1.9l.9-1.4c.2-.3.2-.7.1-1.1-1.8-8-42.2-36.2-79.4-58.7-41.4-25-82.6-43.7-88.4-40.1l-.7 1.3c.6-.2 1.2-.3 2-.3zm173.9 88.5c-.1 0-.1 0-.2-.1s-.2-.3-.1-.4l.2-.2c.1-.2.1-.4.1-.9v-.3c.2-11-62.3-51-80-61.3-43.3-24.8-74.3-39.1-85.1-39.3h-.2c-.9 0-2.5 0-3.5.9-.2.1-.2.3-.3.3-.1.1-.2.2-.4.2-.1 0-.2-.2-.2-.3v-.1l1.4-2.5s0-.1.1-.1c7.6-5.7 52.5 17.7 88.9 38.3 42.2 25 85 55.7 81.1 63.4l-1.4 2.1c0 .1-.1.2-.2.3h-.2zm-165.2-103c10.9.2 42.1 14.5 85.4 39.4 12.5 7.3 80.6 49.7 80.3 61.8v.2l.8-1.1c3.2-6.4-32.3-33.9-80.9-62.6-51.1-29-82.4-42.6-88.2-38.4l-.7 1.2c1.1-.5 2.3-.5 3.1-.5h.2z"/><path d="M232.7 264.3c0 15.9 6.5 30.4 17.1 40.9 10.6 10.6 25 17.2 41 17.2 16.1 0 30.6-6.5 41.2-17s17.1-25 17.1-41h0v-77.6l-116.4-.1v77.6h0 0z" class="G"/><path d="M290.8 322.7c-15.4 0-30-6.2-41.2-17.3-11-11-17.1-25.5-17.2-40.8h0v-78.3l117 .1v77.9c0 15.6-6.1 30.2-17.2 41.3s-25.8 17.1-41.4 17.1zM233 264v.3c0 15.3 6 29.7 17 40.7 11.1 11 25.6 17.1 40.7 17.1 15.4 0 30-6 40.9-16.9s16.9-25.3 17-40.6v-.2-77.3l-115.6-.2V264z"/><path d="M234.9 264.4h0c0 15.3 6.3 29.2 16.4 39.2 10.1 10.1 24.1 16.4 39.4 16.4a55.46 55.46 0 0 0 39.4-16.3c10.1-10.1 16.4-23.9 16.4-39.2h0v-75.3H234.9v75.2m89.2-52.7v47.9 5.1h0c0 1.3-.1 2.9-.2 4.1-.9 7.6-4.4 14.2-9.5 19.3-6 6-14.4 9.7-23.6 9.7-9.1 0-17.3-3.9-23.4-9.9-6.2-6.2-9.8-14.7-9.8-23.5v-52.9l66.5.2h0 0z" fill="red"/><path d="M290.7 320.3c-14.9 0-28.9-5.8-39.6-16.4-10.6-10.6-16.5-24.6-16.5-39.4h.5 0c0 14.7 5.8 28.5 16.4 39s24.5 16.3 39.2 16.3c14.8 0 28.7-5.8 39.2-16.2s16.2-24.2 16.3-38.9v-.2-75H235.1l-.1 75h-.5l.1-75.5h112v75.5c0 14.9-5.8 28.9-16.4 39.4-10.5 10.6-24.5 16.4-39.5 16.4zm0-22.1c-8.7 0-17.1-3.5-23.5-10-6.3-6.3-9.9-14.9-9.9-23.6v-53.2h.2l66.7.1.1.1v.1 47.9 5.1c0 1.4-.1 2.9-.2 4.2-.9 7.3-4.2 14.1-9.6 19.5-6.4 6.3-14.9 9.8-23.8 9.8zm-32.9-86.3v52.7c0 8.6 3.6 17.1 9.8 23.3 6.4 6.3 14.6 9.8 23.2 9.8 8.8 0 17.1-3.4 23.4-9.7 5.3-5.3 8.6-11.9 9.5-19.2.1-1.2.2-2.7.2-4.1v-5.1-47.7h-66.1z"/><g class="F"><path d="M242.1 208.8c.1-5.4 4-6.7 4-6.7s4.1 1.4 4.1 6.8l-8.1-.1"/><use xlink:href="#B"/></g><use xlink:href="#C"/><path d="M237.9 208.5h16.6c.3 0 .6.3.6.8 0 .4-.3.8-.6.8h-16.6c-.3 0-.6-.3-.6-.8-.1-.5.2-.8.6-.8z" class="F"/><use xlink:href="#D"/><path d="M243.9 208.5c0-3.2 2.2-4.2 2.2-4.2s2.3.9 2.3 4.2h-4.5" class="F"/><path d="M248.7 208.7h-4.8v-.2h-.2c0-2.1.9-3.3 1.6-3.9 0 0 .7-.5.9-.5s2.5 1.1 2.5 4.4v.2zm-4.6-.5h4c-.1-2.5-1.7-3.4-2.1-3.6-.2.2-1.7 1.1-1.9 3.6z"/><path d="M238.2 199.7h15.9c.3 0 .6.3.6.7s-.3.7-.6.7h-15.9c-.3 0-.6-.3-.6-.7s.3-.7.6-.7z" class="F"/><use xlink:href="#E"/><path d="M238.5 201h15.2c.3 0 .6.3.6.7s-.3.7-.6.7h-15.2c-.3 0-.6-.3-.6-.7.1-.3.3-.7.6-.7z" class="F"/><use xlink:href="#F"/><path d="M243.5 190.7h1.2v.9h.9v-.9h1.2v.9h.9v-.9h1.2v2a.47.47 0 0 1-.5.5H244c-.3 0-.6-.2-.6-.5l.1-2h0 0z" class="F"/><path d="M248.3 193.4H244c-.4 0-.8-.3-.8-.8v-2.1l.2-.1h.1 1.4v.9h.4v-.9h1.7v.9h.4v-.9h1.7v2.2c0 .5-.3.8-.8.8zm-4.6-2.5v1.7c0 .1.2.3.3.3h4.3c.1 0 .3-.1.3-.3v-1.7h-.7v.9h-1.4v-.9h-.7v.9h-1.4v-.9h-.7z"/><path d="M248 193.3l.3 6.3h-4.2l.3-6.3h3.6" class="F"/><use xlink:href="#G"/><use xlink:href="#H" class="F"/><use xlink:href="#I"/><use xlink:href="#H" x="10.4" class="F"/><use xlink:href="#I" x="10.4"/><use xlink:href="#J" class="F"/><use xlink:href="#K"/><use xlink:href="#L" class="F"/><use xlink:href="#K" x="10.4"/><path d="M245.7 195.3c0-.6.9-.6.8 0v1.5h-.8v-1.5"/><use xlink:href="#M"/><use xlink:href="#M" x="10.5"/><g class="F"><path d="M242.1 254.2c.1-5.4 4-6.7 4-6.7s4.1 1.4 4.1 6.8l-8.1-.1"/><use xlink:href="#B" y="45.4"/></g><use xlink:href="#C" y="45.4"/><path d="M237.9 253.9h16.6c.3 0 .6.3.6.8 0 .4-.3.8-.6.8h-16.6c-.3 0-.6-.3-.6-.8-.1-.5.2-.8.6-.8z" class="F"/><use xlink:href="#D" y="45.4"/><path d="M243.9 253.8c0-3.2 2.2-4.2 2.2-4.2s2.3.9 2.3 4.2h-4.5" class="F"/><path d="M248.7 254.1h-4.8v-.2h-.2c0-2.1.9-3.3 1.6-3.9 0 0 .7-.5.9-.5s2.5 1.1 2.5 4.4v.2zm-4.6-.5h4c-.1-2.5-1.7-3.4-2.1-3.6-.2.1-1.7 1.1-1.9 3.6z"/><path d="M238.2 245h15.9c.3 0 .6.3.6.7s-.3.7-.6.7h-15.9c-.3 0-.6-.3-.6-.7 0-.3.3-.7.6-.7z" class="F"/><use xlink:href="#N"/><path d="M238.5 246.4h15.2c.3 0 .6.3.6.7s-.3.7-.6.7h-15.2c-.3 0-.6-.3-.6-.7.1-.4.3-.7.6-.7z" class="F"/><path d="M253.8 248.1h-15.2c-.5 0-.8-.4-.8-.9s.4-.9.8-.9h15.2c.5 0 .8.4.8.9 0 .4-.4.9-.8.9zm-15.3-1.4c-.2 0-.3.2-.3.4s.2.4.3.4h15.2c.2 0 .3-.2.3-.4s-.2-.4-.3-.4h-15.2z"/><path d="M243.5 236.1h1.2v.9h.9v-1h1.2v.9h.9v-.9h1.2v2a.47.47 0 0 1-.5.5H244c-.3 0-.6-.2-.6-.5l.1-1.9h0 0z" class="F"/><path d="M248.3 238.8H244c-.4 0-.8-.3-.8-.8v-2.1l.2-.1h.1 1.4v.9h.4v-.9h1.7v.9h.4v-.9h1.7v2.2c0 .4-.3.8-.8.8zm-4.6-2.5v1.7c0 .1.2.3.3.3h4.3c.1 0 .3-.1.3-.3v-1.7h-.7v.9h-1.4v-.9h-.7v.9h-1.4v-.9h-.7z"/><path d="M248 238.7l.3 6.3h-4.2l.3-6.3h3.6" class="F"/><use xlink:href="#G" y="45.4"/><use xlink:href="#H" y="45.4" class="F"/><use xlink:href="#I" y="45.4"/><use xlink:href="#H" x="10.4" y="45.4" class="F"/><use xlink:href="#I" x="10.4" y="45.4"/><use xlink:href="#J" y="45.4" class="F"/><use xlink:href="#O"/><use xlink:href="#L" y="45.4" class="F"/><use xlink:href="#O" x="10.4"/><path d="M245.7 240.7c0-.6.9-.6.8 0v1.5h-.8v-1.5"/><use xlink:href="#M" y="45.4"/><use xlink:href="#M" x="10.5" y="45.4"/><g class="F"><path d="M259.8 301.5c-3.7-3.9-1.9-7.5-1.9-7.6 0 0 3.9-2 7.7 1.8l-5.8 5.8"/><path d="M252.8 299.2l3.9 4.9 2.9-2.9c-3.6-3.7-1.5-7-1.4-7 .1-.1 3.6-2 7.1 1.4l2.9-2.9-5-3.9-10.4 10.4h0 0z"/></g><path d="M256.7 304.4l-4.1-5.1-.1-.2.1-.1 10.5-10.6 5.4 4.2-3.2 3.3-.2-.2c-3.4-3.2-6.7-1.4-6.8-1.3h0s-2.1 3.1 1.5 6.7l.2.2-3.3 3.1zm-3.6-5.2l3.6 4.5 2.5-2.5c-1.9-2-2.1-3.8-2-5.1.1-.6.2-1.1.4-1.4l-4.5 4.5zm7.6-5.9c1.2 0 2.9.4 4.5 1.9l2.5-2.5-4.6-3.6-4.6 4.6c.4-.2 1.1-.3 1.8-.4h.4z"/><path d="M256.6 304.2l11.7-11.8c.2-.2.7-.2 1 .1s.3.7.1 1l-11.7 11.8c-.2.2-.7.2-1-.1s-.4-.7-.1-1z" class="F"/><path d="M257.2 305.7c-.3 0-.5-.1-.8-.3-.4-.4-.4-1-.1-1.3l11.7-11.8c.2-.2.4-.3.7-.2a1.08 1.08 0 0 1 .7.3c.4.4.4 1 .1 1.3l-11.7 11.8c-.1.2-.3.2-.6.2zm-.5-1.3a.47.47 0 0 0 .1.6c.2.2.5.2.6.1l11.7-11.8a.47.47 0 0 0-.1-.6c-.1-.1-.2-.2-.4-.2-.1 0-.2 0-.3.1l-11.6 11.8z"/><path d="M260.8 299.9c-2.3-2.3-1.4-4.5-1.4-4.5s2.3-1 4.6 1.3l-3.2 3.2" class="F"/><path d="M260.8 300.3l-.2-.2c-1.4-1.4-1.7-2.8-1.6-3.8 0-.4.1-1 .3-1.1h.1c.1 0 2.5-1 4.8 1.3l.2.2-3.6 3.6zm-1.2-4.7c-.1.4-.5 2.1 1.2 4l2.8-2.9c-1.8-1.7-3.6-1.2-4-1.1z"/><path d="M250.5 297.8l11.2-11.3c.2-.2.7-.2.9.1.3.3.3.7.1.9l-11.2 11.3c-.2.2-.6.2-.9-.1s-.3-.7-.1-.9z" class="F"/><path d="M251.1 299.2a1.08 1.08 0 0 1-.7-.3.94.94 0 0 1-.1-1.3l11.2-11.3c.2-.2.4-.2.6-.2.3 0 .5.1.7.3a.94.94 0 0 1 .1 1.3L251.7 299c-.2.1-.4.2-.6.2zm-.4-1.3c-.1.1-.1.4.1.6a.47.47 0 0 0 .6.1l11.2-11.3c.1-.1.1-.4-.1-.6-.1-.1-.2-.1-.3-.1s-.2 0-.2.1l-11.3 11.2z"/><path d="M251.8 298.5l10.7-10.8c.2-.2.6-.2.9.1s.3.7.1.9l-10.7 10.8c-.2.2-.6.2-.9-.1s-.4-.7-.1-.9z" class="F"/><path d="M252.4 299.9a1.08 1.08 0 0 1-.7-.3c-.4-.4-.4-.9-.1-1.2l10.7-10.8c.3-.3.9-.3 1.2.1.2.2.3.4.3.7 0 .2-.1.4-.2.6l-10.7 10.8c-.1 0-.3.1-.5.1zm10.5-12.1c-.1 0-.2 0-.2.1L252 298.7c-.1.1-.1.4.1.6a.47.47 0 0 0 .6.1l10.7-10.8c.1-.1.1-.1.1-.2s-.1-.2-.2-.3c-.2-.2-.3-.3-.4-.3z"/><path d="M247.9 287.7l.8-.9.6.6.6-.6-.6-.6.9-.9.6.6.6-.6-.6-.6.9-.9 1.4 1.4c.2.2.2.5 0 .7l-3 3.1a.61.61 0 0 1-.8 0l-1.4-1.3h0 0z" class="F"/><path d="M249.6 289.5c-.2 0-.4-.1-.5-.2l-1.6-1.5.2-.2.2.2-.2-.2 1-1 .6.6.3-.3-.6-.6 1.2-1.2.6.6.3-.3-.6-.6 1.2-1.2 1.6 1.6c.1.1.2.3.2.5s-.1.4-.2.6l-3 3.1c-.3 0-.5.1-.7.1zm-1.4-1.8l1.2 1.2c.1.1.3.1.4 0l3-3.1c.1-.1.1-.1.1-.2s0-.1-.1-.2l-1.2-1.2-.5.5.6.6-1 1-.6-.6-.5.5.6.6-1 1-.6-.6-.4.5z"/><path d="M252.9 286.4l4.7 4.3-3 3-4.3-4.7 2.6-2.6" class="F"/><path d="M254.6 294l-4.6-5 2.9-2.9 5 4.6-3.3 3.3zm-3.9-5l4 4.3 2.6-2.6-4.3-3.9-2.3 2.2z"/><path d="M251.4 292.1l2.5 2.3-2.8 2.9-2.3-2.5 2.6-2.7h0 0z" class="F"/><path d="M251 297.6l-2.7-2.8 3-3 2.9 2.6-3.2 3.2zm-2-2.8l2 2.1 2.5-2.5-2.1-2-2.4 2.4z"/><path d="M258.7 284.7l2.5 2.3-2.8 2.9-2.3-2.5 2.6-2.7h0 0z" class="F"/><path d="M258.4 290.2l-2.7-2.8 3-3 2.9 2.6-3.2 3.2zm-2-2.8l2 2.1 2.5-2.5-2.1-2-2.4 2.4z"/><use xlink:href="#P" class="F"/><path d="M248.2 295.3c-.2 0-.4-.1-.5-.2l-1.6-1.5.2-.2.2.2-.2-.2 1-1 .6.6.3-.3-.6-.6 1.2-1.2.6.6.3-.3-.6-.6 1.2-1.2 1.6 1.6c.3.3.3.8 0 1.1l-3 3c-.3.1-.5.2-.7.2zm-1.4-1.7l1.2 1.2c.1.1.3.1.4 0l3-3c.1-.1.1-.3 0-.4l-1.2-1.2-.5.5.6.6-1 1-.6-.6-.5.5.6.6-1 1-.6-.6-.4.4z"/><use xlink:href="#P" x="7.3" y="-7.4" class="F"/><path d="M255.5 287.9c-.2 0-.4-.1-.5-.2l-1.5-1.4v-.2l1.1-1.1.6.6.3-.3-.6-.6 1.2-1.2.6.6.3-.3-.6-.6 1.2-1.2 1.6 1.6c.3.3.3.8 0 1.1l-3 3c-.3.2-.5.2-.7.2zm-1.4-1.7l1.2 1.2c.1.1.3.1.4 0l3-3c.1-.1.1-.3 0-.4l-1.2-1.2-.5.5.6.6-1 1-.6-.6-.5.5.6.6-1 1-.6-.6-.4.4zm-1.3 3.2c-.5-.4.2-1 .6-.6l1.1 1.1-.6.6-1.1-1.1m-2.2 5.2c-.4-.4.1-1 .6-.6l.8.8-.6.6-.8-.8m99.644-.203c-.566.002-.639-.776-.003-.849l1.131-.004.003.849-1.131.004"/><g class="F"><path d="M286.9 208.8c.1-5.4 4-6.7 4-6.7s4.1 1.4 4.1 6.8l-8.1-.1"/><use xlink:href="#B" x="44.8"/></g><path d="M287.2 208.7h-4.6l.7-6.7h15.2l.8 6.8h-4.6v-.2c-.1-4.7-3.8-5.7-3.8-5.7s-3.7.7-3.7 5.7v.1zm8-.5h3.6l-.7-5.8h-6.5c.4.2 1 .5 1.6 1.1.9.8 1.9 2.3 2 4.7zm-12 0h3.5c.1-2.7 1.2-4.2 2.2-5 .4-.4.9-.6 1.3-.8h-6.4l-.6 5.8z"/><path d="M282.7 208.5h16.6c.4 0 .6.3.6.8 0 .4-.3.8-.6.8h-16.6c-.3 0-.6-.3-.6-.8-.1-.5.2-.8.6-.8z" class="F"/><use xlink:href="#D" x="44.8"/><path d="M288.7 208.5c0-3.2 2.2-4.2 2.2-4.2s2.3.9 2.3 4.2h-4.5" class="F"/><path d="M293.5 208.7h-4.8v-.2h-.2c0-2.1.9-3.3 1.6-3.9 0 0 .7-.5.9-.5s2.5 1.1 2.5 4.4v.2zm-4.6-.5h4c-.1-2.5-1.7-3.4-2.1-3.6-.3.2-1.8 1.1-1.9 3.6z"/><path d="M283 199.7h15.9c.3 0 .6.3.6.7s-.3.7-.6.7H283c-.3 0-.6-.3-.6-.7s.3-.7.6-.7z" class="F"/><path d="M298.9 201.3H283c-.5 0-.9-.4-.9-.9s.4-.9.9-.9h15.9c.5 0 .9.4.9.9s-.4.9-.9.9zm-15.9-1.4c-.2 0-.4.2-.4.4s.2.4.4.4h15.9c.2 0 .4-.2.4-.4s-.2-.4-.4-.4H283z"/><path d="M283.3 201h15.2c.3 0 .6.3.6.7s-.3.7-.6.7h-15.2c-.3 0-.6-.3-.6-.7.1-.3.3-.7.6-.7z" class="F"/><use xlink:href="#F" x="44.8"/><path d="M288.3 190.7h1.2v.9h.9v-.9h1.2v.9h.9v-.9h1.2v2a.47.47 0 0 1-.5.5h-4.3c-.3 0-.6-.2-.6-.5v-2h0 0z" class="F"/><path d="M293.1 193.4h-4.3c-.4 0-.8-.3-.8-.8v-2.1l.2-.1h.1 1.4v.9h.4v-.9h1.7v.9h.4v-.9h1.7v2.2c0 .5-.3.8-.8.8zm-4.6-2.5v1.7c0 .1.2.3.3.3h4.3c.1 0 .3-.1.3-.3v-1.7h-.7v.9h-1.4v-.9h-.7v.9h-1.4v-.9h-.7z"/><path d="M292.8 193.3l.3 6.3h-4.2l.3-6.3h3.6" class="F"/><use xlink:href="#G" x="44.8"/><use xlink:href="#H" x="44.8" class="F"/><use xlink:href="#I" x="44.8"/><use xlink:href="#H" x="55.2" class="F"/><use xlink:href="#I" x="55.2"/><use xlink:href="#L" x="34.4" class="F"/><path d="M287.9 196.5h-4.2c-.4 0-.8-.3-.8-.8v-2.1l.2-.1h.1 1.4v.9h.4v-.9h1.7v.9h.4v-.9h1.7v2.2c-.2.4-.5.8-.9.8zm-4.6-2.5v1.7c0 .1.1.3.3.3h4.2c.1 0 .3-.1.3-.3V194h-.7v.9H286v-.9h-.7v.9H284v-.9h-.7z"/><path d="M293.5 193.8h1.2v.9h.9v-.9h1.2v.9h.9v-.9h1.2v2a.47.47 0 0 1-.5.5H294a.47.47 0 0 1-.5-.5v-2h0 0z" class="F"/><path d="M298.3 196.5H294c-.4 0-.8-.3-.8-.8v-2.1l.2-.1h.1 1.4v.9h.4v-.9h1.7v.9h.4v-.9h1.7v2.2c-.1.4-.4.8-.8.8zm-4.6-2.5v1.7c0 .1.1.3.3.3h4.2c.1 0 .3-.1.3-.3V194h-.7v.9h-1.4v-.9h-.7v.9h-1.3v-.9h-.7zm-3.2 1.3c0-.6.9-.6.8 0v1.5h-.8v-1.5"/><use xlink:href="#M" x="44.8"/><use xlink:href="#M" x="55.2"/><g class="F"><path d="M339.5 208.8c-.1-5.4-4-6.7-4-6.7s-4.1 1.4-4.1 6.8l8.1-.1"/><path d="M342.8 202.2l.7 6.2h-4.1c0-5.1-3.9-6-4-6s-3.9 1.1-4 6h-4.1l.7-6.3 14.8.1h0 0z"/></g><use xlink:href="#Q"/><path d="M343.8 208.5h-16.6c-.3 0-.6.3-.6.8 0 .4.3.8.6.8h16.6c.3 0 .6-.3.6-.8s-.3-.8-.6-.8z" class="F"/><use xlink:href="#R"/><path d="M337.7 208.5c0-3.2-2.2-4.2-2.2-4.2s-2.3.9-2.3 4.2h4.5" class="F"/><use xlink:href="#S"/><path d="M343.4 199.7h-15.9c-.3 0-.6.3-.6.7s.3.7.6.7h15.9c.3 0 .6-.3.6-.7s-.2-.7-.6-.7z" class="F"/><use xlink:href="#E" x="89.3"/><path d="M343.1 201h-15.2c-.3 0-.6.3-.6.7s.3.7.6.7h15.2c.3 0 .6-.3.6-.7 0-.3-.3-.7-.6-.7z" class="F"/><path d="M343.1 202.7h-15.2c-.5 0-.8-.4-.8-.9s.4-.9.8-.9h15.2c.5 0 .8.4.8.9s-.4.9-.8.9zm-15.2-1.4c-.2 0-.3.2-.3.4s.2.4.3.4h15.2c.2 0 .3-.2.3-.4s-.2-.4-.3-.4h-15.2z"/><path d="M338.2 190.7H337v.9h-.9v-.9h-1.2v.9h-.9v-.9h-1.2v2a.47.47 0 0 0 .5.5h4.3c.3 0 .6-.2.6-.5v-2h0 0z" class="F"/><use xlink:href="#T"/><path d="M333.6 193.3l-.3 6.3h4.2l-.3-6.3h-3.6" class="F"/><path d="M333.1 199.9l.3-6.8h4.1l.3 6.8h-4.7zm.8-6.4l-.3 5.8h3.7l-.3-5.8h-3.1z"/><path d="M338.8 196.2l-.1 3.4h4l-.1-3.4h-3.8 0 0z" class="F"/><path d="M343 199.9h-4.6l.1-3.9h4.3l.2 3.9zm-4.1-.5h3.5l-.1-2.9H339l-.1 2.9z"/><path d="M328.4 196.2l-.1 3.4h4l-.1-3.4h-3.8 0 0z" class="F"/><path d="M332.6 199.9H328l.1-3.9h4.3l.2 3.9zm-4.1-.5h3.5l-.1-2.9h-3.3l-.1 2.9z"/><use xlink:href="#U" class="F"/><path d="M342.8 196.5h-4.2c-.4 0-.8-.3-.8-.8v-2.2h1.7v.9h.4v-.9h1.7v.9h.4v-.9h1.5l.2.1v2.1c-.1.4-.5.8-.9.8zm-4.5-2.5v1.7c0 .2.1.3.3.3h4.2c.2 0 .3-.1.3-.3V194h-.7v.9h-1.3v-.9h-.7v.9H339v-.9h-.7z"/><use xlink:href="#V" class="F"/><path d="M332.4 196.5h-4.2c-.4 0-.8-.3-.8-.8v-2.2h1.7v.9h.4v-.9h1.7v.9h.4v-.9h1.5l.2.1v2.1c-.1.4-.5.8-.9.8zm-4.5-2.5v1.7c0 .2.1.3.3.3h4.2c.2 0 .3-.1.3-.3V194h-.7v.9h-1.3v-.9h-.7v.9h-1.4v-.9h-.7zm8 1.3c0-.6-.9-.6-.8 0v1.5h.8v-1.5m5.2 2.2a.4.4 0 0 0-.8 0v1.2h.8v-1.2m-10.4 0a.4.4 0 0 0-.8 0v1.2h.8v-1.2"/><g class="F"><path d="M339.5 254.2c-.1-5.4-4-6.7-4-6.7s-4.1 1.4-4.1 6.8l8.1-.1"/><path d="M342.8 247.6l.7 6.2h-4.1c0-5.1-3.9-6-4-6s-3.9 1.1-4 6h-4.1l.7-6.3 14.8.1h0 0z"/></g><use xlink:href="#Q" y="45.4"/><path d="M343.8 253.9h-16.6c-.3 0-.6.3-.6.8 0 .4.3.8.6.8h16.6c.3 0 .6-.3.6-.8s-.3-.8-.6-.8z" class="F"/><use xlink:href="#R" y="45.4"/><path d="M337.7 253.8c0-3.2-2.2-4.2-2.2-4.2s-2.3.9-2.3 4.2h4.5" class="F"/><use xlink:href="#S" y="45.4"/><path d="M343.4 245h-15.9c-.3 0-.6.3-.6.7s.3.7.6.7h15.9c.3 0 .6-.3.6-.7 0-.3-.2-.7-.6-.7z" class="F"/><use xlink:href="#N" x="89.3"/><path d="M343.1 246.4h-15.2c-.3 0-.6.3-.6.7s.3.7.6.7h15.2c.3 0 .6-.3.6-.7s-.3-.7-.6-.7z" class="F"/><path d="M343.1 248.1h-15.2c-.5 0-.8-.4-.8-.9s.4-.9.8-.9h15.2c.5 0 .8.4.8.9 0 .4-.4.9-.8.9zm-15.2-1.4c-.2 0-.3.2-.3.4s.2.4.3.4h15.2c.2 0 .3-.2.3-.4s-.2-.4-.3-.4h-15.2z"/><path d="M338.2 236.1H337v.9h-.9v-1h-1.2v.9h-.9v-.9h-1.2v2a.47.47 0 0 0 .5.5h4.3c.3 0 .6-.2.6-.5v-1.9h0 0z" class="F"/><use xlink:href="#T" y="45.4"/><path d="M333.6 238.7l-.3 6.3h4.2l-.3-6.3h-3.6" class="F"/><path d="M333.1 245.3l.3-6.8h4.1l.3 6.8h-4.7zm.8-6.4l-.3 5.8h3.7l-.3-5.8h-3.1z"/><path d="M338.8 241.6l-.1 3.4h4l-.1-3.4h-3.8 0 0z" class="F"/><path d="M343 245.3h-4.6l.1-3.9h4.3l.2 3.9zm-4.1-.5h3.5l-.1-2.9H339l-.1 2.9z"/><path d="M328.4 241.6l-.1 3.4h4l-.1-3.4h-3.8 0 0z" class="F"/><path d="M332.6 245.3H328l.1-3.9h4.3l.2 3.9zm-4.1-.5h3.5l-.1-2.9h-3.3l-.1 2.9z"/><use xlink:href="#U" y="45.4" class="F"/><path d="M342.8 241.9h-4.2c-.4 0-.8-.3-.8-.8v-2.2h1.7v.9h.4v-.9h1.7v.9h.4v-.9h1.5l.2.1v2.1c-.1.4-.5.8-.9.8zm-4.5-2.5v1.7c0 .2.1.3.3.3h4.2c.2 0 .3-.1.3-.3v-1.7h-.7v.9h-1.3v-.9h-.7v.9H339v-.9h-.7z"/><use xlink:href="#V" y="45.4" class="F"/><path d="M332.4 241.9h-4.2c-.4 0-.8-.3-.8-.8v-2.2h1.7v.9h.4v-.9h1.7v.9h.4v-.9h1.5l.2.1v2.1c-.1.4-.5.8-.9.8zm-4.5-2.5v1.7c0 .2.1.3.3.3h4.2c.2 0 .3-.1.3-.3v-1.7h-.7v.9h-1.3v-.9h-.7v.9h-1.4v-.9h-.7zm8 1.3c0-.6-.9-.6-.8 0v1.5h.8v-1.5m5.2 2.2a.4.4 0 0 0-.8 0v1.2h.8v-1.2m-10.4 0a.4.4 0 0 0-.8 0v1.2h.8v-1.2"/><g class="F"><path d="M321.8 301.5c3.7-3.9 1.9-7.5 1.9-7.6 0 0-3.9-2-7.7 1.8l5.8 5.8"/><path d="M328.8 299.2l-3.9 4.9-2.9-2.9c3.6-3.7 1.5-7 1.4-7-.1-.1-3.6-2-7.1 1.4l-2.9-2.9 5-3.9 10.4 10.4h0 0z"/></g><path d="M324.9 304.4l-3.2-3.2.2-.2c3.5-3.6 1.5-6.7 1.4-6.7h0s-3.3-1.9-6.7 1.4l-.2.2-3.2-3.3 5.4-4.2 10.6 10.8-.1.2-4.2 5zm-2.5-3.2l2.5 2.5 3.6-4.5-4.5-4.6c.2.4.3.9.4 1.4.1 1.3-.2 3.2-2 5.2zm-8.5-8.6l2.5 2.5c1.8-1.6 3.6-1.9 4.8-1.9a4.36 4.36 0 0 1 1.8.4l-4.6-4.6-4.5 3.6z"/><path d="M325.1 304.2l-11.7-11.8c-.2-.2-.7-.2-1 .1s-.3.7-.1 1l11.7 11.8c.2.2.7.2 1-.1s.3-.7.1-1z" class="F"/><path d="M324.4 305.7c-.2 0-.4-.1-.6-.2l-11.7-11.8c-.3-.3-.3-.9.1-1.3.2-.2.4-.3.7-.3s.5.1.7.2l11.7 11.8c.3.3.3.9-.1 1.3-.3.2-.5.3-.8.3zM313 292.5s-.1 0 0 0c-.2 0-.3.1-.4.2-.2.2-.2.5-.1.6l11.7 11.8c.1.1.4.1.6-.1s.2-.5.1-.6l-11.7-11.8c-.1 0-.1-.1-.2-.1z"/><path d="M320.8 299.9c2.3-2.3 1.4-4.5 1.4-4.5s-2.3-1-4.6 1.3l3.2 3.2" class="F"/><path d="M320.8 300.3l-3.5-3.6.2-.2c2.4-2.3 4.7-1.4 4.8-1.3h.1c.1.1.2.7.3 1.1 0 .9-.2 2.3-1.6 3.8l-.3.2zm-2.8-3.6l2.8 2.9c1.7-1.9 1.3-3.6 1.2-4-.4-.1-2.2-.6-4 1.1z"/><path d="M331.1 297.8l-11.2-11.3c-.2-.2-.7-.2-.9.1-.3.3-.3.7-.1.9l11.2 11.3c.2.2.6.2.9-.1s.3-.7.1-.9z" class="F"/><path d="M330.5 299.2c-.2 0-.4-.1-.6-.2l-11.2-11.3c-.3-.3-.3-.9.1-1.3.2-.2.4-.3.7-.3.2 0 .4.1.6.2l11.2 11.3c.3.3.3.9-.1 1.3-.2.2-.4.3-.7.3zm-11-12.6c-.1 0-.2.1-.3.1a.47.47 0 0 0-.1.6l11.2 11.3c.1.1.4.1.6-.1a.47.47 0 0 0 .1-.6l-11.2-11.3h-.3z"/><path d="M329.9 298.5l-10.7-10.8c-.2-.2-.6-.2-.9.1s-.3.7-.1.9l10.7 10.8c.2.2.6.2.9-.1s.3-.7.1-.9z" class="F"/><path d="M329.3 299.9c-.2 0-.4-.1-.6-.2L318 288.9c-.1-.1-.2-.3-.2-.6s.1-.5.3-.7.4-.3.6-.3.5.1.6.2l10.7 10.8c.3.3.3.9-.1 1.2-.1.3-.4.4-.6.4zm-10.5-12.1s-.1 0 0 0c-.1 0-.3.1-.3.2-.1.1-.2.2-.2.3s0 .1.1.2l10.7 10.8c.1.1.4.1.6-.1a.47.47 0 0 0 .1-.6L319 287.9c-.1-.1-.2-.1-.2-.1z"/><path d="M333.8 287.7l-.8-.9-.6.6-.6-.6.6-.6-.9-.9-.6.6-.6-.6.6-.6-.9-.9-1.4 1.4c-.2.2-.2.5 0 .7l3 3.1a.61.61 0 0 0 .8 0l1.4-1.3h0 0z" class="F"/><path d="M332 289.5c-.2 0-.4-.1-.6-.2l-3-3.1c-.2-.2-.2-.4-.2-.6s.1-.4.2-.5l1.6-1.6 1.2 1.2-.6.6.3.3.6-.6 1.2 1.2-.6.6.3.3.6-.6 1.1 1.1.1.2-1.5 1.5c-.3.1-.5.2-.7.2zm-2-5.3l-1.2 1.2c-.1.1-.1.1-.1.2s0 .2.1.2l3 3.1c.1.1.3.1.4 0l1.2-1.2-.5-.5-.6.6-1-1 .6-.6-.5-.5-.6.6-1-1 .6-.6-.4-.5z"/><path d="M328.7 286.4l-4.7 4.3 3 3 4.3-4.7-2.6-2.6" class="F"/><path d="M327 294l-3.3-3.3 5-4.6 2.9 2.9-4.6 5zm-2.6-3.4l2.6 2.6 4-4.3-2.3-2.3-4.3 4z"/><path d="M330.3 292.1l-2.5 2.3 2.8 2.9 2.3-2.5-2.6-2.7h0 0z" class="F"/><path d="M330.6 297.6l-3.2-3.2 2.7-2.5.2.2.2-.2h0l.2.2h0l2.7 2.7-2.8 2.8zm-2.5-3.2l2.5 2.5 2-2.1-2.3-2.4-2.2 2z"/><path d="M322.9 284.7l-2.5 2.3 2.8 2.9 2.3-2.5-2.6-2.7h0 0z" class="F"/><path d="M323.3 290.2l-3.2-3.2 2.9-2.6 3 3-2.7 2.8zm-2.5-3.2l2.5 2.5 2-2.1-2.3-2.4-2.2 2z"/><use xlink:href="#W" class="F"/><path d="M333.5 295.3c-.2 0-.4-.1-.6-.2l-3-3c-.3-.3-.3-.8 0-1.1l1.6-1.6 1.2 1.2-.6.6.3.3.6-.6 1.2 1.2-.6.6.3.3.6-.6 1.1 1.1v.2l-1.5 1.4c-.2.1-.4.2-.6.2zm-2-5.2l-1.2 1.2c-.1.1-.1.3 0 .4l3 3c.1.1.3.1.4 0l1.2-1.2-.5-.5-.6.6-1-1 .6-.6-.5-.5-.6.6-1-1 .6-.6-.4-.4z"/><use xlink:href="#W" x="-7.3" y="-7.4" class="F"/><path d="M326.2 287.9c-.2 0-.4-.1-.6-.2l-3-3c-.3-.3-.3-.8 0-1.1l1.6-1.6 1.2 1.2-.6.6.3.3.6-.6 1.2 1.2-.6.6.3.3.6-.6 1.1 1.1-.1.2-1.4 1.4c-.3.2-.5.2-.6.2zm-2-5.1L323 284c-.1.1-.1.3 0 .4l3 3c.1.1.3.1.4 0l1.2-1.2-.5-.5-.6.6-1-1 .6-.6-.5-.5-.6.6-1-1 .6-.6-.4-.4zm4.7 6.6c.5-.4-.2-1-.6-.6l-1.1 1.1.6.6 1.1-1.1"/><path d="M331 294.6c.4-.4-.1-1-.6-.6l-.8.8.6.6.8-.8m-174.908-7.4c-.4-.4.1-1 .6-.6l.8.8-.6.6-.8-.8"/><use xlink:href="#X" fill="#039"/><g class="G"><circle cx="287.1" cy="249.3" r="1.5"/><circle cx="295.2" cy="249.3" r="1.5"/><circle cx="291.1" cy="253.2" r="1.5"/><circle cx="287.1" cy="257.3" r="1.5"/><circle cx="295.2" cy="257.3" r="1.5"/></g><use xlink:href="#X" y="-25.5" fill="#039"/><g class="G"><circle cx="287.1" cy="223.8" r="1.5"/><circle cx="295.2" cy="223.8" r="1.5"/><circle cx="291.1" cy="227.7" r="1.5"/><circle cx="287.1" cy="231.8" r="1.5"/><circle cx="295.2" cy="231.8" r="1.5"/></g><use xlink:href="#X" x="-20.4" fill="#039"/><g class="G"><circle cx="266.7" cy="249.3" r="1.5"/><circle cx="274.8" cy="249.3" r="1.5"/><circle cx="270.8" cy="253.2" r="1.5"/><circle cx="266.7" cy="257.3" r="1.5"/><circle cx="274.8" cy="257.3" r="1.5"/></g><use xlink:href="#X" x="20.3" fill="#039"/><g class="G"><circle cx="307.4" cy="249.3" r="1.5"/><circle cx="315.6" cy="249.3" r="1.5"/><circle cx="311.5" cy="253.2" r="1.5"/><circle cx="307.4" cy="257.3" r="1.5"/><circle cx="315.5" cy="257.3" r="1.5"/></g><use xlink:href="#X" y="25.2" fill="#039"/><g class="G"><circle cx="287.1" cy="274.6" r="1.5"/><circle cx="295.2" cy="274.6" r="1.5"/><circle cx="291.1" cy="278.5" r="1.5"/><circle cx="287.1" cy="282.6" r="1.5"/><circle cx="295.2" cy="282.6" r="1.5"/></g><defs ><path id="B" d="M238.8 202.2l-.7 6.2h4.1c0-5.1 3.9-6 4-6s3.9 1.1 4 6h4.1l-.7-6.3-14.8.1h0 0z"/><path id="C" d="M242.4 208.7h-4.6l.7-6.5.1-.2h15.1l.8 6.8h-4.6v-.2c-.1-4.7-3.8-5.7-3.8-5.7s-3.7.7-3.7 5.7v.1zm8-.5h3.6l-.7-5.8h-6.5c.4.2 1 .5 1.6 1.1.9.8 1.9 2.3 2 4.7zm-12 0h3.5c.1-2.7 1.2-4.2 2.2-5 .4-.4.9-.6 1.3-.8H239l-.6 5.8z"/><path id="D" d="M254.5 210.3h-16.6c-.5 0-.9-.5-.9-1 0-.6.4-1 .9-1h16.6c.5 0 .9.5.9 1-.1.5-.5 1-.9 1zm-16.6-1.6c-.2 0-.4.2-.4.5s.2.5.4.5h16.6c.2 0 .4-.2.4-.5s-.2-.5-.4-.5h-16.6z"/><path id="E" d="M254.1 201.3h-15.9c-.5 0-.9-.4-.9-.9s.4-.9.9-.9h15.9c.5 0 .9.4.9.9s-.4.9-.9.9zm-15.9-1.4c-.2 0-.4.2-.4.4s.2.4.4.4h15.9c.2 0 .4-.2.4-.4s-.2-.4-.4-.4h-15.9z"/><path id="F" d="M253.8 202.7h-15.2c-.5 0-.8-.4-.8-.9s.4-.9.8-.9h15.2c.5 0 .8.4.8.9s-.4.9-.8.9zm-15.3-1.4c-.2 0-.3.2-.3.4s.2.4.3.4h15.2c.2 0 .3-.2.3-.4s-.2-.4-.3-.4h-15.2z"/><path id="G" d="M248.5 199.9h-4.7l.3-6.8h4.1l.3 6.8zm-4.2-.5h3.7l-.3-5.8h-3.2l-.2 5.8z"/><path id="H" d="M242.8 196.2l.1 3.4h-4l.1-3.4h3.8 0 0z"/><path id="I" d="M238.7 199.9l.1-3.9h4.3l.1 3.9h-4.5zm.6-3.4l-.1 2.9h3.5l-.1-2.9h-3.3z"/><path id="J" d="M238.3 193.8h1.2v.9h.9v-.9h1.2v.9h.9v-.9h1.2v2a.47.47 0 0 1-.5.5H239a.47.47 0 0 1-.5-.5l-.2-2h0 0z"/><path id="K" d="M243.1 196.5h-4.2c-.4 0-.8-.3-.8-.8v-2.1l.2-.1h.1 1.4v.9h.4v-.9h1.7v.9h.4v-.9h1.7v2.2c-.2.4-.5.8-.9.8zm-4.6-2.5v1.7c0 .1.1.3.3.3h4.2c.1 0 .3-.1.3-.3V194h-.7v.9h-1.4v-.9h-.7v.9h-1.3v-.9h-.7z"/><path id="L" d="M248.7 193.8h1.2v.9h.9v-.9h1.2v.9h.9v-.9h1.2v2a.47.47 0 0 1-.5.5h-4.2a.47.47 0 0 1-.5-.5l-.2-2h0 0z"/><path id="M" d="M240.5 197.5a.4.4 0 0 1 .8 0v1.2h-.8v-1.2"/><path id="N" d="M254.1 246.7h-15.9c-.5 0-.9-.4-.9-.9s.4-.9.9-.9h15.9c.5 0 .9.4.9.9 0 .4-.4.9-.9.9zm-15.9-1.4c-.2 0-.4.2-.4.4s.2.4.4.4h15.9c.2 0 .4-.2.4-.4s-.2-.4-.4-.4h-15.9z"/><path id="O" d="M243.1 241.9h-4.2c-.4 0-.8-.3-.8-.8V239l.2-.1h.1 1.4v.9h.4v-.9h1.7v.9h.4v-.9h1.7v2.2c-.2.4-.5.8-.9.8zm-4.6-2.5v1.7c0 .1.1.3.3.3h4.2c.1 0 .3-.1.3-.3v-1.7h-.7v.9h-1.4v-.9h-.7v.9h-1.3v-.9h-.7z"/><path id="P" d="M246.4 293.6l.8-.8.6.6.6-.6-.6-.6.9-.9.6.6.6-.6-.6-.6.9-.9 1.4 1.4c.2.2.2.5 0 .7l-3 3c-.2.2-.5.2-.8 0l-1.4-1.3h0 0z"/><path id="Q" d="M339.2 208.7v-.2c0-5-3.7-5.7-3.8-5.7 0 0-3.7 1-3.8 5.7v.2H327l.8-6.8H343v.2l.7 6.5-4.5.1zm-11.5-.5h3.6c.1-2.4 1.2-3.9 2-4.7.6-.5 1.1-.9 1.6-1.1h-6.5l-.7 5.8zm8.5-5.7c.4.2.8.4 1.3.8 1 .8 2.1 2.3 2.2 5h3.5l-.6-5.7-6.4-.1z"/><path id="R" d="M343.8 210.3h-16.6c-.5 0-.9-.5-.9-1 0-.6.4-1 .9-1h16.6c.5 0 .9.5.9 1s-.4 1-.9 1zm-16.6-1.6c-.2 0-.4.2-.4.5s.2.5.4.5h16.6c.2 0 .4-.2.4-.5s-.2-.5-.4-.5h-16.6z"/><path id="S" d="M338 208.7h-5v-.2c0-3.3 2.4-4.4 2.6-4.4s.8.5.8.5c.7.6 1.6 1.8 1.6 3.9v.2zm-4.5-.5h4c-.1-2.5-1.6-3.5-2-3.7-.3.2-1.9 1.1-2 3.7z"/><path id="T" d="M337.6 193.4h-4.3c-.4 0-.8-.3-.8-.8v-2.2h1.7v.9h.4v-.9h1.7v.9h.4v-.9h1.5l.2.1v2.1c0 .4-.4.8-.8.8zm-4.6-2.5v1.7c0 .2.2.3.3.3h4.3c.2 0 .3-.1.3-.3v-1.7h-.7v.9h-1.4v-.9h-.7v.9h-1.4v-.9h-.7z"/><path id="U" d="M343.3 193.8h-1.2v.9h-.9v-.9H340v.9h-.9v-.9h-1.2v2a.47.47 0 0 0 .5.5h4.2a.47.47 0 0 0 .5-.5l.2-2h0 0z"/><path id="V" d="M332.9 193.8h-1.2v.9h-.9v-.9h-1.2v.9h-.9v-.9h-1.2v2a.47.47 0 0 0 .5.5h4.2a.47.47 0 0 0 .5-.5l.2-2h0 0z"/><path id="W" d="M335.2 293.6l-.8-.8-.6.6-.6-.6.6-.6-.9-.9-.6.6-.6-.6.6-.6-.9-.9-1.4 1.4c-.2.2-.2.5 0 .7l3 3c.2.2.5.2.8 0l1.4-1.3h0 0z"/><path id="X" d="M283.7 255.9h0c0 2.2.8 4.1 2.2 5.6 1.3 1.4 3.2 2.3 5.2 2.3s3.9-.9 5.2-2.3 2.2-3.4 2.2-5.6v-10.6h-14.7l-.1 10.6"/></defs></svg>