<svg width="160" height="101" xmlns="http://www.w3.org/2000/svg">
    <g fill="none" fill-rule="evenodd">
        <g transform="translate(0 .408)">
            <rect fill="#F2F2F2" width="145.783" height="94.059" rx="3.202"/>
            <rect fill="#FFF" x="90.067" y="38.141" width="47.233" height="47.339" rx="2.135"/>
            <ellipse fill="#FFF" cx="105.917" cy="58.098" rx="1.431" ry="2.152"/>
            <ellipse fill="#FFF" cx="121.661" cy="58.098" rx="1.431" ry="2.152"/>
            <rect fill="#C2C2C2" x="35.778" y="25.656" width="32.574" height="3.258" rx="1.629"/>
            <rect fill="#E6E6E6" x="35.778" y="8.551" width="37.914" height="6.516" rx="3.258"/>
            <rect fill="#E6E6E6" x="93.451" y="8.551" width="43.788" height="6.516" rx="3.258"/>
            <rect fill="#E6E6E6" x="35.778" y="81.043" width="50.73" height="3.258" rx="1.629"/>
            <rect fill="#E6E6E6" x="8.544" y="30.997" width="22.962" height="21.911" rx="2.135"/>
            <rect fill="#C2C2C2" x="35.778" y="39.502" width="46.992" height="3.258" rx="1.629"/>
            <g transform="translate(35.778 53.35)" fill="#C2C2C2">
                <rect width="7.591" height="3.258" rx="1.629"/>
                <rect x="10.125" width="11.387" height="3.258" rx="1.629"/>
                <rect x="24.046" width="17.08" height="3.258" rx="1.629"/>
            </g>
            <rect fill="#C2C2C2" x="35.778" y="68.825" width="37.914" height="3.258" rx="1.629"/>
        </g>
        <g stroke="#FA4C51" stroke-linecap="round" stroke-width="1.214">
            <path d="M103.256 69.756c1.656 6.451 5.04 9.677 10.156 9.677 5.116 0 8.62-3.226 10.513-9.677M101.771 69.325c-1.963-4.397-1.552-6.243 1.234-5.538M125.348 69.325c1.963-4.397 1.552-6.243-1.234-5.538"/>
            <path d="M103.005 63.787c-.182-6.623 1.166-10.388 4.043-11.295m0 0c3.284 3.373 7.3 4.58 12.05 3.62m0 0c2.715.125 4.387 2.683 5.016 7.675m-21.126 0c-5.11-9.823-3.47-15.328 4.921-16.515m16.205 16.515c3.077-8.212 2.621-13.717-1.367-16.515-5.984-4.198-10.446-3.754-14.838 0M108.895 63.641v1.74M118.145 63.641v1.74M110.64 73.942c.929.508 1.858.762 2.788.762.93 0 1.859-.254 2.788-.762"/>
        </g>
        <g transform="translate(130.761 71.677)">
            <ellipse fill="#FA4C51" cx="14.619" cy="14.661" rx="14.619" ry="14.661"/>
            <path d="m13.868 17.452-.502-8.075a1.126 1.126 0 1 1 2.25 0l-.486 8.075a.631.631 0 0 1-1.262 0zm.631 2.112c.636 0 1.15.515 1.15 1.15v.007a1.15 1.15 0 1 1-2.3 0v-.006c0-.636.515-1.15 1.15-1.15z" fill="#FFF" fill-rule="nonzero"/>
        </g>
    </g>
</svg>
