<?xml version="1.0" encoding="utf-8"?>
<!-- Generator: Adobe Illustrator 24.1.2, SVG Export Plug-In . SVG Version: 6.00 Build 0)  -->
<svg version="1.1" id="Layer_1" xmlns="http://www.w3.org/2000/svg" xmlns:xlink="http://www.w3.org/1999/xlink" x="0px" y="0px"
	 viewBox="0 0 82.3 68.1" style="enable-background:new 0 0 82.3 68.1;" xml:space="preserve">
<style type="text/css">
	.st0{fill:#2850E4;}
</style>
<g transform="translate(0.000000,252.000000) scale(0.100000,-0.100000)">
	<path class="st0" d="M57.2,2418c-19-24-21-40-21-151c0-118,1-125,25-148c17-18,35-25,63-25c52,0,81-25,88-75c10-73,13-81,39-93
		c78-36,135,11,135,110c0,31,5,41,25,50c19,8,31,8,50,0c21-10,25-18,25-56c0-98,33-120,169-115c132,6,125-7,129,259l3,220l-25,25
		c-32,32-96,35-126,5c-18-18-20-33-20-153c0-104-3-137-16-155c-20-28-69-30-84-3c-5,11-10,79-10,151c0,126-1,132-25,155
		c-31,32-96,34-125,5c-18-18-20-33-20-153c0-154-9-177-65-177s-65,23-65,177c0,120-2,135-20,153C155.2,2455,84.2,2452,57.2,2418z"/>
</g>
</svg>
